<?xml version="1.0" encoding="utf-8"?><!-- Uploaded to: SVG Repo, www.svgrepo.com, Generator: SVG Repo Mixer Tools -->
<svg width="800px" height="800px" viewBox="0 0 366.34 366.34" id="Layer_1" data-name="Layer 1" xmlns="http://www.w3.org/2000/svg"><defs><style>.cls-1{fill:#f2a196;}.cls-2{fill:#e88870;}.cls-3{fill:#ff2609;}.cls-4{fill:#f2d4cf;}.cls-5{fill:#daaea8;}.cls-6{fill:none;stroke:#00214e;stroke-miterlimit:10;}.cls-7{fill:#ffffff;}.cls-8{fill:#00214e;}</style></defs><title>Artboards_Diversity_Avatars_by_Netguru</title><path class="cls-1" d="M296.41,291.18a184.56,184.56,0,0,1-226.48-1l48.66-22.81a46.83,46.83,0,0,0,6.65-3.82c.64-.44,1.28-.9,1.89-1.38a46.35,46.35,0,0,0,12.78-15.09,44.69,44.69,0,0,0,4.64-14.48,67.91,67.91,0,0,0,.74-9.91c0-5.72-.31-11.44-.37-17.17q-.06-4.75-.1-9.51l2,1,5.2,2.69,2.41.41,27.88,4.74,31.12,5.3.94,32,.31,10.46.15,5.08V258l12.1,4.92Z"/><path class="cls-2" d="M214.71,255.63a16,16,0,0,1-10.07-1.56L145,205.29c-.07-2.26-.13.11-.16-2.15q-.06-4.75-.1-9.51l2,1,5.2,2.69,2.41.41,27.88,4.74,31.12,5.3.94,32,.31,10.46.15,5.08v.33Z"/><path class="cls-3" d="M296.41,291.18a184.56,184.56,0,0,1-226.48-1l48.66-22.81a46.83,46.83,0,0,0,6.65-3.82c.64-.44,1.28-.9,1.89-1.38,23.55,16.76,55.69,27.33,83.49,14.82,6.62-3,12.7-7.84,16.3-14.06Z"/><path class="cls-4" d="M278.51,90.9c-.09.59-.2,1.17-.33,1.75a32.08,32.08,0,0,1-3.31,8.49l-.08.14c-.57,1-1.18,2-1.84,3a74.32,74.32,0,0,1-5.72,7.35L266,113c-.83.93-1.67,1.84-2.51,2.74a6.29,6.29,0,0,1,1.93-.11,4.21,4.21,0,0,1,.71.12c3.19.66,5.92,3.63,6.77,7,.05.22.1.45.14.67.79,4.48-1,9-3.21,13-3.87,7.08-9.45,11.79-14.36,17.94-3.68,4.58-5.72,10-9.73,14.38l-.3.33-.24.24c-10.6,10.92-27.17,13.51-41,18.23-5,1.72-59.22,17.12-59.22,20.48,0-.73-5.31-6-12-12.41-24-22.79-31.89-58-17.61-88.2,15.35-32.5,50.21-55.69,83.41-66.83,10.38-3.48,22.16-5.82,32-1s14.74,19.77,6.58,27.07a26.16,26.16,0,0,1,17.93-5.21,24.46,24.46,0,0,1,15.72,7.07,26.83,26.83,0,0,1,5.58,8.18,28.64,28.64,0,0,1,1.37,3.9A24.94,24.94,0,0,1,278.51,90.9Z"/><path class="cls-5" d="M278.51,90.9c-.09.59-.2,1.17-.33,1.75a32.08,32.08,0,0,1-3.31,8.49l-.08.14c-.57,1-1.18,2-1.84,3a74.32,74.32,0,0,1-5.72,7.35L266,113c-.83.93-1.67,1.84-2.51,2.74a6.29,6.29,0,0,1,1.93-.11,4.21,4.21,0,0,1,.71.12c3.19.66,5.92,3.63,6.77,7,.05.22.1.45.14.67.79,4.48-1,9-3.21,13-3.87,7.08-9.45,11.79-14.36,17.94-3.68,4.58-5.72,10-9.73,14.38l-.3.33-.24.24a39.31,39.31,0,0,1-7.44-18.45c-1.71-13.84-.67-28.92-1.14-42.93-.16-4.89-.45-10.72,1.12-15.36a14.35,14.35,0,0,1,1.71-3.24,59.49,59.49,0,0,1,6.27-8.37,22,22,0,0,1,9.68-6,32.54,32.54,0,0,1,6.11-1.12,28.37,28.37,0,0,1,6.64.13,25,25,0,0,1,8.38,2.77,28.64,28.64,0,0,1,1.37,3.9A24.94,24.94,0,0,1,278.51,90.9Z"/><circle class="cls-1" cx="134.98" cy="168" r="17"/><circle class="cls-2" cx="140.38" cy="168" r="15.22"/><path class="cls-1" d="M140.6,152,145,209l66.44,38.82A19.76,19.76,0,0,0,236.1,238c9.56-19.58,24.9-50.49,22.88-62-3-17-11-23-11-23l3.33-19.94c1.25-7.51,2.86-15.35,1-22.9-2.13-8.65-8.67-12.35-14.05-18.82-14.16,18.24-37.44,28.55-57.77,39C170,135.78,140.6,152,140.6,152Z"/><path class="cls-6" d="M215.13,147.1c-.08.34,13.36,36.12,13.36,36.12l-17.94.88"/><path class="cls-6" d="M172.65,140.17a80.57,80.57,0,0,1,28.13-.79"/><path class="cls-6" d="M231.7,140.28a55.64,55.64,0,0,1,17.45-1.21"/><path class="cls-7" d="M192.17,194.1a1.86,1.86,0,0,1,2.68-.5c2.08,1.46,5.88,4.56,11.28,5.63,7.36,1.47,13.74-1.48,15.27.42.86,1.07-.19,2.38-2.2,4a19.69,19.69,0,0,1-14.86,3.69c-7.08-1.33-12.4-9.53-12.4-12.44A1.68,1.68,0,0,1,192.17,194.1Z"/><path class="cls-8" d="M189.53,151.64c6.1.05,6.1,9.37,0,9.42h-.28c-6.1-.05-6.1-9.37,0-9.42h.28Z"/><path class="cls-8" d="M239.79,151c5.66,0,5.66,8.7,0,8.74h-.25c-5.67,0-5.67-8.7,0-8.74h.25Z"/></svg>