<?xml version="1.0" encoding="utf-8"?><!-- Uploaded to: SVG Repo, www.svgrepo.com, Generator: SVG Repo Mixer Tools -->
<svg width="800px" height="800px" viewBox="0 0 366.34 366.34" id="Layer_1" data-name="Layer 1" xmlns="http://www.w3.org/2000/svg" xmlns:xlink="http://www.w3.org/1999/xlink"><defs><style>.cls-1{fill:url(#linear-gradient);}.cls-2{fill:#845161;}.cls-3{fill:#69303a;}.cls-4{fill:none;stroke:#00214e;stroke-miterlimit:10;}.cls-5{fill:#ff2609;}.cls-6{fill:#00214e;}</style><linearGradient id="linear-gradient" x1="115.33" y1="201.98" x2="381.19" y2="-45.12" gradientUnits="userSpaceOnUse"><stop offset="0" stop-color="#315676"/><stop offset="1" stop-color="#e1b9e0"/></linearGradient></defs><title>Artboards_Diversity_Avatars_by_Netguru</title><path class="cls-1" d="M301.17,138.92c0,7.61-8.67,14.27-10.09,21.47-1.47,7.41,4,16.88,1.14,23.7s-13.44,9.78-17.57,15.94-2.77,17.06-8,22.33-16.11,3.87-22.32,8-9,14.7-15.95,17.57-16.28-2.6-23.7-1.13c-7.19,1.42-13.86,10.09-21.47,10.09s-14.27-8.67-21.47-10.09c-7.41-1.47-16.88,4-23.7,1.13s-9.77-13.44-15.94-17.57-17.06-2.76-22.33-8-3.87-16.11-8-22.33S77,191,74.13,184.09s2.6-16.29,1.14-23.7c-1.43-7.2-10.1-13.86-10.1-21.47s8.67-14.28,10.1-21.47c1.46-7.41-4-16.88-1.14-23.7S87.57,84,91.7,77.8s2.76-17,8-22.32,16.11-3.87,22.33-8,9-14.69,15.94-17.57,16.29,2.61,23.7,1.14c7.2-1.42,13.86-10.09,21.47-10.09S197.45,29.59,204.64,31c7.42,1.47,16.88-4,23.7-1.14s9.78,13.45,15.95,17.58,17,2.76,22.32,8,3.88,16.11,8,22.33,14.69,9,17.57,15.94-2.61,16.29-1.14,23.7C292.5,124.64,301.17,131.31,301.17,138.92Z"/><circle class="cls-2" cx="132.17" cy="183.92" r="17"/><circle class="cls-3" cx="138.03" cy="182.92" r="16"/><path class="cls-2" d="M293.76,307.1a184.56,184.56,0,0,1-226.48-1l48.66-22.81a46.83,46.83,0,0,0,6.65-3.82c.64-.44,1.28-.9,1.89-1.38A46.35,46.35,0,0,0,137.26,263c4-7.55,5.32-15.89,5.38-24.39,0-1.74,0-3.49-.06-5.23-.09-4-.27-8-.31-11.94q-.06-4.76-.1-9.51l2,1,5.2,2.69,2.41.41,27.88,4.74,31.12,5.3.94,32,.36,12.21.1,3.33v.33l12.1,4.92Z"/><path class="cls-3" d="M212.09,270.47l-1.54.16A51.49,51.49,0,0,1,169.88,256L142.5,223.47c-.09-2.9-.2,0-.23-2.91q-.06-4.76-.1-9.51l2,1,5.2,2.69,2.41.41,27.88,4.74,31.12,5.3.94,32Z"/><path class="cls-2" d="M137.28,149.32c-.79,1-1.49,3-2.24,6.11-1.73,7.33,5.85,55.45,7.3,69.62l36.42,26.85a51.48,51.48,0,0,0,42.29,9c5.87-1.39,9.59-2.29,12.24-7,5.12-9,17.69-39.79,18.51-61.51.23-6.16.08-15.57-3.72-20.82-1.85-2.55-2.8-2.6-2.13-6.21.69-3.76,1.68-7.47,2.51-11.21,2.29-10.33,4.12-22,.81-32.28-1.76-5.5-4.87-9.14-9.29-12.68-4.72-3.78-6.67-3.59-9.5,2-1.91,3.8-3.83,7-7.7,9.16-5.61,3.11-9.43,1.09-15,.66-4.88-.37-4.36,3.4-5.43,6.95a16.8,16.8,0,0,1-6.77,9.25,18.53,18.53,0,0,1-20,.12,4.75,4.75,0,0,0-2.85-.89c-3.34.18-3.49,4.19-4.25,7.07-1.61,6-8.62,9.32-14.85,8.83C143.47,151.59,139.85,145.93,137.28,149.32Z"/><path class="cls-4" d="M217.54,167.2a57.24,57.24,0,0,0,2,11.49c1,3.31,2.52,5.36,4.52,8.22a18.39,18.39,0,0,1,1.79,3c2.64,5.94-.87,12.53-7.55,12.53h-4.13"/><path class="cls-4" d="M188.51,212.23a29.85,29.85,0,0,0,18.54,9.7"/><path class="cls-4" d="M169.84,156.09a80.82,80.82,0,0,1,28.13-.8"/><path class="cls-4" d="M228.89,156.2A55,55,0,0,1,246.34,155"/><path class="cls-5" d="M293.76,307.1a184.56,184.56,0,0,1-226.48-1l48.66-22.81a46.83,46.83,0,0,0,6.65-3.82c.64-.44,1.28-.9,1.89-1.38C148,294.84,180.17,305.41,208,292.9c6.62-3,12.7-7.84,16.3-14.06Z"/><path class="cls-4" d="M200.84,195.4a3.4,3.4,0,0,0,2.11,6.38"/><path class="cls-6" d="M185.34,163.73c6.1.05,6.1,9.37,0,9.42h-.28c-6.1-.05-6.1-9.37,0-9.42h.28Z"/><path class="cls-6" d="M235.6,163.73c5.66,0,5.66,8.7,0,8.74h-.26c-5.66,0-5.66-8.7,0-8.74h.26Z"/></svg>