<?xml version="1.0" encoding="utf-8"?><!-- Uploaded to: SVG Repo, www.svgrepo.com, Generator: SVG Repo Mixer Tools -->
<svg width="800px" height="800px" viewBox="0 0 366.34 366.34" id="Layer_1" data-name="Layer 1" xmlns="http://www.w3.org/2000/svg"><defs><style>.cls-1{fill:#00214e;}.cls-2{fill:#f2a196;}.cls-3{fill:#e88870;}.cls-4{fill:#845161;}.cls-5,.cls-6{fill:none;stroke-miterlimit:10;}.cls-5{stroke:#00214e;}.cls-6{stroke:#f2a196;}</style></defs><title>Artboards_Diversity_Avatars_by_Netguru</title><path class="cls-1" d="M256.93,135.87c-2.42,7.2-2.81,17-7.06,23.38-9.35,14-27.49,16.4-42.25,21.44a11.74,11.74,0,0,0-2.82.91l-5.22,1.65q-7.53,2.37-15,4.8c-6.92,2.25-16.43,3.63-21.41,9.31a109.81,109.81,0,0,0-8,10.33c-.48.71-1.07,1.49-1.92,1.56-.54,0-1-.71-1.45-1-8.88-4.78-15.41-11.34-20.88-19.66a126,126,0,0,1-19-86.17c.06-.44.12-.87.19-1.31a51.6,51.6,0,0,1,12.78-26.06A86.79,86.79,0,0,1,148.39,57a148.21,148.21,0,0,1,16.18-7.35A110,110,0,0,1,202.25,42,94.36,94.36,0,0,1,238,49.07c15.62,6.25,27.73,17.92,28.74,35.58C267.74,102.06,262.46,119.41,256.93,135.87Z"/><circle class="cls-2" cx="134.83" cy="162.86" r="17"/><circle class="cls-3" cx="140.68" cy="161.86" r="16"/><path class="cls-2" d="M296.41,286a184.56,184.56,0,0,1-226.48-1l48.66-22.81a46.83,46.83,0,0,0,6.65-3.82l1.11-.78.78-.6a46.35,46.35,0,0,0,12.78-15.09c4-7.55,5.32-15.89,5.38-24.39,0-2.87-.06-5.74-.15-8.61s-.19-5.7-.22-8.56q-.06-4.76-.1-9.51l1.84.95.14.07,5.2,2.69,2.41.41,27.88,4.74,11.05,1.88L213.41,205l.94,32,.39,13.3.07,2.24v.33l12.1,4.92.75.31Z"/><path class="cls-3" d="M145.14,202.68,178,233.5a51.66,51.66,0,0,0,36.77,12.79l-.39-13.3-.94-32-20.07-3.42c-2.74,1.24-5.48,2.48-8.22,3.56-8.2,3.23-17.47,2-25.42-1.36a36.93,36.93,0,0,1-14.87-12Z"/><path class="cls-4" d="M296.41,286a184.56,184.56,0,0,1-226.48-1l48.66-22.81a46.83,46.83,0,0,0,6.65-3.82l1.11-.78c24.36,16.61,56.82,26.66,85,14a37.81,37.81,0,0,0,16.31-13.51Z"/><path class="cls-2" d="M254.46,171.31a106,106,0,0,1-3.51,21.6c-4.31,16.92-11.45,33.65-15,39.91-2.66,4.67-6.37,5.57-12.24,7a51.47,51.47,0,0,1-42.29-8.94L145,204c-.51-5-1.37-10.25-2.33-15.6-2.78-15.54-6.38-32-4.82-46.54a17,17,0,0,1,5.64-10.69c8.38-7.94,24-11.54,33.74-14,14.62-3.76,29.64-6,44.05-10.43,10.61-3.3,22.06-8.32,28.42-17.88,0,0,1.1,10.81,1.35,13.28.53,5.09.52,9.51,1.07,14.53a52,52,0,0,1-1,16.45c-.83,3.73-1.81,7.45-2.51,11.21-.67,3.6.28,3.66,2.13,6.21C254.54,155.74,254.69,165.14,254.46,171.31Z"/><path class="cls-1" d="M187.56,143c6.1,0,6.1,9.38,0,9.43h-.27c-6.1,0-6.1-9.38,0-9.43h.27Z"/><path class="cls-1" d="M237.69,141.6c5.66.05,5.66,8.7,0,8.75h-.25c-5.67,0-5.67-8.7,0-8.75h.25Z"/><path class="cls-5" d="M219.4,147c-.05.2,4.79,8.56,7.31,17.59a58,58,0,0,1,1.62,14.75H214.82"/><path class="cls-1" d="M251,192.91c-4.31,16.92-11.45,33.65-15,39.91-2.66,4.67-6.37,5.57-12.24,7a51.47,51.47,0,0,1-42.29-8.94L145,204c-.6-5.89-2.75-11.53-4-17.33-.54-2.62-1-5.36-.36-8a6.84,6.84,0,0,0,1.71,3.73c4.72,6.42,10.24,13.67,18.1,16.31,8.2,2.75,17.54,3.18,25.45-.7,6.89-3.38,13.64-7.79,20.83-10.57a35.05,35.05,0,0,1,15.11-2.61c7.34.5,10.48,3.81,15.85,8.18,1.76,1.44,3.73,2.94,6,2.95C246.29,196,248.79,194.56,251,192.91Z"/><path class="cls-6" d="M204.37,198.32a29.8,29.8,0,0,0,20.89-1.21"/><path class="cls-5" d="M172.49,135a80.35,80.35,0,0,1,28.13-.8"/><path class="cls-5" d="M231.54,135.13A55.7,55.7,0,0,1,249,133.92"/><path class="cls-5" d="M203.49,174.34a3.4,3.4,0,0,0,2.11,6.38"/><polygon class="cls-1" points="141.67 188.44 142.67 188.38 143.33 189.16 145.48 202.98 145 203.16 144.28 202.17 141.67 188.44"/></svg>