<?xml version="1.0" encoding="utf-8"?><!-- Uploaded to: SVG Repo, www.svgrepo.com, Generator: SVG Repo Mixer Tools -->
<svg width="800px" height="800px" viewBox="0 0 366.34 366.34" id="Layer_1" data-name="Layer 1" xmlns="http://www.w3.org/2000/svg" xmlns:xlink="http://www.w3.org/1999/xlink"><defs><style>.cls-1{fill:url(#linear-gradient);}.cls-2{fill:#845161;}.cls-3{fill:#69303a;}.cls-4{fill:url(#linear-gradient-2);}.cls-5{fill:#00214e;}.cls-6{fill:none;stroke:#00214e;stroke-miterlimit:10;}.cls-7{fill:url(#linear-gradient-3);}</style><linearGradient id="linear-gradient" x1="-15.15" y1="263.47" x2="221.28" y2="43.73" gradientTransform="translate(69.34 -23.47) rotate(2.41)" gradientUnits="userSpaceOnUse"><stop offset="0" stop-color="#315676"/><stop offset="1" stop-color="#e1b9e0"/></linearGradient><linearGradient id="linear-gradient-2" x1="73.23" y1="308.27" x2="299.71" y2="308.27" gradientUnits="userSpaceOnUse"><stop offset="0" stop-color="#16243f"/><stop offset="1" stop-color="#6878b1"/></linearGradient><linearGradient id="linear-gradient-3" x1="73.92" y1="213.74" x2="144.87" y2="76.5" xlink:href="#linear-gradient"/></defs><title>Artboards_Diversity_Avatars_by_Netguru</title><path class="cls-1" d="M276.33,133.92c-.28,6.74-9.1,12.18-10.63,18.49-1.57,6.51,3.74,15.38,1,21.31s-13,7.69-16.93,13-2.4,15.59-7.26,20.06-14.94,2.09-20.59,5.54-8.12,13.49-14.37,15.77-14.54-3.79-21.15-2.77c-6.42,1-12.58,9.32-19.32,9s-12.18-9.1-18.49-10.63c-6.5-1.58-15.38,3.74-21.31,1s-7.68-13-13-16.92-15.59-2.4-20.06-7.26-2.1-14.94-5.55-20.6S75.2,171.8,72.91,165.56s3.8-14.54,2.77-21.15c-1-6.42-9.32-12.59-9-19.32s9.11-12.18,10.64-18.49c1.57-6.5-3.74-15.38-1-21.31s13-7.68,16.92-13,2.41-15.59,7.27-20,14.94-2.1,20.59-5.55,8.12-13.48,14.37-15.77S150,34.72,156.59,33.7c6.41-1,12.58-9.32,19.31-9s12.18,9.11,18.5,10.63c6.5,1.58,15.37-3.74,21.3-1s7.69,13,13,16.92,15.59,2.4,20.06,7.26,2.1,14.95,5.55,20.6,13.48,8.12,15.77,14.36-3.8,14.54-2.78,21.15C268.28,121,276.62,127.19,276.33,133.92Z"/><path class="cls-2" d="M299.71,303.37a184.56,184.56,0,0,1-226.48-1l48.66-22.81a47.68,47.68,0,0,0,4.35-2.34l1.12-.7c.4-.25.79-.51,1.18-.78a46.54,46.54,0,0,0,14.67-16.47c4-7.55,5.32-15.89,5.38-24.39,0-5.72-.31-11.44-.37-17.17q-.06-4.75-.1-9.51l2,1,5.2,2.69,30.29,5.15,31.12,5.3.94,32,.47,15.87,11.47,4.67,9,3.64Z"/><path class="cls-3" d="M217.65,254.32A60.08,60.08,0,0,1,187.58,252c-21.58-7.25-36.11-24.74-37.48-42.76l5.2,2.69,30.29,5.15,31.12,5.3Z"/><path class="cls-4" d="M299.71,303.37a184.56,184.56,0,0,1-226.48-1l48.66-22.81a47.68,47.68,0,0,0,4.35-2.34c23.68,17.41,56.63,28.75,85.06,16,8.06-3.62,15.33-10.05,18.29-18.31l9,3.64Z"/><circle class="cls-2" cx="125.61" cy="174.64" r="17"/><circle class="cls-3" cx="131.69" cy="172.9" r="17"/><path class="cls-2" d="M209.28,242.38c-21-.89-71.22-19.8-81.25-60.94a98.19,98.19,0,0,1-2.8-26.21c0-1.73.16-3.44.3-5.14,2.47-28.26,17.95-51.33,41.12-57,1.34-.32,2.68-.59,4-.78A47.89,47.89,0,0,1,194.62,95a66.86,66.86,0,0,1,25.59,17.76,83.83,83.83,0,0,1,8.09,10.36,96.3,96.3,0,0,1,13.27,30.64C251.59,194.93,224.6,243,209.28,242.38Z"/><path class="cls-5" d="M176.54,156.08c6.09.31,5.7,9.62-.4,9.42h-.27c-6.1-.31-5.7-9.63.39-9.42h.28Z"/><path class="cls-5" d="M226.92,154.36c5.65.29,5.29,8.93-.37,8.74h-.26c-5.65-.28-5.29-8.93.37-8.74h.26Z"/><path class="cls-6" d="M208.64,154.07a57,57,0,0,0,1.52,11.56c.9,3.35,2.29,5.47,4.17,8.4a18.86,18.86,0,0,1,1.66,3.06c2.39,6-1.39,12.48-8.07,12.2l-4.12-.18"/><path class="cls-6" d="M179.4,199.27a29.8,29.8,0,0,0,18.12,10.46"/><path class="cls-6" d="M189.51,180.84a3.4,3.4,0,0,0,1.84,6.47"/><path class="cls-6" d="M213.89,142a31.12,31.12,0,0,1,22.92-1.2"/><path class="cls-6" d="M161.34,142.68a36.69,36.69,0,0,1,31.24.34"/><path class="cls-7" d="M222,113.51c.49,1.18.39,2.21-.45,3.82a24.48,24.48,0,0,1-3.72,5.25,24.34,24.34,0,0,1-24.28,7.15A22.06,22.06,0,0,1,187,127c-1.5-1-3.24-3.36-5.28-2.56a4.08,4.08,0,0,0-1.85,2c-3.27,5.78-5.28,11.85-11.74,14.89a19.72,19.72,0,0,1-11.92,1.16c-3.42-.61-4.48-3.32-7.41-4.15-1.65-.47-3.3.8-4.3,2.2-1.89,2.65-2.05,6-3.61,8.81-2,3.7-6.07,7-10.41,7.48a5.19,5.19,0,0,1-4.62-1.73c-2.21-2.86-.9-8-.48-11.31,1.6-12.38,5.86-24.64,13.39-34.69,6.79-9,16.28-16,27.34-18.65,19.15-4.67,42.86,6.5,54.75,21.16A7,7,0,0,1,222,113.51Z"/><path class="cls-5" d="M219.7,110.17h0c-18.41-4.94-40.11-4-54.84,4.27-25.6,14.34-31.61,25.72-39.75,37.65l-.35.53c0-.69,0-1.39.09-2.08,1.58-29.65,17.33-54.19,41.33-60,18.91-4.61,38.63,3.45,53.49,19.6Z"/></svg>