<?xml version="1.0" encoding="utf-8"?><!-- Uploaded to: SVG Repo, www.svgrepo.com, Generator: SVG Repo Mixer Tools -->
<svg width="800px" height="800px" viewBox="0 0 366.34 366.34" id="Layer_1" data-name="Layer 1" xmlns="http://www.w3.org/2000/svg" xmlns:xlink="http://www.w3.org/1999/xlink"><defs><style>.cls-1{fill:url(#linear-gradient);}.cls-2{fill:url(#linear-gradient-2);}.cls-3{fill:#845161;}.cls-4{fill:#69303a;}.cls-5,.cls-6{fill:none;stroke-miterlimit:10;}.cls-5{stroke:#00214e;}.cls-6{stroke:#ffffff;}.cls-7{fill:url(#linear-gradient-3);}.cls-8{fill:url(#linear-gradient-4);}.cls-9{fill:#ff2609;}.cls-10{fill:#00214e;}</style><linearGradient id="linear-gradient" x1="-433.04" y1="-50.16" x2="-338.04" y2="-50.16" gradientTransform="translate(509.84 206.47) rotate(13.12)" gradientUnits="userSpaceOnUse"><stop offset="0" stop-color="#16243f"/><stop offset="1" stop-color="#6878b1"/></linearGradient><linearGradient id="linear-gradient-2" x1="98.14" y1="150.85" x2="259.22" y2="150.85" gradientTransform="matrix(1, 0, 0, 1, 0, 0)" xlink:href="#linear-gradient"/><linearGradient id="linear-gradient-3" x1="109.43" y1="98.84" x2="208.43" y2="140.11" gradientTransform="matrix(1, 0, 0, 1, 0, 0)" xlink:href="#linear-gradient"/><linearGradient id="linear-gradient-4" x1="69.93" y1="294.27" x2="296.41" y2="294.27" gradientTransform="matrix(1, 0, 0, 1, 0, 0)" xlink:href="#linear-gradient"/></defs><title>Artboards_Diversity_Avatars_by_Netguru</title><path class="cls-1" d="M192,80.87c-1.37,5.87-9.2,8.78-12.51,13.39-3.43,4.79-3.74,13.1-8.66,16.16s-12.51-.34-18.32.62c-5.61.93-11.67,6.67-17.55,5.3s-8.78-9.2-13.39-12.51c-4.79-3.43-13.1-3.74-16.16-8.66s.34-12.52-.62-18.33c-.93-5.6-6.67-11.67-5.3-17.54s9.2-8.78,12.51-13.39c3.43-4.79,3.74-13.1,8.66-16.16s12.51.34,18.32-.62c5.61-.93,11.67-6.68,17.55-5.31s8.78,9.21,13.39,12.52c4.79,3.43,13.1,3.74,16.16,8.66s-.34,12.51.62,18.32C187.64,68.93,193.38,75,192,80.87Z"/><path class="cls-2" d="M209.68,215.47q-.72.6-1.41,1.29c-3.49,3.52-5,8.34-9.26,11.43-15.53,11.25-40.16,1.82-54.49-7.24-10.84-6.85-19-17.19-26-27.94-8.6-13.27-15.79-27.7-18.9-43.21-14.27-71,76.78-101.9,127.87-67.05,12.92,8.81,23,22.71,28.46,37.27,6.89,18.33,1.63,29.36-4.77,46.77a129.8,129.8,0,0,1-7.63,17.92A66.37,66.37,0,0,1,220.14,209C216.44,211.28,212.87,212.78,209.68,215.47Z"/><path class="cls-3" d="M296.41,304.41a184.56,184.56,0,0,1-226.48-1l48.66-22.81a47.68,47.68,0,0,0,4.35-2.34l1.12-.7c.4-.25.79-.51,1.18-.78a46.54,46.54,0,0,0,14.67-16.47c4-7.55,5.32-15.89,5.38-24.39,0-5.72-.31-11.44-.37-17.17q-.06-4.76-.1-9.51l2,1,5.2,2.69,30.29,5.15,31.12,5.3.94,32,.47,15.87,11.47,4.67,9,3.64Z"/><path class="cls-4" d="M214.35,255.36A60.08,60.08,0,0,1,184.28,253c-21.58-7.25-36.11-24.74-37.48-42.76l5.2,2.69,30.29,5.15,31.12,5.3Z"/><circle class="cls-3" cx="115.82" cy="177.23" r="17"/><circle class="cls-4" cx="121.82" cy="175.23" r="17"/><path class="cls-3" d="M238.73,150.45c12.46,43.14-11.79,93.25-30.26,95.3-44.63,5-76.34-17.79-88.79-60.93s4.1-85.82,37-95.31S226.28,107.3,238.73,150.45Z"/><path class="cls-5" d="M173.9,203.21a29.82,29.82,0,0,0,18.54,9.7"/><path class="cls-5" d="M212.26,163.21a9.07,9.07,0,0,0,3.3,6.78,27.18,27.18,0,0,0,6.68,3.95"/><path class="cls-5" d="M200,161.06c-.06.24,5.54,15.88,8.93,25.32a5.25,5.25,0,0,1-5,7h-3.63"/><ellipse class="cls-6" cx="170.14" cy="165.32" rx="19" ry="11.84"/><ellipse class="cls-6" cx="224.94" cy="162.77" rx="19" ry="11.84"/><line class="cls-6" x1="189.14" y1="165.32" x2="206.08" y2="164.03"/><path class="cls-7" d="M198,101.79c-2.4,4.75-7.4,8.86-10.37,13.71-3.89,6.36-6.83,13.26-10.13,19.92-2.45,5-5.18,9.94-9.33,13.61s-10,5.85-15.31,4.32c-3.64-1-6.6-3.65-9.85-5.59s-7.43-3.21-10.77-1.42c-4.92,2.64-4.85,9.82-8.37,14.15-8.08,9.93-22.88-3.45-24.67-12.13-2.61-12.67,7.79-23.26,15.35-32,6.3-7.29,14.83-18.43,24.73-20.87.17,0,58-23,58-23,.52,7.73,3.64,19.16,1.77,26.56A12.45,12.45,0,0,1,198,101.79Z"/><path class="cls-5" d="M187.74,187.11a3.15,3.15,0,0,0,2.31,5.78"/><path class="cls-5" d="M209.86,145.17A31.13,31.13,0,0,1,232.71,143"/><path class="cls-5" d="M154.75,148.87a36.75,36.75,0,0,1,31.23-1"/><path class="cls-8" d="M296.41,304.41a184.56,184.56,0,0,1-226.48-1l48.66-22.81a46.83,46.83,0,0,0,6.65-3.82c.64-.44,1.28-.9,1.89-1.38a46.35,46.35,0,0,0,12.78-15.09,44.69,44.69,0,0,0,4.64-14.48,28.66,28.66,0,0,0,2.22,1.94A95.14,95.14,0,0,0,166.59,259a99,99,0,0,0,10.46,3.69,93.52,93.52,0,0,0,33,3.49c1.54-.12,3.09-.27,4.63-.38l.15,5.08v.33l12.1,4.92Z"/><path class="cls-5" d="M168.4,175.4a10.36,10.36,0,0,0,11-10"/><path class="cls-5" d="M161.34,205.47a25.35,25.35,0,0,1,4.57-5.64,24.71,24.71,0,0,1,13.22-6.26"/><line class="cls-5" x1="187.06" y1="125.99" x2="210.73" y2="125.99"/><line class="cls-5" x1="181.29" y1="133.81" x2="210.73" y2="133.81"/><circle class="cls-9" cx="197.05" cy="145.9" r="4.02"/><path class="cls-10" d="M169.71,160.54c6.1-.07,6.28,9.25.18,9.42h-.27c-6.1.07-6.28-9.25-.18-9.42h.27Z"/><path class="cls-10" d="M220,158.9c5.66-.07,5.83,8.59.17,8.74h-.25c-5.67.06-5.84-8.59-.17-8.75H220Z"/></svg>