<?xml version="1.0" encoding="utf-8"?>
<svg data-name="Layer 1" width="924.76626" height="641.9894" viewBox="175.5 82.864 749.266 559.125" xmlns="http://www.w3.org/2000/svg">
  <path d="M 278.291 567.429 C 282.032 597.507 300.672 627.142 329.357 636.93 C 318.045 605.972 318.047 572.01 329.364 541.053 C 333.772 529.13 339.916 516.328 335.77 504.312 C 333.19 496.835 326.879 491.114 319.825 487.537 C 312.77 483.96 304.941 482.256 297.21 480.585 L 295.689 479.326 C 283.416 507.04 274.551 537.351 278.291 567.429 Z" fill="#f0f0f0" style="transform-box: fill-box; transform-origin: 50% 50%;" transform="matrix(-1, 0, 0, -1, -0.000069, 0.000049)"/>
  <path d="M 319.382 634.885 C 302.677 616.167 292.295 592.663 289.709 567.709 C 289.057 562.347 289.255 556.915 290.294 551.615 C 291.473 546.484 294.005 541.762 297.626 537.941 C 300.931 534.31 304.732 530.979 307.096 526.607 C 309.477 522.046 309.798 516.684 307.978 511.871 C 305.891 505.883 301.776 501.003 297.586 496.37 C 292.934 491.226 288.021 485.956 286.044 479.137 C 285.804 478.31 284.536 478.73 284.775 479.556 C 288.215 491.421 299.733 498.16 305.226 508.847 C 307.789 513.833 308.865 519.623 306.462 524.887 C 304.361 529.49 300.444 532.928 297.066 536.576 C 293.479 540.252 290.847 544.751 289.399 549.679 C 288.093 554.909 287.687 560.324 288.198 565.691 C 289.155 577.792 292.009 589.667 296.655 600.882 C 301.887 613.71 309.274 625.549 318.498 635.887 C 319.069 636.526 319.949 635.52 319.382 634.885 L 319.382 634.885 Z" fill="#fff" style="transform-box: fill-box; transform-origin: 50% 50%;" transform="matrix(-1, 0, 0, -1, -0.000023, 0.000014)"/>
  <path d="M 327.051 519.638 C 318.526 521.708 312.755 529.649 313.42 538.397 C 313.488 539.254 314.822 539.189 314.754 538.331 C 314.12 530.183 319.517 522.788 327.47 520.907 C 328.306 520.708 327.883 519.44 327.051 519.638 L 327.051 519.638 Z" fill="#fff" style="transform-box: fill-box; transform-origin: 50% 50%;" transform="matrix(-1, 0, 0, -1, -0.000106, -0.00005)"/>
  <path d="M 292.226 556.181 C 299.682 560.632 305.185 567.73 307.64 576.06 C 307.882 576.885 309.151 576.465 308.908 575.641 C 306.338 566.978 300.596 559.603 292.827 554.988 C 292.086 554.548 291.49 555.744 292.226 556.181 L 292.226 556.181 Z" fill="#fff" style="transform-box: fill-box; transform-origin: 50% 50%;" transform="matrix(-1, 0, 0, -1, -0.000045, 0.000021)"/>
  <path d="M 291.517 504.072 C 294.597 502.609 298.207 502.792 301.123 504.56 C 301.858 505.009 302.454 503.813 301.724 503.367 C 298.494 501.429 294.514 501.218 291.098 502.804 C 290.756 502.929 290.57 503.298 290.673 503.648 C 290.79 503.997 291.167 504.186 291.517 504.072 L 291.517 504.072 Z" fill="#fff" style="transform-box: fill-box; transform-origin: 50% 50%;" transform="matrix(-1, 0, 0, -1, 0.000013, -0.00008)"/>
  <path d="M 319.539 635.49 C 319.088 635.197 318.637 634.904 318.186 634.6 C 312.145 630.627 306.436 626.17 301.117 621.273 C 300.7 620.901 300.283 620.518 299.877 620.135 C 287.187 608.2 276.823 594.014 269.312 578.296 C 266.329 572.039 263.827 565.564 261.826 558.927 C 259.064 549.761 256.798 539.603 251.33 532.105 C 250.768 531.317 250.158 530.564 249.503 529.851 L 200.088 529.851 C 199.976 529.907 199.863 529.952 199.75 530.008 L 197.777 529.918 C 197.856 530.268 197.946 530.628 198.025 530.978 C 198.071 531.181 198.127 531.384 198.172 531.587 C 198.205 531.722 198.24 531.857 198.262 531.981 C 198.273 532.026 198.285 532.072 198.296 532.105 C 198.318 532.229 198.352 532.342 198.375 532.455 C 198.871 534.473 199.382 536.491 199.908 538.509 C 199.908 538.52 199.908 538.52 199.919 538.532 C 203.967 553.899 209.333 569.062 216.831 582.93 C 217.056 583.347 217.281 583.775 217.53 584.192 C 220.944 590.424 224.861 596.367 229.244 601.961 C 231.653 605.016 234.216 607.947 236.922 610.743 C 243.927 617.955 252.023 624.019 260.913 628.714 C 278.636 638.072 299.155 641.657 318.096 635.941 C 318.581 635.795 319.055 635.648 319.539 635.49 Z" fill="#f0f0f0" style="transform-box: fill-box; transform-origin: 50% 50%;" transform="matrix(-1, 0, 0, -1, 0.000066, 0.000104)"/>
  <path d="M 318.73 636.748 C 294.123 631.861 271.681 619.344 254.593 600.977 C 250.844 597.088 247.732 592.632 245.37 587.774 C 243.223 582.968 242.401 577.674 242.992 572.442 C 243.444 567.553 244.474 562.605 243.73 557.691 C 242.884 552.615 239.913 548.142 235.562 545.394 C 230.29 541.87 224.066 540.451 217.931 539.274 C 211.12 537.968 204.024 536.718 198.34 532.464 C 197.651 531.948 196.891 533.047 197.579 533.562 C 207.47 540.964 220.724 539.411 231.543 544.637 C 236.592 547.075 240.937 551.05 242.187 556.699 C 243.281 561.64 242.224 566.743 241.723 571.689 C 241.072 576.784 241.679 581.961 243.49 586.767 C 245.596 591.73 248.532 596.298 252.171 600.276 C 260.221 609.361 269.65 617.125 280.111 623.282 C 292.012 630.375 305.039 635.379 318.627 638.08 C 319.468 638.247 319.565 636.913 318.73 636.748 L 318.73 636.748 Z" fill="#fff" style="transform-box: fill-box; transform-origin: 50% 50%;" transform="matrix(-1, 0, 0, -1, 0.000042, 0.000047)"/>
  <path d="M 259.324 540.049 C 253.763 546.835 253.937 556.65 259.735 563.234 C 260.305 563.877 261.331 563.022 260.76 562.378 C 255.348 556.254 255.205 547.1 260.422 540.81 C 260.97 540.148 259.869 539.391 259.324 540.049 L 259.324 540.049 Z" fill="#fff" style="transform-box: fill-box; transform-origin: 50% 50%;" transform="matrix(-1, 0, 0, -1, -0.000026, 0.00001)"/>
  <path d="M 249.646 590.339 C 258.279 589.405 266.947 591.759 273.921 596.931 C 274.612 597.444 275.372 596.345 274.682 595.833 C 267.414 590.464 258.389 588.033 249.408 589.025 C 248.552 589.12 248.795 590.434 249.646 590.339 L 249.646 590.339 Z" fill="#fff" style="transform-box: fill-box; transform-origin: 50% 50%;" transform="matrix(-1, 0, 0, -1, 0.000032, -0.00001)"/>
  <path d="M 217.089 548.232 C 218.667 545.208 221.66 543.181 225.053 542.837 C 225.91 542.753 225.665 541.439 224.814 541.523 C 221.069 541.92 217.764 544.148 215.991 547.471 C 215.794 547.777 215.867 548.184 216.16 548.4 C 216.464 548.608 216.878 548.533 217.089 548.232 L 217.089 548.232 Z" fill="#fff" style="transform-box: fill-box; transform-origin: 50% 50%;" transform="matrix(-1, 0, 0, -1, 0.000034, -0.000027)"/>
  <path d="M 505.775 350.221 C 510.129 354.719 509.358 362.06 504.165 365.556 L 513.3 400.103 L 495.699 394.183 L 489.723 362.284 C 485.813 355.554 490.654 347.116 498.437 347.095 C 501.208 347.087 503.861 348.217 505.775 350.221 L 505.775 350.221 Z" style="fill: rgb(255, 206, 213); transform-box: fill-box; transform-origin: 50% 50%;" transform="matrix(-1, 0, 0, -1, -0.000026, -0.000074)"/>
  <polygon points="432.537 581.74 420.277 581.741 414.445 629.029 432.539 629.028 432.537 581.74" style="fill: rgb(255, 206, 213); transform-box: fill-box; transform-origin: 50% 50%;" transform="matrix(-1, 0, 0, -1, 0.000061, -0.000099)"/>
  <path d="M 450.85 625.025 L 411.32 625.026 L 411.32 625.526 C 411.32 634.024 418.209 640.912 426.706 640.912 L 426.707 640.912 L 450.851 640.911 L 450.85 625.025 Z" fill="#2f2e41" style="transform-box: fill-box; transform-origin: 50% 50%;" transform="matrix(-1, 0, 0, -1, -0.000049, -0.000106)"/>
  <polygon points="490.537 581.74 478.277 581.741 472.445 629.029 490.539 629.028 490.537 581.74" style="fill: rgb(255, 206, 213); transform-box: fill-box; transform-origin: 50% 50%;" transform="matrix(-1, 0, 0, -1, -0.000071, -0.000099)"/>
  <path d="M 508.851 625.025 L 469.32 625.026 L 469.32 625.526 C 469.32 634.024 476.209 640.912 484.706 640.912 L 484.707 640.912 L 508.851 640.911 L 508.851 625.025 Z" fill="#2f2e41" style="transform-box: fill-box; transform-origin: 50% 50%;" transform="matrix(-1, 0, 0, -1, 0.000039, -0.000106)"/>
  <path id="b1d8f474-012b-4d97-a964-9f33bafc8058-365" data-name="Path 1095" d="M 414.099 614.936 L 409.393 613.636 C 409.393 613.636 397.099 533.936 396.099 491.936 C 395.099 449.936 399.099 343.936 399.099 343.936 L 425.099 343.936 L 446.099 523.936 L 456.099 343.936 L 484.099 343.936 C 484.099 343.936 504.099 579.936 495.099 598.936 C 486.099 617.936 414.099 614.936 414.099 614.936 Z" fill="#2f2e41" style="transform-box: fill-box; transform-origin: 50% 50%;" transform="matrix(-1, 0, 0, -1, -0.000036, 0.000019)"/>
  <circle id="e76160c9-f3a1-43ce-a248-d388186e85bb" data-name="Ellipse 219" cx="-441.758" cy="179.984" r="23.493" style="fill: rgb(255, 206, 213);" transform="matrix(-1, 0, 0, 1, 0, 0)"/>
  <path id="bb67ace3-6b73-4a38-bac1-9d795c287a43-366" data-name="Path 1099" d="M 493.266 344.279 L 456.802 368.109 L 419.016 366.621 L 382.266 346.279 L 396.266 268.279 L 390.266 223.279 C 390.266 223.279 444.266 229.279 456.266 220.279 C 463.274 214.939 471.539 211.495 480.266 210.279 L 478.266 287.279 L 493.266 344.279 Z" style="fill: rgb(255, 136, 0); transform-box: fill-box; transform-origin: 50% 50%;" transform="matrix(-1, 0, 0, -1, -0.000006, 0.000049)"/>
  <path id="f7a1be30-9471-4724-82e7-c8ff3c288394-367" data-name="Path 1101" d="M 504.266 380.325 L 500.488 381.109 L 497.266 379.325 C 497.266 379.325 488.266 367.325 488.266 356.325 C 488.266 345.325 477.266 239.325 477.266 239.325 L 497.266 230.325 L 513.266 313.325 L 504.266 380.325 Z" style="fill: rgb(255, 136, 0); transform-box: fill-box; transform-origin: 50% 50%;" transform="matrix(-1, 0, 0, -1, -0.000035, 0.000032)"/>
  <path id="a2423779-f29b-465e-aa9d-0fc12224f03e-368" data-name="Path 1104" d="M 462.536 171.372 C 462.536 171.372 468.681 183.119 455.163 184.187 C 455.163 184.187 443.638 194.641 431.892 186.098 C 431.892 186.098 425.485 186.098 421.981 178.847 C 421.981 178.847 416.942 180.759 415.835 175.644 C 415.835 175.644 412.147 164.965 415.835 155.354 C 419.522 145.744 420.747 144.676 420.747 144.676 C 420.747 144.676 414.688 164.825 429.436 165.893 C 444.184 166.961 460.688 176.178 461.917 164.431 C 463.146 152.685 464.996 149.791 464.996 149.791 C 464.996 149.791 476.669 166.567 462.536 171.372 Z" fill="#2f2e41" style="transform-box: fill-box; transform-origin: 50% 50%;" transform="matrix(-1, 0, 0, -1, -0.000042, -0.000046)"/>
  <path id="e9616824-6bd8-4015-8eb7-3dcfe132b2c0-369" data-name="Subtraction 1" d="M 924.766 82.964 L 633.766 82.964 L 633.766 300.964 L 924.766 300.964 L 924.766 82.964 Z" style="fill: rgb(255, 255, 255); transform-box: fill-box; transform-origin: 50% 50%;" transform="matrix(-1, 0, 0, -1, 0.000106, 0.000025)"/>
  <path id="f4711ed8-dad6-4be5-800d-5829f7fb3f37-370" data-name="Subtraction 1" d="M 924.766 82.964 L 633.766 82.964 L 633.766 300.964 L 924.766 300.964 L 924.766 82.964 Z M 636.766 297.964 L 636.766 85.964 L 921.766 85.964 L 921.766 297.964 L 636.766 297.964 Z" style="fill: rgb(230, 230, 230); transform-box: fill-box; transform-origin: 50% 50%;" transform="matrix(-1, 0, 0, -1, 0.000106, 0.000025)"/>
  <g id="b3812a0d-69b2-4ac3-87c4-e066c2de2dfd" data-name="Group 41" transform="matrix(-1, 0, 0, 1, 1009.502197, 0)" style="">
    <circle id="fb0bff05-a63a-421c-8737-de050f830f30" data-name="Ellipse 220" cx="230.14466" cy="192.37305" r="55.409" style="fill: rgb(43, 142, 255);"/>
    <path id="f9b355f0-5797-4243-8ae5-6fe77774d21b-371" data-name="Path 1106" d="M390.77053,316.72537h-18.839v-18.839a4.433,4.433,0,0,0-4.433-4.433h0a4.433,4.433,0,0,0-4.433,4.433v18.839h-18.839a4.433,4.433,0,0,0-4.433,4.433v0h0a4.433,4.433,0,0,0,4.433,4.433h18.839v18.839a4.433,4.433,0,0,0,4.433,4.433h0a4.433,4.433,0,0,0,4.433-4.433V325.59137h18.839a4.433,4.433,0,0,0,4.433-4.433v0h0a4.433,4.433,0,0,0-4.433-4.433h0Z" transform="translate(-137.61687 -129.0053)" style="fill: rgb(255, 255, 255);"/>
  </g>
  <path d="M 377.502 559 L 268.763 559 L 268.763 641.054 L 377.502 641.054 L 377.502 559 Z" fill="#fff" style="transform-box: fill-box; transform-origin: 50% 50%;" transform="matrix(-1, 0, 0, -1, -0.000106, 0.000035)"/>
  <path d="M 377.502 559 L 268.763 559 L 268.763 641.054 L 377.502 641.054 L 377.502 559 Z M 270.763 561 L 375.502 561 L 375.502 639.054 L 270.763 639.054 L 270.763 561 Z" fill="#e6e6e6" style="transform-box: fill-box; transform-origin: 50% 50%;" transform="matrix(-1, 0, 0, -1, -0.000106, 0.000035)"/>
  <rect id="b0c2ce11-0b20-4ceb-9ae2-a734f04b6c4a" data-name="Rectangle 342" x="-363.16" y="581.348" width="80.054" height="5.337" fill="#e4e4e4" style="" transform="matrix(-1, 0, 0, 1, 0, 0)"/>
  <rect id="bf5a9fda-652f-454e-a316-4f0fe63005cd" data-name="Rectangle 343" x="-363.16" y="597.358" width="80.054" height="5.337" fill="#e4e4e4" style="" transform="matrix(-1, 0, 0, 1, 0, 0)"/>
  <rect id="ad5f030a-4549-4063-8a1c-b5f384f37057" data-name="Rectangle 344" x="-363.16" y="613.369" width="80.054" height="5.337" fill="#e4e4e4" style="" transform="matrix(-1, 0, 0, 1, 0, 0)"/>
  <path d="M 361.465 360.232 L 280.243 432.532 L 334.801 493.822 L 416.022 421.522 L 361.465 360.232 Z" fill="#fff" style="transform-box: fill-box; transform-origin: 50% 50%;" transform="matrix(-1, 0, 0, -1, -0.000003, 0.000005)"/>
  <path d="M 361.465 360.232 L 280.243 432.532 L 334.801 493.822 L 416.022 421.522 L 361.465 360.232 Z M 283.067 432.697 L 361.301 363.056 L 413.198 421.358 L 334.965 490.998 L 283.067 432.697 Z" fill="#e6e6e6" style="transform-box: fill-box; transform-origin: 50% 50%;" transform="matrix(-1, 0, 0, -1, -0.000003, 0.000005)"/>
  <rect id="b060c16b-2eb9-48d7-8f6b-fd5295a89bd0" data-name="Rectangle 342" x="-897.963" y="-504.046" width="5.337" height="80.054" transform="matrix(-0.664895, -0.746937, -0.746937, 0.664895, -604.38184, 54.863259)" fill="#e4e4e4" style=""/>
  <rect id="aedfd2a5-e201-47b6-a3ec-b56955ab97bd" data-name="Rectangle 343" x="-887.318" y="-516.005" width="5.337" height="80.054" transform="matrix(-0.664895, -0.746937, -0.746937, 0.664895, -595.591727, 82.724164)" fill="#e4e4e4" style=""/>
  <rect id="b4720297-2a1d-43a8-8ac0-2a4c1ee9f1d2" data-name="Rectangle 344" x="-876.672" y="-527.964" width="5.337" height="80.054" transform="matrix(-0.664895, -0.746937, -0.746937, 0.664895, -586.800243, 110.586923)" fill="#e4e4e4" style=""/>
  <path d="M 709.502 230 L 524.385 230 L 524.385 369.688 L 709.502 369.688 L 709.502 230 Z" fill="#fff" style="transform-box: fill-box; transform-origin: 50% 50%;" transform="matrix(-1, 0, 0, -1, -0.000027, -0.000011)"/>
  <path d="M 709.502 230 L 524.385 230 L 524.385 369.688 L 709.502 369.688 L 709.502 230 Z M 527.79 233.404 L 706.097 233.404 L 706.097 366.283 L 527.79 366.283 L 527.79 233.404 Z" fill="#e6e6e6" style="transform-box: fill-box; transform-origin: 50% 50%;" transform="matrix(-1, 0, 0, -1, -0.000027, -0.000011)"/>
  <rect id="ac8b6f6a-33b0-4e01-bc67-8452ca74a9e6" data-name="Rectangle 342" x="-685.086" y="268.045" width="136.283" height="9.086" style="fill: rgb(43, 142, 255);" transform="matrix(-1, 0, 0, 1, 0, 0)"/>
  <rect id="e4f43daa-ee47-4f01-aaaf-288902bf6f27" data-name="Rectangle 343" x="-685.086" y="295.3" width="136.283" height="9.086" style="fill: rgb(43, 142, 255);" transform="matrix(-1, 0, 0, 1, 0, 0)"/>
  <rect id="b40e1bee-dfb3-4798-af30-e469c9a00d65" data-name="Rectangle 344" x="-685.086" y="322.558" width="136.283" height="9.086" style="fill: rgb(43, 142, 255);" transform="matrix(-1, 0, 0, 1, 0, 0)"/>
  <path d="M 657.221 639.608 L 176.927 639.608 C 176.01 639.611 175.44 640.605 175.901 641.397 C 176.113 641.763 176.504 641.988 176.927 641.989 L 657.221 641.989 C 658.138 641.989 658.71 640.997 658.252 640.203 C 658.039 639.835 657.646 639.608 657.221 639.608 Z" fill="#cacaca" style="transform-box: fill-box; transform-origin: 50% 50%;" transform="matrix(-1, 0, 0, -1, -0.000071, 0.000019)"/>
  <path d="M 374.924 351.327 C 371.875 356.794 374.508 363.689 380.426 365.731 L 380.486 401.466 L 395.971 391.217 L 393.54 358.854 C 395.587 351.345 388.737 344.436 381.211 346.418 C 378.531 347.124 376.259 348.898 374.924 351.327 L 374.924 351.327 Z" style="fill: rgb(255, 206, 213); transform-box: fill-box; transform-origin: 50% 50%;" transform="matrix(-1, 0, 0, -1, -0.000052, 0.000035)"/>
  <path id="b2a3d507-71c0-44dd-96fb-9359ee9fed80-372" data-name="Path 1100" d="M 377.488 369.441 L 384.406 376.109 L 389.488 372.441 C 389.488 372.441 394.488 366.441 398.488 348.441 C 402.488 330.441 398.488 231.441 398.488 231.441 L 376.488 234.441 L 379.488 286.441 L 370.488 330.441 L 377.488 369.441 Z" style="fill: rgb(255, 136, 0); transform-box: fill-box; transform-origin: 50% 50%;" transform="matrix(-1, 0, 0, -1, 0.000068, 0.000068)"/>
</svg>