<?xml version="1.0" encoding="utf-8"?>
<svg data-name="Layer 1" width="951.23547" height="632.16225" viewBox="-0.067 -0.339 841.261 632.588" xmlns="http://www.w3.org/2000/svg" xmlns:bx="https://boxy-svg.com">
  <defs>
    <bx:grid x="429.202" y="-6.975" width="102.998" height="96.666"/>
  </defs>
  <path d="M 376.414 461.941 C 409.013 519.286 471.196 563.318 537.022 559.076 C 488.467 506.275 460.153 438 457.091 366.332 C 456.01 338.689 457.686 307.83 439.332 287.131 C 427.911 274.251 410.455 268.013 393.292 266.705 C 376.127 265.397 358.967 268.498 342.032 271.586 L 337.924 270.325 C 336.36 336.269 343.815 404.596 376.414 461.941 Z" fill="#f0f0f0" style="transform-box: fill-box; transform-origin: 50% 50%;" transform="matrix(-1, 0, 0, -1, -0.000009, 0.000001)"/>
  <path d="M 536.173 550.984 C 487.496 527.55 445.989 488.414 420.509 440.684 C 415.001 430.365 410.311 419.418 408.265 407.843 C 406.218 396.263 407.648 385.24 411.603 374.241 C 415.219 364.187 420.082 354.32 421.191 343.562 C 422.359 332.221 418.187 321.618 410.676 313.203 C 401.486 302.906 389.145 296.526 376.859 290.706 C 363.218 284.244 348.947 277.748 339.286 265.687 C 338.115 264.226 335.916 266.128 337.085 267.587 C 353.895 288.57 382.668 292.515 402.621 309.418 C 411.932 317.305 418.922 328.046 418.48 340.631 C 418.095 351.637 413.089 361.815 409.339 371.964 C 405.403 382.621 403.44 393.336 404.851 404.698 C 406.296 416.32 410.567 427.474 415.788 437.888 C 427.562 461.376 443.675 482.939 462.133 501.58 C 483.347 523.006 508.07 540.645 535.232 553.735 C 536.913 554.544 537.844 551.788 536.173 550.984 L 536.173 550.984 Z" fill="#fff" style="transform-box: fill-box; transform-origin: 50% 50%;" transform="matrix(-1, 0, 0, -1, 0.000066, -0.000046)"/>
  <path d="M 459.348 312.84 C 443.935 324.11 438.956 344.886 447.587 361.917 C 448.438 363.583 451.066 362.338 450.214 360.67 C 442.145 344.82 446.828 325.454 461.247 315.041 C 462.763 313.944 460.854 311.749 459.348 312.84 L 459.348 312.84 Z" fill="#fff" style="transform-box: fill-box; transform-origin: 50% 50%;" transform="matrix(-1, 0, 0, -1, -0.000029, -0.000024)"/>
  <path d="M 415.897 415.231 C 434.596 417.963 451.578 427.643 463.458 442.34 C 464.633 443.797 466.833 441.896 465.658 440.441 C 453.268 425.169 435.575 415.132 416.11 412.332 C 414.254 412.066 414.052 414.967 415.897 415.231 L 415.897 415.231 Z" fill="#fff" style="transform-box: fill-box; transform-origin: 50% 50%;" transform="matrix(-1, 0, 0, -1, -0.000064, 0.000034)"/>
  <path d="M 370.195 309.462 C 375.167 303.951 382.576 301.31 389.913 302.432 C 391.764 302.721 391.965 299.82 390.125 299.533 C 382.017 298.331 373.841 301.225 368.295 307.261 C 367.712 307.798 367.646 308.695 368.145 309.312 C 368.671 309.915 369.586 309.983 370.195 309.462 L 370.195 309.462 Z" fill="#fff" style="transform-box: fill-box; transform-origin: 50% 50%;" transform="matrix(-1, 0, 0, -1, 0.000002, 0.000005)"/>
  <path d="M 539.561 565.421 C 538.41 565.208 537.259 564.994 536.098 564.759 C 520.641 561.81 505.45 557.611 490.673 552.202 C 489.524 551.802 488.365 551.38 487.23 550.947 C 451.769 537.537 419.106 517.66 390.901 492.326 C 379.687 482.234 369.257 471.304 359.701 459.631 C 346.505 443.508 333.48 424.977 316.236 414.464 C 314.449 413.347 312.595 412.342 310.684 411.455 L 211.346 452.659 C 211.167 452.866 210.978 453.05 210.798 453.258 L 206.756 454.722 C 207.207 455.358 207.688 456.008 208.139 456.645 C 208.399 457.015 208.681 457.376 208.941 457.747 C 209.122 457.991 209.303 458.234 209.452 458.465 C 209.512 458.546 209.572 458.627 209.623 458.686 C 209.771 458.916 209.934 459.115 210.074 459.322 C 212.753 462.966 215.463 466.597 218.204 470.215 C 218.213 470.237 218.213 470.237 218.245 470.251 C 239.195 497.767 262.627 523.776 289.262 545.402 C 290.063 546.052 290.873 546.726 291.72 547.357 C 303.78 557.038 316.611 565.718 330.084 573.309 C 337.476 577.441 345.071 581.197 352.842 584.562 C 372.938 593.217 394.27 598.658 416.056 600.684 C 459.488 604.717 503.726 594.815 537.036 567.531 C 537.888 566.832 538.718 566.142 539.561 565.421 Z" fill="#f0f0f0" style="transform-box: fill-box; transform-origin: 50% 50%;" transform="matrix(-1, 0, 0, -1, -0.00001, -0.000015)"/>
  <path d="M 536.277 556.359 C 483.302 566.956 426.599 560.698 377.518 537.929 C 366.907 533.006 356.571 527.089 347.969 519.079 C 339.362 511.065 333.867 501.403 330.403 490.24 C 327.237 480.035 325.179 469.23 319.587 459.972 C 313.693 450.214 303.977 444.26 292.914 442.062 C 279.377 439.374 265.682 441.71 252.368 444.46 C 237.586 447.513 222.281 450.918 207.305 447.106 C 205.491 446.644 204.88 449.486 206.692 449.947 C 232.746 456.581 258.095 442.407 284.204 443.89 C 296.386 444.582 308.434 448.949 315.659 459.264 C 321.977 468.283 324.108 479.424 327.225 489.785 C 330.498 500.664 335.382 510.401 343.349 518.623 C 351.5 527.033 361.626 533.367 372.065 538.539 C 395.607 550.204 421.455 557.72 447.415 561.49 C 477.253 565.826 507.613 565.025 537.182 559.123 C 539.012 558.757 538.095 555.996 536.277 556.359 L 536.277 556.359 Z" fill="#fff" style="transform-box: fill-box; transform-origin: 50% 50%;" transform="matrix(-1, 0, 0, -1, -0.00004, -0.000072)"/>
  <path d="M 330.085 413.583 C 324.564 431.861 333.098 451.447 350.243 459.85 C 351.925 460.667 353.274 458.091 351.59 457.272 C 335.604 449.475 327.683 431.193 332.927 414.197 C 333.476 412.409 330.631 411.805 330.085 413.583 Z" fill="#fff" style="transform-box: fill-box; transform-origin: 50% 50%;" transform="matrix(-1, 0, 0, -1, 0.000011, -0.000001)"/>
  <path d="M 358.718 521.417 C 375.293 512.34 394.68 509.844 413.014 514.427 C 414.83 514.883 415.441 512.04 413.627 511.585 C 394.54 506.852 374.37 509.49 357.142 518.973 C 355.501 519.878 357.085 522.317 358.718 521.417 L 358.718 521.417 Z" fill="#fff" style="transform-box: fill-box; transform-origin: 50% 50%;" transform="matrix(-1, 0, 0, -1, 0.000066, -0.00003)"/>
  <path d="M 258.19 461.976 C 258.842 454.582 263.167 448.012 269.701 444.491 C 271.353 443.608 269.767 441.17 268.125 442.048 C 260.928 445.97 256.142 453.204 255.348 461.362 C 255.206 462.142 255.693 462.898 256.462 463.09 C 257.246 463.255 258.017 462.758 258.19 461.976 L 258.19 461.976 Z" fill="#fff" style="transform-box: fill-box; transform-origin: 50% 50%;" transform="matrix(-1, 0, 0, -1, -0.000049, -0.000066)"/>
  <path d="M 833.619 459.337 C 819.707 526.603 802.317 549.03 802.317 549.03 L 795.674 554.182 L 787.684 560.388 L 787.723 561.186 L 785.828 561.83 L 785.383 562.176 L 784.654 562.736 L 784.536 562.61 L 784.289 562.353 L 748.136 574.642 L 702.271 590.221 L 681.032 617.827 C 674.02 626.942 663.145 632.246 651.646 632.161 L 583.816 631.659 C 574.645 631.591 565.831 628.095 559.107 621.858 L 514.524 580.504 L 445.055 547.326 L 444.937 547.443 L 444.208 546.922 L 433.474 541.79 L 433.917 539.484 L 427.274 534.691 C 427.274 534.691 409.884 513.823 395.972 451.232 C 392.433 435.306 390.691 401.142 390.062 359.043 C 389.929 350.078 397.158 342.739 406.124 342.736 L 777.172 342.736 L 777.172 342.736 L 823.483 342.736 C 832.442 342.74 839.668 350.069 839.546 359.027 C 838.932 404.836 837.19 442.065 833.619 459.337 Z" fill="#3f3d56" style="transform-box: fill-box; transform-origin: 50% 50%;" transform="matrix(-1, 0, 0, -1, 0.000021, 0.000064)"/>
  <path d="M 54.512 150.546 C 12.611 150.546 -13.577 105.187 7.373 68.9 C 17.096 52.059 35.065 41.685 54.512 41.685 L 460.15 41.685 C 502.051 41.685 528.239 87.044 507.289 123.331 C 497.565 140.172 479.596 150.546 460.15 150.546 L 54.512 150.546 Z" fill="#e5e5e5" style="transform-box: fill-box; transform-origin: 50% 50%;" transform="matrix(-1, 0, 0, -1, -0.000002, -0.000011)"/>
  <path d="M 54.512 139.53 C 21.091 139.53 0.203 103.35 16.913 74.407 C 24.669 60.975 39.001 52.7 54.512 52.7 L 460.15 52.7 C 493.571 52.7 514.459 88.879 497.749 117.822 C 489.993 131.255 475.661 139.53 460.15 139.53 L 54.512 139.53 Z" fill="#fff" style="transform-box: fill-box; transform-origin: 50% 50%;" transform="matrix(-1, 0, 0, -1, -0.000002, -0.000023)"/>
  <circle id="e096411a-cdc3-4e6d-bbd4-4630e1fee17e" data-name="ab6171fa-7d69-4734-b81c-8dff60f9761b" cx="-601.224" cy="228.392" r="88.863" style="fill: rgb(133, 93, 99);" transform="matrix(-1, 0, 0, 1, 0, 0)"/>
  <path d="M 625.093 310.387 C 624.713 311.223 624.335 312.062 623.957 312.904 C 624.103 312.899 624.247 312.878 624.392 312.874 L 625.093 310.387 Z" fill="#2f2e41" style="transform-box: fill-box; transform-origin: 50% 50%;" transform="matrix(-1, 0, 0, -1, -0.000005, -0.000034)"/>
  <polygon points="712.204 632.162 737.128 496.555 752.083 495.253 712.204 632.162" opacity="0.2" style="transform-box: fill-box; transform-origin: 50% 50%;" transform="matrix(-1, 0, 0, -1, -0.000075, -0.000052)"/>
  <polygon points="517.419 632.162 492.495 486.426 477.54 485.026 517.419 632.162" opacity="0.2" style="transform-box: fill-box; transform-origin: 50% 50%;" transform="matrix(-1, 0, 0, -1, 0.000062, -0.000022)"/>
  <path d="M 715.772 0.734 C 710.993 -1.262 706.007 0.925 703.916 5.933 C 701.792 11.018 703.775 16.18 708.631 18.207 C 713.487 20.235 718.384 18.043 720.542 12.876 C 722.667 7.787 720.705 2.794 715.772 0.734 Z M 706.618 28.216 L 702.818 26.629 C 700.85 25.817 698.588 26.647 697.612 28.538 L 697.424 28.906 C 693.336 36.279 692.868 45.241 696.04 55.527 C 698.979 64.754 700.2 71.244 697.745 77.123 C 694.907 83.92 688.846 86.05 681.117 82.965 C 678.119 81.713 677.165 81.733 674.806 79.393 C 673.769 78.352 672.354 77.777 670.885 77.8 C 669.465 77.816 668.112 78.41 667.138 79.443 C 665.21 81.488 665.194 84.676 667.101 86.74 C 671.066 90.891 675.848 94.175 681.146 96.384 C 697.753 103.319 706.113 93.081 709.938 83.919 C 713.68 74.958 711.575 66.644 708.193 55.876 C 705.359 46.929 705.524 40.299 708.744 33.706 C 709.724 31.605 708.758 29.109 706.618 28.216 L 706.618 28.216 Z" fill="#f88e37" style="transform-box: fill-box; transform-origin: 50% 50%;" transform="matrix(-1, 0, 0, -1, -0.000064, -0.000012)"/>
  <path d="M 451.284 118.187 L 370.577 118.187 C 369.081 118.177 368.134 119.79 368.874 121.091 C 369.222 121.703 369.873 122.08 370.577 122.075 L 451.284 122.075 C 452.78 122.065 453.705 120.438 452.948 119.147 C 452.601 118.556 451.969 118.192 451.284 118.187 Z" fill="#f88e37" style="transform-box: fill-box; transform-origin: 50% 50%;" transform="matrix(-1, 0, 0, -1, -0.000053, -0.000016)"/>
  <path d="M 348.876 118.835 L 268.169 118.835 C 266.672 118.825 265.726 120.438 266.465 121.739 C 266.813 122.352 267.465 122.728 268.169 122.723 L 348.876 122.723 C 350.372 122.733 351.318 121.119 350.579 119.818 C 350.231 119.206 349.58 118.83 348.876 118.835 Z" fill="#f88e37" style="transform-box: fill-box; transform-origin: 50% 50%;" transform="matrix(-1, 0, 0, -1, -0.000005, 0.000014)"/>
  <path d="M 246.467 119.483 L 165.76 119.483 C 164.264 119.493 163.339 121.119 164.097 122.41 C 164.443 123.001 165.075 123.366 165.76 123.371 L 246.467 123.371 C 247.964 123.381 248.91 121.767 248.171 120.466 C 247.823 119.854 247.171 119.478 246.467 119.483 Z" fill="#f88e37" style="transform-box: fill-box; transform-origin: 50% 50%;" transform="matrix(-1, 0, 0, -1, 0.000015, 0.000002)"/>
  <path d="M 144.113 120.131 L 63.406 120.131 C 61.909 120.141 60.985 121.768 61.742 123.058 C 62.089 123.649 62.721 124.014 63.406 124.019 L 144.113 124.019 C 145.609 124.009 146.534 122.382 145.777 121.092 C 145.43 120.501 144.798 120.136 144.113 120.131 Z" fill="#f88e37" style="transform-box: fill-box; transform-origin: 50% 50%;" transform="matrix(-1, 0, 0, -1, 0.000012, 0.000006)"/>
  <circle cx="-411.081" cy="89.185" r="15" fill="#f88e37" style="" transform="matrix(-1, 0, 0, 1, 0, 0)"/>
  <circle cx="-308.081" cy="89.185" r="15" fill="#f88e37" style="" transform="matrix(-1, 0, 0, 1, 0, 0)"/>
  <circle cx="-205.081" cy="89.185" r="15" fill="#f88e37" style="" transform="matrix(-1, 0, 0, 1, 0, 0)"/>
  <circle cx="-102.081" cy="89.185" r="15" fill="#f88e37" style="" transform="matrix(-1, 0, 0, 1, 0, 0)"/>
  <g transform="matrix(2.352122, 0, 0, 2.352122, 490.284149, 745.097961)" style="">
    <path d="M 18.009 -241.524 C 15.663 -237.468 13.225 -233.305 9.515 -230.444 C 5.805 -227.583 0.465 -226.312 -3.621 -228.605 C -7.636 -230.859 -9.364 -236.092 -8.375 -240.588 C -7.386 -245.085 -4.133 -248.822 -0.304 -251.379 C 3.525 -253.936 7.929 -255.47 12.279 -256.978 C 18.927 -259.282 25.625 -261.599 32.59 -262.599 C 51.588 -265.328 71.769 -257.304 83.708 -242.276 C 89.345 -235.18 93.14 -226.831 96.88 -218.576 C 99.936 -211.828 103.061 -204.721 102.52 -197.333 C 102.124 -191.917 99.871 -185.983 102.787 -181.402 C 104.256 -179.093 106.762 -177.695 108.795 -175.864 C 110.829 -174.032 112.497 -171.194 111.493 -168.648 C 110.466 -166.043 107.229 -165.104 105.501 -162.901 C 102.54 -159.124 105.064 -153.597 108.048 -149.839 C 111.032 -146.08 114.695 -141.865 113.751 -137.159 C 113.07 -133.765 109.987 -131.237 106.652 -130.304 C 103.318 -129.371 99.763 -129.765 96.358 -130.394 C 79.719 -133.468 64.163 -142.134 52.793 -154.665 C 41.422 -167.197 34.304 -183.519 32.858 -200.379 C 32.221 -207.802 32.645 -215.34 31.183 -222.646 C 29.72 -229.951 25.932 -237.306 19.269 -240.639" fill="#2f2e41"/>
  </g>
</svg>