<?xml version="1.0" encoding="utf-8"?>
<svg data-name="Layer 1" viewBox="0 0 1200 51.676" preserveAspectRatio="none" xmlns="http://www.w3.org/2000/svg" xmlns:bx="https://boxy-svg.com">
  <defs>
    <bx:grid x="0" y="0" width="78.387" height="121.613"/>
  </defs>
  <path d="M 0 0 L 0 6.28 C 47.79 9.292 103.59 10.645 158 10.079 C 228.36 9.35 294.33 5.56 364.8 4.991 C 438.64 4.4 512.34 7.281 583 9.775 C 652.27 12.217 721.3 13.15 792.4 11.549 C 828.55 10.736 862.25 9.129 896.85 7.569 C 989.49 3.392 1113 -1.939 1200 7.118 L 1200 0 L 0 0 Z" opacity=".25" class="shape-fill" fill-opacity="1" style="fill: rgb(43, 142, 255);"/>
  <path d="M 0 0 L 0 2.145 C 13 5.009 27.64 7.714 47.69 9.775 C 99.41 15.096 165 15.06 224.58 12.425 C 255.73 11.048 284.67 8.887 314.25 7.025 C 355.17 4.448 398.98 0.784 445.08 0.286 C 481.34 -0.101 515.98 1.564 543.68 4.568 C 575.45 8.013 606 12.979 647.31 14.472 C 687.75 15.936 728.66 13.564 766.44 11.178 C 804.22 8.792 841.6 5.887 883.36 5.337 C 943.09 4.543 996.64 8.441 1052.26 10.607 C 1082.46 11.781 1111.26 11.443 1139.35 9.589 C 1161.78 8.112 1187.35 5.935 1200 2.909 L 1200 0 L 0 0 Z" opacity=".5" class="shape-fill" fill-opacity="1" style="fill: rgb(55, 120, 194);"/>
  <path d="M 0 0 L 0 0.764 C 149.93 8.004 314.09 9.676 475.83 5.776 C 518.83 4.739 560.06 3.046 603.44 2.186 C 662.44 1.014 715.92 3.846 769 6.988 C 827.93 10.476 886 12.921 951.2 12.21 C 1037.73 11.261 1123.66 6.009 1200 0.704 L 1200 0 L 0 0 Z" class="shape-fill" fill-opacity="1" style="fill: rgb(55, 120, 194);"/>
</svg>