<?xml version="1.0" encoding="utf-8"?>
<svg data-name="Layer 1" width="613.35286" height="700.56123" viewBox="0 0 613.35286 700.56123" xmlns="http://www.w3.org/2000/svg">
  <path d="M 307.441 680.697 L 306.66 698.273 C 306.579 698.316 306.497 698.359 306.416 698.401 C 298.04 702.797 288.44 694.84 291.115 685.768 C 293.633 677.231 295.324 668.028 299.931 660.556 C 305.446 651.765 314.66 645.958 324.97 644.777 L 335.612 638.262 C 338.567 654.736 334.16 671.679 323.552 684.625 C 320.576 688.185 317.163 691.356 313.395 694.063 C 310.846 687.343 307.441 680.697 307.441 680.697 Z" fill="#f2f2f2" style="transform-box: fill-box; transform-origin: 50% 50%;" transform="matrix(-1, 0, 0, -1, -0.000035, 0.000012)"/>
  <path d="M 386.297 35.591 C 365.809 56.721 336.119 68.838 304.84 68.838 L 303.634 68.835 C 283.031 68.827 262.796 74.292 244.998 84.67 L 243.146 85.749 L 244.638 87.286 C 252.713 95.641 259.456 105.188 264.631 115.592 C 257.191 108.656 247.055 105.382 236.963 106.654 C 226.301 107.925 216.807 114.007 211.193 123.161 C 200.261 140.899 187.229 166.067 187.229 185.241 C 187.264 218.01 201.078 249.254 225.293 271.332 C 240.627 285.158 249.353 304.856 249.292 325.503 L 249.286 326.956 C 249.284 340.397 250.927 353.787 254.177 366.829 L 254.507 368.146 L 255.862 368.098 C 264.6 367.801 273.342 368.534 281.909 370.281 C 273.873 371.266 266.013 373.357 258.549 376.494 L 257.092 377.083 L 257.586 378.577 C 291.688 399.691 368.664 388.757 413.343 490.981 C 449.572 573.87 577.399 417.4 577.399 326.956 C 577.399 317.727 568.266 305.532 575.103 299.432 C 649.013 233.494 598.016 191.153 581.938 148.547 C 578.123 138.438 586.395 127.341 586.395 116.404 C 586.395 114.549 586.347 112.633 586.254 110.711 L 586.112 107.756 L 583.647 109.396 C 578.772 112.59 574.253 116.296 570.167 120.452 C 578.752 100.696 577.923 78.114 567.911 59.041 C 560.166 44.422 552.672 33.956 545.639 27.936 C 498.87 -12.087 429.013 -8.731 386.297 35.591 L 386.297 35.591 Z" fill="#e6e6e6" style="transform-box: fill-box; transform-origin: 50% 50%;" transform="matrix(-1, 0, 0, -1, 0.0001, 0.000028)"/>
  <path d="M 385.614 269.78 C 386.655 269.782 387.537 270.548 387.684 271.579 C 387.773 272.204 396.484 335.032 388.66 418.535 C 381.435 495.651 358.231 606.726 288.721 697.949 C 287.746 699.233 285.747 698.979 285.124 697.493 C 284.834 696.801 284.936 696.008 285.391 695.412 C 354.3 604.976 377.317 494.716 384.492 418.144 C 392.27 335.128 383.627 272.789 383.539 272.169 C 383.36 270.907 384.34 269.78 385.614 269.78 L 385.614 269.78 Z" fill="#3f3d56" style="transform-box: fill-box; transform-origin: 50% 50%;" transform="matrix(-1, 0, 0, -1, -0.000016, -0.000041)"/>
  <path d="M 553.412 347.18 C 555.023 347.179 556.032 348.923 555.227 350.319 C 555.08 350.574 554.882 350.795 554.644 350.967 C 554.392 351.151 528.963 369.473 490.948 383.392 C 455.805 396.258 402.366 407.922 347.351 390.413 C 345.814 389.926 345.38 387.96 346.57 386.872 C 347.123 386.366 347.906 386.195 348.62 386.423 C 402.508 403.573 454.979 392.102 489.508 379.46 C 526.981 365.74 551.935 347.76 552.183 347.58 C 552.54 347.32 552.97 347.18 553.412 347.18 Z" fill="#3f3d56" style="transform-box: fill-box; transform-origin: 50% 50%;" transform="matrix(-1, 0, 0, -1, 0.000043, 0.000001)"/>
  <path d="M 315.3 362.424 C 315.417 364.031 313.75 365.163 312.3 364.461 C 312.035 364.333 311.801 364.15 311.611 363.926 C 311.41 363.687 291.304 339.644 274.683 302.73 C 259.32 268.605 243.838 216.144 257.34 160.011 C 257.717 158.444 259.648 157.873 260.817 158.983 C 261.359 159.498 261.585 160.263 261.41 160.99 C 248.186 215.973 263.406 267.482 278.502 301.011 C 294.885 337.398 314.615 360.993 314.812 361.227 C 315.097 361.564 315.268 361.983 315.3 362.424 Z" fill="#3f3d56" style="transform-box: fill-box; transform-origin: 50% 50%;" transform="matrix(-1, 0, 0, -1, 0.000066, -0.000018)"/>
  <path d="M 203.265 268.456 C 205.031 254.205 214.905 242.456 229.265 242.456 C 243.624 242.456 255.265 254.096 255.265 268.456 C 255.265 282.815 243.563 293.128 229.265 294.456 C 214.094 295.864 200.997 286.751 203.265 268.456 Z" fill="#2f2e41" style="transform-box: fill-box; transform-origin: 50% 50%;" transform="matrix(-1, 0, 0, -1, 0.000026, -0.000038)"/>
  <polygon points="202.357 649.137 212.258 649.138 216.968 687.328 202.355 687.327 202.357 649.137" fill="#ffb6b6" style="transform-box: fill-box; transform-origin: 50% 50%;" transform="matrix(-1, 0, 0, -1, -0.000027, -0.00006)"/>
  <path d="M 186.868 681.2 L 217.315 681.202 L 217.315 681.587 C 217.314 688.131 212.008 693.437 205.464 693.437 L 205.463 693.437 L 199.901 697.656 L 189.525 693.436 L 186.867 693.436 L 186.868 681.2 Z" fill="#2f2e41" style="transform-box: fill-box; transform-origin: 50% 50%;" transform="matrix(-1, 0, 0, -1, 0.000041, 0.000091)"/>
  <polygon points="241.357 649.137 251.258 649.138 255.968 687.328 241.355 687.327 241.357 649.137" fill="#ffb6b6" style="transform-box: fill-box; transform-origin: 50% 50%;" transform="matrix(-1, 0, 0, -1, -0.000041, -0.00006)"/>
  <path d="M 225.867 681.2 L 256.314 681.202 L 256.314 681.587 C 256.314 688.131 251.008 693.437 244.464 693.437 L 244.463 693.437 L 238.901 697.656 L 228.525 693.436 L 225.867 693.436 L 225.867 681.2 Z" fill="#2f2e41" style="transform-box: fill-box; transform-origin: 50% 50%;" transform="matrix(-1, 0, 0, -1, 0.000033, 0.000091)"/>
  <path d="M 256.676 667.31 L 263.676 643.31 L 255.43 541.665 C 255.43 541.665 259.676 535.31 256.676 535.31 C 253.676 535.31 249.83 533.901 252.253 530.105 C 254.676 526.31 246.393 512.685 246.393 512.685 L 234.676 440.31 L 219.747 440.531 C 219.747 440.531 212.157 444.759 216.417 449.035 C 220.676 453.31 223.676 453.31 219.676 457.31 C 215.676 461.31 215.676 460.105 215.676 463.208 C 215.676 466.31 211.669 504.224 221.173 518.767 L 218.309 578.062 L 211.564 519.901 L 197.676 442.31 L 183.295 442.429 C 183.295 442.429 176.652 448.831 176.664 453.571 C 176.676 458.31 180.768 458.704 177.722 461.507 C 174.676 464.31 174.676 507.373 183.676 531.31 C 183.676 531.31 188.767 544.684 183.665 549.267 C 178.562 553.85 183.659 559.093 183.659 559.093 C 183.659 559.093 191.74 562.015 183.651 570.432 C 175.562 578.85 183.608 638.381 183.608 638.381 C 183.608 638.381 174.765 662.412 183.721 671.861 C 192.676 681.31 256.676 667.31 256.676 667.31 Z" fill="#2f2e41" style="transform-box: fill-box; transform-origin: 50% 50%;" transform="matrix(-1, 0, 0, -1, -0.000039, 0.000011)"/>
  <path d="M 290.243 479.425 L 302.732 509.608 L 312.572 504.141 L 306.63 473.438 C 309.093 465.389 301.918 457.692 293.716 459.584 C 285.514 461.476 282.436 471.537 288.175 477.694 C 288.79 478.355 289.485 478.936 290.243 479.425 L 290.243 479.425 Z" fill="#ffb6b6" style="transform-box: fill-box; transform-origin: 50% 50%;" transform="matrix(-1, 0, 0, -1, 0.000022, -0.000037)"/>
  <path d="M 118.103 256.157 L 99.1 229.59 L 90.755 237.144 L 103.499 265.702 C 102.924 274.099 111.656 279.971 119.216 276.27 C 126.776 272.569 127.495 262.071 120.51 257.374 C 119.761 256.871 118.953 256.462 118.103 256.157 Z" fill="#ffb6b6" style="transform-box: fill-box; transform-origin: 50% 50%;" transform="matrix(-1, 0, 0, -1, 0.000034, -0.00004)"/>
  <path d="M 229.103 287.436 C 241.429 268.318 179.472 244.055 155.699 253.796 C 151.536 255.502 137.217 261.135 147.005 268.946 C 156.792 276.756 145.87 277.855 145.612 282.939 C 145.439 286.339 148.071 293.795 145.325 293.476 C 142.579 293.156 139.365 297.857 145.345 299.88 C 151.326 301.903 145.409 303.747 145.462 305.668 C 146.034 326.623 162.112 359.954 162.112 359.954 L 133.141 285.898 C 133.141 285.898 133.355 273.085 129.66 277.001 C 125.966 280.916 126.234 268.244 126.234 268.244 C 126.234 268.244 120.741 264.41 123.9 262.276 C 127.059 260.143 120.499 253.583 120.499 253.583 L 105.192 254.676 C 105.192 254.676 105.432 266.047 108.045 268.561 C 110.659 271.076 109.375 275.033 109.375 275.033 C 109.375 275.033 116.18 281.056 111.618 285.947 C 105.751 292.237 127.142 398.477 134.524 397.425 C 136.652 407.782 144.41 416.07 154.604 418.876 L 171.137 423.428 L 174.072 435.076 L 197.351 435.076 L 201.406 427.423 L 219.103 419.436 C 222.437 424.139 224.928 429.096 238.579 430.703 C 238.579 430.703 275.361 464.169 273.566 466.783 C 271.77 469.396 277.472 475.514 277.472 475.514 C 277.472 475.514 282.341 477.107 279.593 477.958 C 276.846 478.809 282.039 480.777 282.039 480.777 C 282.039 480.777 286.85 482.041 284.581 483.705 C 282.312 485.369 292.152 486.463 292.152 486.463 L 304.919 476.046 L 302.339 471.67 C 302.339 471.67 303.912 465.712 301.859 467.887 C 299.806 470.063 299.419 463.75 299.419 463.75 C 299.419 463.75 298.37 456.838 292.152 454.756 C 285.934 452.673 281.219 432.889 281.219 432.889 C 266.554 413.822 249.248 398.948 228.739 389.156 C 236.732 379.982 229.103 287.436 229.103 287.436 Z" style="transform-box: fill-box; transform-origin: 50% 50%; fill: rgb(248, 142, 55);" transform="matrix(-1, 0, 0, -1, 0.000027, -0.00003)"/>
  <circle cx="-226.134" cy="273.086" r="23.056" fill="#ffb6b6" style="" transform="matrix(-1, 0, 0, 1, 0, 0)"/>
  <path d="M 201.939 253.163 C 202.669 248.153 206.939 241.163 205.939 241.163 C 204.939 241.163 197.829 261.816 204.939 263.163 C 210.096 264.139 211.249 263.283 216.069 265.373 L 215.389 264.733 C 218.579 262.413 223.019 263.843 226.659 265.353 C 230.309 266.853 234.739 268.283 237.939 265.973 C 239.949 264.523 240.799 262.003 242.049 259.863 C 243.299 257.713 245.609 255.683 247.989 256.343 C 249.899 256.873 250.999 259.013 250.989 260.993 C 250.979 262.973 248.4 264.856 249.269 266.633 C 251.842 271.897 249.528 275.485 243.919 277.963 C 241.879 278.273 239.839 278.589 237.799 278.913 C 238.868 280.393 240.164 281.696 241.639 282.773 C 241.016 284.37 239.938 285.751 238.539 286.743 C 236.909 287.713 234.889 287.643 232.999 287.543 C 228.779 287.323 224.562 287.103 220.349 286.883 C 217.229 286.723 213.999 286.533 211.209 285.103 C 207.729 283.313 205.449 279.823 203.789 276.273 C 200.069 268.293 200.659 261.873 201.939 253.163 Z" fill="#2f2e41" style="transform-box: fill-box; transform-origin: 50% 50%;" transform="matrix(-1, 0, 0, -1, 0.00003, -0.000002)"/>
  <path d="M 119.159 698.18 L 345.909 697.872 C 346.826 697.872 347.399 698.865 346.941 699.658 C 346.728 700.027 346.335 700.254 345.909 700.254 L 119.159 700.561 C 118.243 700.561 117.67 699.569 118.128 698.775 C 118.341 698.407 118.734 698.18 119.159 698.18 Z" fill="#cacaca" style="transform-box: fill-box; transform-origin: 50% 50%;" transform="matrix(-1, 0, 0, -1, 0.000046, -0.000001)"/>
  <ellipse cx="471.988" cy="695.094" rx="5.257" ry="7.557" transform="matrix(-0.143981, -0.98958, -0.98958, 0.143981, 1191.21515, 962.364595)" fill="#e6e6e6" style=""/>
  <ellipse cx="521.16" cy="690.296" rx="5.257" ry="7.557" transform="matrix(-0.143981, -0.98958, -0.98958, 0.143981, 1144.375551, 1006.917143)" fill="#3f3d56" style=""/>
  <ellipse cx="458.524" cy="655.286" rx="5.257" ry="7.557" transform="matrix(-0.143981, -0.98958, -0.98958, 0.143981, 1163.348088, 914.96451)" style="fill: rgb(105, 210, 29);"/>
  <ellipse cx="441.313" cy="640.043" rx="4.776" ry="3.322" transform="matrix(-0.007562, -0.999971, -0.999971, 0.007562, 1109.443045, 976.784276)" fill="#e6e6e6" style=""/>
  <ellipse cx="434.067" cy="609.671" rx="4.776" ry="3.322" transform="matrix(-0.007562, -0.999971, -0.999971, 0.007562, 1086.263355, 939.396153)" fill="#3f3d56" style=""/>
  <ellipse cx="490.412" cy="663.123" rx="4.776" ry="3.322" transform="matrix(-0.007562, -0.999971, -0.999971, 0.007562, 1083.794365, 1048.787393)" fill="#e6e6e6" style=""/>
  <ellipse cx="466.651" cy="674.987" rx="4.776" ry="3.322" transform="matrix(-0.007562, -0.999971, -0.999971, 0.007562, 1119.240899, 1036.801429)" style="fill: rgb(105, 210, 29);"/>
  <ellipse cx="499.728" cy="696.915" rx="4.776" ry="3.322" transform="matrix(-0.007562, -0.999971, -0.999971, 0.007562, 1108.340389, 1091.639566)" fill="#3f3d56" style=""/>
  <ellipse cx="849.988" cy="541.094" rx="5.257" ry="7.557" transform="matrix(-0.143981, -0.98958, -0.98958, 0.143981, 715.244516, 1204.599061)" fill="#e6e6e6" style=""/>
  <ellipse cx="899.16" cy="536.296" rx="5.257" ry="7.557" transform="matrix(-0.143981, -0.98958, -0.98958, 0.143981, 668.404916, 1249.151547)" fill="#3f3d56" style=""/>
  <ellipse cx="836.524" cy="501.286" rx="5.257" ry="7.557" transform="matrix(-0.14398, -0.989581, -0.989581, 0.14398, 687.377673, 1157.199381)" style="fill: rgb(105, 210, 29);"/>
  <ellipse cx="819.313" cy="486.043" rx="4.776" ry="3.322" transform="matrix(-0.007562, -0.999971, -0.999971, 0.007562, 580.305704, 1201.937932)" fill="#e6e6e6" style=""/>
  <ellipse cx="812.067" cy="455.671" rx="4.776" ry="3.322" transform="matrix(-0.007562, -0.999971, -0.999971, 0.007562, 557.126014, 1164.54987)" fill="#3f3d56" style=""/>
  <ellipse cx="868.412" cy="509.123" rx="4.776" ry="3.322" transform="matrix(-0.007562, -0.999971, -0.999971, 0.007562, 554.657024, 1273.940988)" fill="#e6e6e6" style=""/>
  <ellipse cx="844.651" cy="520.987" rx="4.776" ry="3.322" transform="matrix(-0.007562, -0.999971, -0.999971, 0.007562, 590.103558, 1261.954902)" style="fill: rgb(105, 210, 29);"/>
  <ellipse cx="877.728" cy="542.915" rx="4.776" ry="3.322" transform="matrix(-0.007562, -0.999971, -0.999971, 0.007562, 579.203169, 1316.793161)" fill="#3f3d56" style=""/>
  <ellipse cx="666.988" cy="256.094" rx="5.257" ry="7.557" transform="matrix(-0.143981, -0.98958, -0.98958, 0.143981, 589.865512, 779.540356)" fill="#fff" style=""/>
  <ellipse cx="716.16" cy="251.296" rx="5.257" ry="7.557" transform="matrix(-0.143981, -0.98958, -0.98958, 0.143981, 543.026095, 824.092782)" fill="#3f3d56" style=""/>
  <ellipse cx="653.524" cy="216.286" rx="5.257" ry="7.557" transform="matrix(-0.143981, -0.98958, -0.98958, 0.143981, 561.998511, 732.14021)" style="fill: rgb(105, 210, 29);"/>
  <ellipse cx="636.313" cy="201.043" rx="4.776" ry="3.322" transform="matrix(-0.007562, -0.999971, -0.999971, 0.007562, 476.93007, 736.098196)" fill="#e6e6e6" style=""/>
  <ellipse cx="629.067" cy="170.671" rx="4.776" ry="3.322" transform="matrix(-0.007562, -0.999971, -0.999971, 0.007562, 453.75038, 698.710073)" fill="#3f3d56" style=""/>
  <ellipse cx="685.412" cy="224.123" rx="4.776" ry="3.322" transform="matrix(-0.007562, -0.999971, -0.999971, 0.007562, 451.281421, 808.101313)" fill="#e6e6e6" style=""/>
  <ellipse cx="661.651" cy="235.987" rx="4.776" ry="3.322" transform="matrix(-0.007562, -0.999971, -0.999971, 0.007562, 486.728016, 796.115288)" style="fill: rgb(105, 210, 29);"/>
  <ellipse cx="694.728" cy="257.915" rx="4.776" ry="3.322" transform="matrix(-0.007562, -0.999971, -0.999971, 0.007562, 475.827444, 850.953547)" fill="#3f3d56" style=""/>
</svg>