<?xml version="1.0" encoding="utf-8"?>
<svg data-name="Layer 1" width="663.67004" height="601.06409" viewBox="0 0 663.67004 601.06409" xmlns="http://www.w3.org/2000/svg">
  <path d="M 634.517 0 L 420.905 0 C 404.909 0.018 391.946 12.981 391.928 28.977 L 391.928 329.482 C 391.928 402.444 451.286 461.803 524.248 461.803 L 634.518 461.803 C 650.514 461.785 663.477 448.822 663.495 432.826 L 663.495 28.977 C 663.477 12.981 650.514 0.018 634.517 0 Z" fill="#f2f2f2" style="transform-box: fill-box; transform-origin: 50% 50%;" transform="matrix(-1, 0, 0, -1, -0.000039, -0.000027)"/>
  <path d="M 419.457 354.155 C 412.72 354.147 407.26 348.687 407.252 341.95 L 407.252 273.36 C 407.26 266.622 412.72 261.162 419.457 261.155 L 627.048 261.155 C 633.785 261.162 639.245 266.622 639.252 273.36 L 639.252 341.95 C 639.245 348.687 633.785 354.147 627.048 354.155 L 419.457 354.155 Z" fill="#fff" style="transform-box: fill-box; transform-origin: 50% 50%;" transform="matrix(-1, 0, 0, -1, -0.000089, -0.000001)"/>
  <path d="M 626.547 121.655 L 418.957 121.655 C 411.668 121.663 405.761 127.57 405.752 134.859 C 405.804 180.012 442.395 216.604 487.548 216.655 L 626.548 216.655 C 633.837 216.647 639.744 210.739 639.752 203.45 L 639.752 134.86 C 639.744 127.57 633.837 121.663 626.547 121.655 Z" fill="#fff" style="transform-box: fill-box; transform-origin: 50% 50%;" transform="matrix(-1, 0, 0, -1, 0.000025, 0.000027)"/>
  <path d="M 568.551 270.071 L 329.581 270.071 C 326.656 270.074 324.286 272.444 324.283 275.368 L 324.283 338.334 C 324.286 341.258 326.656 343.628 329.581 343.632 L 568.551 343.632 C 571.476 343.628 573.846 341.258 573.849 338.334 L 573.849 275.368 C 573.846 272.444 571.476 270.074 568.551 270.071 Z" fill="#fff" style="transform-box: fill-box; transform-origin: 50% 50%;" transform="matrix(-1, 0, 0, -1, -0.000017, 0.000034)"/>
  <path d="M 568.551 269.071 L 329.581 269.071 C 326.104 269.075 323.287 271.892 323.283 275.368 L 323.283 338.334 C 323.287 341.81 326.104 344.628 329.581 344.632 L 568.551 344.632 C 572.028 344.628 574.845 341.81 574.849 338.334 L 574.849 275.368 C 574.845 271.892 572.028 269.075 568.551 269.071 Z M 329.581 342.632 C 327.208 342.629 325.286 340.706 325.283 338.334 L 325.283 275.368 C 325.286 272.996 327.208 271.073 329.581 271.071 L 568.551 271.071 C 570.923 271.073 572.846 272.996 572.849 275.368 L 572.849 338.334 C 572.846 340.706 570.923 342.629 568.551 342.632 L 329.581 342.632 Z" fill="#ccc" style="transform-box: fill-box; transform-origin: 50% 50%;" transform="matrix(-1, 0, 0, -1, -0.000017, 0.000034)"/>
  <circle cx="-548.231" cy="291.319" r="8.597" style="fill: rgb(105, 210, 29);" transform="matrix(-1, 0, 0, 1, 0, 0)"/>
  <path d="M 554.268 307.863 L 343.865 307.863 C 341.895 307.863 340.663 309.996 341.648 311.703 C 342.106 312.495 342.951 312.983 343.865 312.983 L 554.268 312.983 C 556.238 312.983 557.47 310.849 556.485 309.143 C 556.027 308.351 555.182 307.863 554.268 307.863 Z" style="fill: rgb(105, 210, 29); transform-box: fill-box; transform-origin: 50% 50%;" transform="matrix(-1, 0, 0, -1, 0.000061, 0)"/>
  <path d="M 554.268 317.978 L 364.772 317.978 C 362.801 317.974 361.565 320.105 362.547 321.814 C 363.004 322.61 363.853 323.1 364.772 323.099 L 554.268 323.099 C 556.238 323.099 557.47 320.965 556.485 319.258 C 556.028 318.466 555.182 317.978 554.268 317.978 Z" style="fill: rgb(105, 210, 29); transform-box: fill-box; transform-origin: 50% 50%;" transform="matrix(-1, 0, 0, -1, 0.000013, -0.000071)"/>
  <path d="M 214.254 288.225 L 22.132 430.337 C 19.783 432.079 19.287 435.393 21.023 437.747 L 58.468 488.368 C 60.21 490.717 63.524 491.213 65.878 489.477 L 258 347.365 C 260.349 345.623 260.845 342.309 259.109 339.955 L 221.664 289.334 C 219.922 286.985 216.608 286.489 214.254 288.225 Z" fill="#fff" style="transform-box: fill-box; transform-origin: 50% 50%;" transform="matrix(-1, 0, 0, -1, 0.000066, 0.000037)"/>
  <path d="M 213.659 287.421 L 21.537 429.533 C 18.744 431.604 18.155 435.544 20.219 438.342 L 57.664 488.963 C 59.734 491.756 63.675 492.346 66.472 490.281 L 258.594 348.169 C 261.387 346.099 261.977 342.158 259.912 339.361 L 222.468 288.739 C 220.397 285.947 216.457 285.357 213.659 287.421 Z M 65.283 488.673 C 63.374 490.082 60.685 489.68 59.271 487.774 L 21.827 437.152 C 20.418 435.243 20.821 432.554 22.726 431.141 L 214.849 289.029 C 216.758 287.621 219.447 288.023 220.86 289.929 L 258.304 340.55 C 259.713 342.459 259.311 345.148 257.405 346.562 L 65.283 488.673 Z" fill="#ccc" style="transform-box: fill-box; transform-origin: 50% 50%;" transform="matrix(-1, 0, 0, -1, 0.000088, -0.000045)"/>
  <circle cx="-210.553" cy="317.392" r="8.597" fill="#f88e37" style="" transform="matrix(-1, 0, 0, 1, 0, 0)"/>
  <path d="M 225.239 327.108 L 56.084 452.23 C 54.5 453.402 54.778 455.85 56.585 456.636 C 57.424 457.001 58.393 456.891 59.129 456.347 L 228.283 331.224 C 229.868 330.052 229.589 327.604 227.782 326.818 C 226.944 326.453 225.974 326.564 225.239 327.108 Z" style="fill: rgb(105, 210, 29); transform-box: fill-box; transform-origin: 50% 50%;" transform="matrix(-1, 0, 0, -1, 0.000002, -0.000057)"/>
  <path d="M 231.254 335.24 L 78.907 447.93 C 77.323 449.102 77.601 451.55 79.408 452.336 C 80.247 452.701 81.217 452.591 81.952 452.047 L 234.299 339.357 C 235.884 338.185 235.605 335.737 233.798 334.951 C 232.959 334.586 231.989 334.696 231.254 335.24 L 231.254 335.24 Z" style="fill: rgb(105, 210, 29); transform-box: fill-box; transform-origin: 50% 50%;" transform="matrix(-1, 0, 0, -1, -0.00002, 0.000011)"/>
  <path d="M 155.969 276.383 C 151.474 279.99 151.279 286.764 155.558 290.624 L 140.412 334.723 L 151.58 341.912 L 169.186 289.403 C 173.594 283.721 170.197 275.398 163.073 274.422 C 160.536 274.074 157.968 274.783 155.969 276.383 L 155.969 276.383 Z" style="fill: rgb(118, 80, 80); transform-box: fill-box; transform-origin: 50% 50%;" transform="matrix(-1, 0, 0, -1, 0.00003, -0.000018)"/>
  <path d="M 174.474 291.245 C 177.149 279.929 181.142 270.045 180.601 265.298 C 180.066 260.564 185.851 256.015 184.013 252.273 C 182.178 248.522 187.826 248.12 186.299 242.083 C 184.766 236.033 183.77 234.739 185.064 233.743 C 186.367 232.751 193.252 209.659 193.252 209.659 L 189.214 208.179 L 177.43 203.88 L 149.738 249.427 L 149.822 305.333 L 156.697 305.554 C 158.348 304.935 160.177 304.192 162 303.297 C 167.57 300.608 173.205 296.634 174.474 291.245 Z" fill="#e6e6e6" style="transform-box: fill-box; transform-origin: 50% 50%;" transform="matrix(-1, 0, 0, -1, 0.000024, -0.000011)"/>
  <polygon points="291.736 517.38 277.336 517.381 270.485 572.925 291.738 572.924 291.736 517.38" style="fill: rgb(118, 80, 80); transform-box: fill-box; transform-origin: 50% 50%;" transform="matrix(-1, 0, 0, -1, -0.000059, -0.000008)"/>
  <path d="M 264.086 570.557 C 264.101 567.2 266.815 564.48 270.172 564.458 L 297.281 564.458 L 298.121 566.199 L 301.955 574.111 L 303.44 566.199 L 303.769 564.458 L 313.994 564.458 L 313.848 566.211 L 311.121 598.907 L 307.554 599.126 L 292.144 600.039 L 288.358 600.27 L 288.358 590.508 C 285.485 587.452 262.942 575.901 264.086 570.557 Z" fill="#2f2e41" style="transform-box: fill-box; transform-origin: 50% 50%;" transform="matrix(-1, 0, 0, -1, 0.000032, -0.000059)"/>
  <polygon points="147.674 516.045 135.149 508.939 101.78 553.868 120.265 564.356 147.674 516.045" style="fill: rgb(118, 80, 80); transform-box: fill-box; transform-origin: 50% 50%;" transform="matrix(-1, 0, 0, -1, 0.000018, -0.000081)"/>
  <path d="M 83.287 552.393 C 84.946 549.467 88.661 548.438 91.589 550.092 L 93.013 550.896 L 93.025 550.896 L 115.167 563.47 L 114.461 574.17 L 120.815 566.671 L 125.501 569.337 L 129.701 571.723 L 125.988 577.152 L 110.2 600.268 L 106.987 598.685 L 93.122 591.881 L 89.738 590.213 L 94.547 581.729 C 93.561 577.639 79.659 556.483 83.287 552.393 Z" fill="#2f2e41" style="transform-box: fill-box; transform-origin: 50% 50%;" transform="matrix(-1, 0, 0, -1, -0.000027, -0.000083)"/>
  <path d="M 217.016 545.715 C 236.313 532.928 255.415 410.075 250.402 412.081 L 295.885 327.316 L 231.146 298.296 L 188.579 446.098 L 181.485 391.707 L 190.944 305.391 L 149.098 295.271 L 120.154 297.338 C 127.675 400.226 146.453 508.74 162.016 550.715 L 217.016 545.715 Z" fill="#2f2e41" style="transform-box: fill-box; transform-origin: 50% 50%;" transform="matrix(-1, 0, 0, -1, -0.000042, -0.000002)"/>
  <path d="M 254.512 200.836 L 254.722 200.046 C 234.322 188.696 218.932 181.206 196.632 188.076 L 181.812 201.416 L 174.902 228.066 L 175.332 295.266 C 175.401 306.17 184.688 314.737 195.562 313.926 L 210.222 324.786 L 231.092 324.066 L 245.052 308.646 L 253.392 305.666 L 259.872 303.356 C 261.182 302.176 262.612 300.816 263.982 299.316 L 253.732 238.316 L 249.372 220.076 L 254.512 200.836 Z" fill="#e6e6e6" style="transform-box: fill-box; transform-origin: 50% 50%;" transform="matrix(-1, 0, 0, -1, 0.000033, 0.000044)"/>
  <circle cx="713.587" cy="305.715" r="26.778" transform="matrix(-0.87624, -0.481875, -0.481875, 0.87624, 990.838328, 232.226701)" style="fill: rgb(118, 80, 80);"/>
  <path d="M 192.713 116.513 C 192.633 116.483 192.563 116.453 192.483 116.423 C 192.331 116.355 192.174 116.298 192.014 116.252 C 190.992 115.877 189.928 115.632 188.845 115.524 C 188.384 115.474 187.92 115.449 187.456 115.45 C 186.86 115.448 186.266 115.487 185.675 115.566 C 185.019 115.646 184.37 115.778 183.734 115.961 C 183.433 116.042 183.135 116.138 182.844 116.248 C 178.814 117.68 175.688 120.919 174.402 124.997 L 174.402 125.007 C 174.334 125.204 174.277 125.404 174.23 125.607 C 173.933 126.732 173.782 127.891 173.781 129.056 L 173.781 129.076 C 173.774 131.914 174.659 134.684 176.311 136.992 C 177.308 138.405 178.459 138.641 177.813 140.256 C 175.753 145.408 184.18 149.62 189.155 147.354 C 189.335 147.372 189.515 147.379 189.695 147.376 C 193.045 147.384 194.288 142.437 196.285 139.653 L 196.227 139.634 C 194.359 138.98 193.9 136.55 195.4 135.259 C 195.652 135.042 195.944 134.876 196.259 134.771 C 197.589 134.337 198.933 133.955 200.29 133.623 C 204.766 128.336 199.635 112.869 192.713 116.513 Z" fill="#2f2e41" style="transform-box: fill-box; transform-origin: 50% 50%;" transform="matrix(-1, 0, 0, -1, -0.000005, 0.000008)"/>
  <path d="M 243.19 155.462 C 241.714 149.829 238.988 144.332 234.467 140.67 C 229.936 137.009 208.628 128.335 206.829 135.76 C 208.032 130.573 207.307 128.592 205.372 126.737 C 205.041 127.186 204.69 127.615 204.329 128.034 C 202.999 129.566 201.404 130.846 199.619 131.812 C 199.573 128.679 199.798 125.548 200.293 122.454 C 199.496 121.718 198.736 120.942 198.019 120.128 C 194.573 130.399 187.019 142.702 192.488 152.054 C 194.658 155.766 192.849 156.274 190.926 156.7 C 187.57 157.444 185.72 171.217 184.921 174.565 C 183.93 178.763 183.538 183.592 186.14 187.038 C 188.741 190.485 195.32 190.632 196.651 186.525 L 199.421 190.292 C 203.001 198.171 212.505 196.595 221.098 195.577 C 229.691 194.569 237.276 188.528 241.145 180.787 C 245.005 173.047 245.378 163.838 243.19 155.462 Z" fill="#2f2e41" style="transform-box: fill-box; transform-origin: 50% 50%;" transform="matrix(-1, 0, 0, -1, 0.000009, -0.000034)"/>
  <path d="M 182.903 146.666 C 182.53 136.954 187.99 127.956 196.778 123.804 C 198.524 123.013 200.044 125.602 198.285 126.398 C 190.43 130.022 185.539 138.03 185.902 146.674 C 186.002 148.603 183.002 148.59 182.902 146.666 L 182.903 146.666 Z" fill="#f88e37" style="transform-box: fill-box; transform-origin: 50% 50%;" transform="matrix(-1, 0, 0, -1, 0.000048, -0.000006)"/>
  <path d="M 297.501 253.714 C 303.054 255.255 305.906 261.402 303.498 266.638 L 334.817 301.181 L 327.393 312.193 L 290.494 270.893 C 284.202 267.412 284.038 258.424 290.199 254.716 C 292.393 253.395 295.033 253.033 297.501 253.714 L 297.501 253.714 Z" style="fill: rgb(118, 80, 80); transform-box: fill-box; transform-origin: 50% 50%;" transform="matrix(-1, 0, 0, -1, -0.00009, -0.000041)"/>
  <path d="M 312.543 283.421 C 312.543 283.421 290.33 287.41 283.407 278.059 C 276.485 268.709 268.915 261.208 267.538 256.638 C 266.161 252.067 259.054 250.178 259.264 246.009 C 259.474 241.841 254.12 243.703 253.145 237.545 C 252.169 231.388 252.571 229.801 250.984 229.399 C 249.396 228.998 233.964 210.501 233.964 210.501 L 246.219 198.946 L 289.633 229.869 L 312.543 283.421 Z" fill="#e6e6e6" style="transform-box: fill-box; transform-origin: 50% 50%;" transform="matrix(-1, 0, 0, -1, -0.00008, -0.000004)"/>
  <circle cx="-433.882" cy="36.777" r="22.63" style="fill: rgb(105, 210, 29);" transform="matrix(-1, 0, 0, 1, 0, 0)"/>
  <path d="M 433.882 24.739 C 433.35 24.739 432.919 25.171 432.919 25.702 L 432.919 47.987 C 432.919 48.729 433.722 49.192 434.364 48.821 C 434.662 48.649 434.845 48.331 434.845 47.987 L 434.845 25.702 C 434.845 25.171 434.414 24.739 433.882 24.739 Z" fill="#fff" style="transform-box: fill-box; transform-origin: 50% 50%;" transform="matrix(-1, 0, 0, -1, -0.000093, 0.000024)"/>
  <path d="M 445.025 35.882 L 422.74 35.882 C 421.999 35.882 421.535 36.684 421.906 37.326 C 422.078 37.624 422.396 37.808 422.74 37.808 L 445.025 37.808 C 445.766 37.808 446.229 37.005 445.859 36.363 C 445.687 36.065 445.369 35.882 445.025 35.882 Z" fill="#fff" style="transform-box: fill-box; transform-origin: 50% 50%;" transform="matrix(-1, 0, 0, -1, -0.000084, 0.000006)"/>
  <path d="M 16.923 508.912 L 16.79 509.626 C 12.391 533.881 18.884 558.844 34.543 577.881 C 38.925 583.123 43.95 587.792 49.498 591.778 L 50.027 592.16 L 50.258 591.55 C 53.018 584.274 56.502 576.987 58.089 573.761 L 59.16 597.839 L 59.772 598.164 C 65.501 601.234 72.523 600.51 77.505 596.334 C 82.658 592.192 84.774 585.332 82.848 579.007 C 82.016 576.178 81.23 573.244 80.469 570.406 C 77.856 560.654 75.154 550.57 69.918 542.079 C 61.764 529.141 48.205 520.574 33.019 518.766 L 16.923 508.912 Z" fill="#f2f2f2" style="transform-box: fill-box; transform-origin: 50% 50%;" transform="matrix(-1, 0, 0, -1, 0.000049, -0.000012)"/>
  <path d="M 663.67 599.874 C 663.672 599.216 663.138 598.682 662.48 598.684 L 1.19 598.684 C 0.274 598.684 -0.299 599.675 0.159 600.469 C 0.372 600.837 0.765 601.064 1.19 601.064 L 662.48 601.064 C 663.138 601.066 663.672 600.532 663.67 599.874 Z" fill="#ccc" style="transform-box: fill-box; transform-origin: 50% 50%;" transform="matrix(-1, 0, 0, -1, -0.000062, -0.000085)"/>
</svg>