<svg id="visual" viewBox="0 0 900 600" width="900" height="600" xmlns="http://www.w3.org/2000/svg" xmlns:xlink="http://www.w3.org/1999/xlink" version="1.1"><path d="M0 174L16.7 175.5C33.3 177 66.7 180 100 177C133.3 174 166.7 165 200 160.8C233.3 156.7 266.7 157.3 300 162.3C333.3 167.3 366.7 176.7 400 181.7C433.3 186.7 466.7 187.3 500 190C533.3 192.7 566.7 197.3 600 191.7C633.3 186 666.7 170 700 166.3C733.3 162.7 766.7 171.3 800 175.2C833.3 179 866.7 178 883.3 177.5L900 177L900 0L883.3 0C866.7 0 833.3 0 800 0C766.7 0 733.3 0 700 0C666.7 0 633.3 0 600 0C566.7 0 533.3 0 500 0C466.7 0 433.3 0 400 0C366.7 0 333.3 0 300 0C266.7 0 233.3 0 200 0C166.7 0 133.3 0 100 0C66.7 0 33.3 0 16.7 0L0 0Z" fill="#3778c2"></path><path d="M0 141L16.7 143C33.3 145 66.7 149 100 145.5C133.3 142 166.7 131 200 125.8C233.3 120.7 266.7 121.3 300 128.5C333.3 135.7 366.7 149.3 400 155.5C433.3 161.7 466.7 160.3 500 156.2C533.3 152 566.7 145 600 137.5C633.3 130 666.7 122 700 118.5C733.3 115 766.7 116 800 119.8C833.3 123.7 866.7 130.3 883.3 133.7L900 137L900 0L883.3 0C866.7 0 833.3 0 800 0C766.7 0 733.3 0 700 0C666.7 0 633.3 0 600 0C566.7 0 533.3 0 500 0C466.7 0 433.3 0 400 0C366.7 0 333.3 0 300 0C266.7 0 233.3 0 200 0C166.7 0 133.3 0 100 0C66.7 0 33.3 0 16.7 0L0 0Z" fill="#295e9c"></path><path d="M0 129L16.7 128.3C33.3 127.7 66.7 126.3 100 122.3C133.3 118.3 166.7 111.7 200 105.2C233.3 98.7 266.7 92.3 300 92.3C333.3 92.3 366.7 98.7 400 100.7C433.3 102.7 466.7 100.3 500 97.3C533.3 94.3 566.7 90.7 600 90C633.3 89.3 666.7 91.7 700 97.5C733.3 103.3 766.7 112.7 800 117.8C833.3 123 866.7 124 883.3 124.5L900 125L900 0L883.3 0C866.7 0 833.3 0 800 0C766.7 0 733.3 0 700 0C666.7 0 633.3 0 600 0C566.7 0 533.3 0 500 0C466.7 0 433.3 0 400 0C366.7 0 333.3 0 300 0C266.7 0 233.3 0 200 0C166.7 0 133.3 0 100 0C66.7 0 33.3 0 16.7 0L0 0Z" fill="#1b4578"></path><path d="M0 82L16.7 83.5C33.3 85 66.7 88 100 88.8C133.3 89.7 166.7 88.3 200 82.8C233.3 77.3 266.7 67.7 300 68C333.3 68.3 366.7 78.7 400 80.8C433.3 83 466.7 77 500 72.3C533.3 67.7 566.7 64.3 600 68.5C633.3 72.7 666.7 84.3 700 87.5C733.3 90.7 766.7 85.3 800 78C833.3 70.7 866.7 61.3 883.3 56.7L900 52L900 0L883.3 0C866.7 0 833.3 0 800 0C766.7 0 733.3 0 700 0C666.7 0 633.3 0 600 0C566.7 0 533.3 0 500 0C466.7 0 433.3 0 400 0C366.7 0 333.3 0 300 0C266.7 0 233.3 0 200 0C166.7 0 133.3 0 100 0C66.7 0 33.3 0 16.7 0L0 0Z" fill="#0c2e56"></path><path d="M0 43L16.7 45.7C33.3 48.3 66.7 53.7 100 51.8C133.3 50 166.7 41 200 40C233.3 39 266.7 46 300 45.2C333.3 44.3 366.7 35.7 400 32.3C433.3 29 466.7 31 500 29.8C533.3 28.7 566.7 24.3 600 24.3C633.3 24.3 666.7 28.7 700 33.2C733.3 37.7 766.7 42.3 800 45.2C833.3 48 866.7 49 883.3 49.5L900 50L900 0L883.3 0C866.7 0 833.3 0 800 0C766.7 0 733.3 0 700 0C666.7 0 633.3 0 600 0C566.7 0 533.3 0 500 0C466.7 0 433.3 0 400 0C366.7 0 333.3 0 300 0C266.7 0 233.3 0 200 0C166.7 0 133.3 0 100 0C66.7 0 33.3 0 16.7 0L0 0Z" fill="#001936"></path></svg>