<?xml version="1.0" encoding="utf-8"?>
<!-- Uploaded to: SVG Repo, www.svgrepo.com, Generator: SVG Repo Mixer Tools -->
<svg width="800px" height="800px" viewBox="0 0 1024 1024" class="icon"  version="1.1" xmlns="http://www.w3.org/2000/svg"><path d="M174.4 271.9h653.3c21.6 0 39.2 17.5 39.2 39.2v417.6c0 21.6-17.5 39.2-39.2 39.2H174.4c-21.6 0-39.2-17.5-39.2-39.2V311.1c0-21.7 17.6-39.2 39.2-39.2z" fill="#2F2F33" /><path d="M396.6 206.5h222.1c14.4 0 26.1 11.7 26.1 26.1V298H370.4v-65.3c0-14.5 11.7-26.2 26.2-26.2z" fill="#F4CE26" /><path d="M671 324.1H344.3v-91.5c0-28.8 23.4-52.3 52.3-52.3h222.1c28.8 0 52.3 23.4 52.3 52.3v91.5z m-274.5-52.2h222.1v-39.2H396.5v39.2z" fill="#2F2F33" /><path d="M214.9 324.4h574.5c14.4 0 26.1 11.7 26.1 26.1v339c0 14.4-11.7 26.1-26.1 26.1H214.9c-14.4 0-26.1-11.7-26.1-26.1v-339c-0.1-14.4 11.6-26.1 26.1-26.1z" fill="#FFFFFF" /><path d="M269.47 426.326h130.7c7.2 0 13.1 5.8 13.1 13.1v156.8c0 7.2-5.8 13.1-13.1 13.1h-130.7c-7.2 0-13.1-5.8-13.1-13.1v-156.8c0-7.2 5.8-13.1 13.1-13.1z" fill="#F5BF0D" /><path d="M400.07 635.426h-130.7c-21.6 0-39.2-17.6-39.2-39.2v-156.8c0-21.6 17.6-39.2 39.2-39.2h130.7c21.6 0 39.2 17.6 39.2 39.2v156.8c0 21.6-17.6 39.2-39.2 39.2z m-117.6-52.3h104.5v-130.6h-104.5v130.6zM530.77 439.426h147.8c14.4 0 26.1 11.7 26.1 26.1 0 14.4-11.7 26.1-26.1 26.1h-147.8c-14.4 0-26.1-11.7-26.1-26.1 0-14.4 11.7-26.1 26.1-26.1zM530.77 557.026h173.3c14.4 0 26.1 11.7 26.1 26.1 0 14.4-11.7 26.1-26.1 26.1h-173.3c-14.4 0-26.1-11.7-26.1-26.1 0-14.4 11.7-26.1 26.1-26.1z" fill="#2F2F33" /></svg>