<?xml version="1.0" encoding="utf-8"?>
<!-- Uploaded to: SVG Repo, www.svgrepo.com, Generator: SVG Repo Mixer Tools -->
<svg width="800px" height="800px" viewBox="0 0 1024 1024" class="icon"  version="1.1" xmlns="http://www.w3.org/2000/svg"><path d="M229.8 191.8h556c12.8 0 23.2 10.4 23.2 23.2v590.8c0 12.8-10.4 23.2-23.2 23.2h-556c-12.8 0-23.2-10.4-23.2-23.2V215c0-12.8 10.4-23.2 23.2-23.2z" fill="#FFFFFF" /><path d="M784.6 828.9H231c-13.4 0-24.4-10.9-24.4-24.4V216.1c0-13.4 10.9-24.4 24.4-24.4h553.6c13.4 0 24.4 10.9 24.4 24.4v588.4c-0.1 13.5-11 24.4-24.4 24.4z m-507.3-46.4h461c13.4 0 24.4-10.9 24.4-24.4V262.5c0-13.4-10.9-24.4-24.4-24.4h-461c-13.4 0-24.4 10.9-24.4 24.4v495.7c0 13.4 10.9 24.3 24.4 24.3z" fill="#333333" /><path d="M369.2 296h287.9c25.9 0 46.8 21 46.8 46.8V459c0 25.9-21 46.8-46.8 46.8H369.2c-25.9 0-46.8-21-46.8-46.8V342.9c0-25.9 21-46.9 46.8-46.9z" fill="#F4CE26" /><path d="M657.7 505.9H368.8c-25.6 0-46.3-20.8-46.3-46.3V342.4c0-25.5 20.8-46.3 46.3-46.3h288.9c25.6 0 46.3 20.8 46.3 46.3v117.2c0 25.5-20.8 46.3-46.3 46.3zM368.8 342.4v117.2h288.9V342.4H368.8zM345.6 666.7h335.2c12.8 0 23.2 10.4 23.2 23.2 0 12.8-10.4 23.2-23.2 23.2H345.6c-12.8 0-23.2-10.4-23.2-23.2 0-12.8 10.4-23.2 23.2-23.2zM438.3 562.5h144.5c12.8 0 23.2 10.4 23.2 23.2 0 12.8-10.4 23.2-23.2 23.2H438.3c-12.8 0-23.2-10.4-23.2-23.2 0-12.9 10.4-23.2 23.2-23.2z" fill="#333333" /></svg>