<?xml version="1.0" encoding="utf-8"?>
<!-- Uploaded to: SVG Repo, www.svgrepo.com, Generator: SVG Repo Mixer Tools -->
<svg width="800px" height="800px" viewBox="0 0 1024 1024" class="icon"  version="1.1" xmlns="http://www.w3.org/2000/svg"><path d="M356.4 168.9h318.1c15.3 0 27.7 12.4 27.7 27.7v83H328.7v-83c0-15.3 12.4-27.7 27.7-27.7z" fill="#FFFFFF" /><path d="M729.8 307.2H301V196.6c0-30.5 24.8-55.3 55.3-55.3h318.1c30.5 0 55.3 24.8 55.3 55.3v110.6z m-373.4-55.3h318.1v-55.3H356.3l0.1 55.3z" fill="#333333" /><path d="M162.8 238.1h691.5c15.3 0 27.7 12.4 27.7 27.7v497.9c0 15.3-12.4 27.7-27.7 27.7H162.8c-15.3 0-27.7-12.4-27.7-27.7V265.8c0-15.4 12.4-27.7 27.7-27.7z" fill="#FFFFFF" /><path d="M826.6 791.3H190.4c-30.5 0-55.3-24.8-55.3-55.3V293.4c0-30.5 24.8-55.3 55.3-55.3h636.2c30.5 0 55.3 24.8 55.3 55.3v442.5c0 30.5-24.8 55.4-55.3 55.4zM190.4 293.4v442.5h636.2V293.3H190.4z" fill="#333333" /><path d="M328.7 514.7a186.7 179.8 0 1 0 373.4 0 186.7 179.8 0 1 0-373.4 0Z" fill="#8CAAFF" /><path d="M515.4 722.1c-118.2 0-214.4-93-214.4-207.4s96.2-207.4 214.4-207.4 214.4 93.1 214.4 207.4S633.6 722.1 515.4 722.1z m0-359.6c-87.7 0-159 68.2-159 152.1S427.7 666.8 515.4 666.8s159-68.2 159-152.1-71.3-152.2-159-152.2z" fill="#333333" /><path d="M439.3 514.7a76.1 69.1 0 1 0 152.2 0 76.1 69.1 0 1 0-152.2 0Z" fill="#FFFFFF" /><path d="M515.4 611.5c-57.2 0-103.7-43.4-103.7-96.8s46.5-96.8 103.7-96.8 103.7 43.4 103.7 96.8-46.5 96.8-103.7 96.8z m0-138.3c-26.7 0-48.4 18.6-48.4 41.5s21.7 41.5 48.4 41.5 48.4-18.6 48.4-41.5-21.7-41.5-48.4-41.5z" fill="#333333" /></svg>