<?xml version="1.0" encoding="utf-8"?>
<!-- Uploaded to: SVG Repo, www.svgrepo.com, Generator: SVG Repo Mixer Tools -->
<svg width="800px" height="800px" viewBox="0 0 1024 1024" class="icon"  version="1.1" xmlns="http://www.w3.org/2000/svg"><path d="M344.9 189.3h417.9c14.3 0 25.9 11.2 25.9 25.1v590c0 13.9-11.6 25.1-25.9 25.1H218c-14.3 0-25.9-11.2-25.9-25.1V380c0-5.4 1.8-10.6 5.1-15l127-165.7c4.8-6.2 12.5-10 20.7-10z" fill="#FFFFFF" /><path d="M756.4 829.6h-532c-17.9 0-32.4-14.5-32.4-32.4V382.8c0-7.1 2.3-14 6.7-19.7L322.2 202c6.1-8 15.6-12.7 25.7-12.7h408.6c17.9 0 32.4 14.5 32.4 32.4v575.5c-0.1 17.9-14.6 32.4-32.5 32.4z m-480.1-50.2h428.2c17.9 0 32.4-14.5 32.4-32.4V272c0-17.9-14.5-32.4-32.4-32.4H374c-10.1 0-19.6 4.7-25.7 12.7l-97.7 127.5c-4.3 5.7-6.7 12.6-6.7 19.7V747c0 17.9 14.5 32.4 32.4 32.4z" fill="#2F2F33" /><path d="M425.6 189.3c14.3 0 25.9 11.2 25.9 25.1v87.9c0 13.9-11.6 25.1-25.9 25.1-14.3 0-25.9-11.2-25.9-25.1v-87.9c-0.1-13.8 11.5-25.1 25.9-25.1zM529.3 189.3c14.3 0 25.9 11.2 25.9 25.1v87.9c0 13.9-11.6 25.1-25.9 25.1-14.3 0-25.9-11.2-25.9-25.1v-87.9c0-13.8 11.6-25.1 25.9-25.1zM633.1 189.3c14.3 0 25.9 11.2 25.9 25.1v87.9c0 13.9-11.6 25.1-25.9 25.1-14.3 0-25.9-11.2-25.9-25.1v-87.9c0-13.8 11.6-25.1 25.9-25.1z" fill="#2F2F33" /><path d="M347.7 515.7h285.4c14.3 0 25.9 11.2 25.9 25.1v125.5c0 13.9-11.6 25.1-25.9 25.1H347.7c-14.3 0-25.9-11.2-25.9-25.1V540.8c0-13.8 11.6-25.1 25.9-25.1z" fill="#F5BF0D" /><path d="M633.1 716.6H347.7c-28.6 0-51.9-22.5-51.9-50.2V540.8c0-27.7 23.3-50.2 51.9-50.2h285.4c28.6 0 51.9 22.5 51.9 50.2v125.5c0 27.8-23.3 50.3-51.9 50.3zM347.7 540.8v125.5h285.4V540.8H347.7z" fill="#2F2F33" /></svg>