<?xml version="1.0" encoding="utf-8"?>
<!-- Uploaded to: SVG Repo, www.svgrepo.com, Generator: SVG Repo Mixer Tools -->
<svg width="800px" height="800px" viewBox="0 0 1024 1024" class="icon"  version="1.1" xmlns="http://www.w3.org/2000/svg"><path d="M224.3 251.4h556.2c14.3 0 25.9 11.6 25.9 25.9v501.8c0 14.3-11.6 25.9-25.9 25.9H224.3c-14.3 0-25.9-11.6-25.9-25.9V277.3c0-14.3 11.6-25.9 25.9-25.9z" fill="#FFFFFF" /><path d="M780.5 830.8H224.3c-28.5 0-51.7-23.2-51.7-51.7V277.3c0-28.5 23.2-51.7 51.7-51.7h556.2c28.5 0 51.7 23.2 51.7 51.7v501.8c0 28.5-23.2 51.7-51.7 51.7zM224.3 277.3v501.8h556.2V277.3H224.3z" fill="#333333" /><path d="M224.3 277h568.5v152.1H224.3z" fill="#FFDB5B" /><path d="M198.4 399.5h633.8v51.8H198.4zM495.6 638.8l101-101c11.8-11.8 30.9-11.8 42.7 0l0.1 0.1c11.8 11.8 11.8 30.9 0 42.7L518.7 701.2c-6.3 6.3-14.8 9.3-23.1 8.8-8.3 0.5-16.7-2.5-23.1-8.8l-76-76c-11.8-11.8-11.8-30.9 0-42.7l0.1-0.1c11.8-11.8 30.9-11.8 42.7 0l56.3 56.4z" fill="#333333" /><path d="M327.7 166.8c14.3 0 25.9 11.6 25.9 25.9v38.8h-51.7v-38.8c0-14.4 11.6-25.9 25.8-25.9zM664.1 166.8c14.3 0 25.9 11.6 25.9 25.9v38.8h-51.7v-38.8c-0.1-14.4 11.5-25.9 25.8-25.9z" fill="#333333" /></svg>