<?xml version="1.0" encoding="utf-8"?>
<!-- Uploaded to: SVG Repo, www.svgrepo.com, Generator: SVG Repo Mixer Tools -->
<svg width="800px" height="800px" viewBox="0 0 1024 1024" class="icon"  version="1.1" xmlns="http://www.w3.org/2000/svg"><path d="M276 199.2h391.8c14.4 0 26.1 11.7 26.1 26.1v561.6h-444V225.3c-0.1-14.4 11.6-26.1 26.1-26.1z" fill="#FFFFFF" /><path d="M720 813H223.7V225.3c0-28.8 23.4-52.2 52.2-52.2h391.9c28.8 0 52.2 23.4 52.2 52.2V813z m-444-52.2h391.8V225.3H276v535.5z" fill="#2F2F33" /><path d="M210.7 760.8h522.4c14.4 0 26.1 11.7 26.1 26.1 0 14.4-11.7 26.1-26.1 26.1H210.7c-14.4 0-26.1-11.7-26.1-26.1-0.1-14.4 11.6-26.1 26.1-26.1z" fill="#2F2F33" /><path d="M354.3 303.7h235.1c14.4 0 26.1 11.7 26.1 26.1v91.4c0 14.4-11.7 26.1-26.1 26.1H354.3c-14.4 0-26.1-11.7-26.1-26.1v-91.4c0-14.4 11.7-26.1 26.1-26.1z" fill="#8CAAFF" /><path d="M589.4 473.5H354.3c-28.8 0-52.2-23.4-52.2-52.2v-91.4c0-28.8 23.4-52.2 52.2-52.2h235.1c28.8 0 52.2 23.4 52.2 52.2v91.4c0 28.8-23.4 52.2-52.2 52.2zM354.3 329.8v91.4h235.1v-91.4H354.3z" fill="#2F2F33" /><path d="M785.3 342.9h52.2c14.4 0 26.1 11.7 26.1 26.1v104.5c0 14.4-11.7 26.1-26.1 26.1h-52.2c-14.4 0-26.1-11.7-26.1-26.1V369c0-14.4 11.7-26.1 26.1-26.1z" fill="#FFFFFF" /><path d="M837.5 525.7h-52.2c-28.8 0-52.2-23.4-52.2-52.2V369c0-28.8 23.4-52.2 52.2-52.2h52.2c28.8 0 52.2 23.4 52.2 52.2v104.5c0.1 28.8-23.3 52.2-52.2 52.2zM785.3 369v104.5h52.2V369h-52.2z" fill="#2F2F33" /><path d="M786.5 741.1h-77.6v-52.2h77.6V497.6h52.2v191.2c0 28.9-23.4 52.3-52.2 52.3z" fill="#2F2F33" /></svg>