<?xml version="1.0" encoding="utf-8"?>
<!-- Uploaded to: SVG Repo, www.svgrepo.com, Generator: SVG Repo Mixer Tools -->
<svg width="800px" height="800px" viewBox="0 0 1024 1024" class="icon"  version="1.1" xmlns="http://www.w3.org/2000/svg"><path d="M188.4 273.2h230.8v461.6H188.4V603l57.5-99-57.5-82.5z" fill="#8CAAFF" /><path d="M431.5 252.6h383.3v482.2H431.5z" fill="#FFFFFF" /><path d="M814.9 767.8h-610c-27.3 0-49.5-22.2-49.5-49.5V590.7c0-14.6 6.4-28.4 17.6-37.8 20.5-17.3 30.8-33.4 30.8-47.9 0-14.6-10.4-30.7-30.8-47.9-11.2-9.4-17.6-23.2-17.6-37.8V273.2c0-27.3 22.2-49.5 49.5-49.5h610c27.3 0 49.5 22.2 49.5 49.5v146.1c0 14.6-6.4 28.4-17.6 37.8-20.4 17.2-30.8 33.4-30.8 47.9s10.4 30.7 30.8 47.9c11.2 9.4 17.6 23.2 17.6 37.8v127.6c-0.1 27.3-22.3 49.5-49.5 49.5z m0-494.6h-610v146.1c32.1 27.1 48.4 55.9 48.4 85.7 0 29.8-16.3 58.6-48.4 85.7v127.6h610V590.7c-32.1-27.1-48.4-55.9-48.4-85.7 0-29.8 16.3-58.6 48.4-85.7V273.2z" fill="#333333" /><path d="M571.7 421.6h94.8c13.7 0 24.7 11.1 24.7 24.7 0 13.7-11.1 24.7-24.7 24.7h-94.8c-13.7 0-24.7-11-24.7-24.7 0-13.6 11-24.7 24.7-24.7zM571.7 537h94.8c13.7 0 24.7 11.1 24.7 24.7 0 13.7-11.1 24.7-24.7 24.7h-94.8c-13.7 0-24.7-11.1-24.7-24.7s11-24.7 24.7-24.7zM407.6 248.5l49.6 4.2v469.6l-49.6-4.2z" fill="#333333" /></svg>