<?xml version="1.0" encoding="utf-8"?>
<!-- Uploaded to: SVG Repo, www.svgrepo.com, Generator: SVG Repo Mixer Tools -->
<svg width="800px" height="800px" viewBox="0 0 1024 1024" class="icon"  version="1.1" xmlns="http://www.w3.org/2000/svg"><path d="M678.5 446.8h79.1c7 0 13.7 2.8 18.6 7.7l79.3 79c5 5 7.8 11.7 7.8 18.7v92.5c0 14.7-11.8 26.5-26.4 26.5H678.5c-14.6 0-26.4-11.8-26.4-26.4V473.2c0-14.5 11.9-26.4 26.4-26.4z" fill="#FFFFFF" /><path d="M836.9 697.6H678.5c-29.2 0-52.8-23.6-52.8-52.8V473.2c0-29.2 23.6-52.8 52.8-52.8h79.1c14.1 0 27.3 5.5 37.3 15.4l79.2 79c9.9 9.9 15.5 23.4 15.5 37.4v92.5c0.1 29.3-23.5 52.9-52.7 52.9zM678.5 473.2v171.6h158.4v-92.5l-79.2-79h-79.2z" fill="#333333" /><path d="M209.2 275.3H686c32.3 0 58.5 26.2 58.5 58.5V639c0 32.3-26.2 58.5-58.5 58.5H209.2c-32.3 0-58.5-26.2-58.5-58.5V333.8c-0.1-32.3 26.1-58.5 58.5-58.5z" fill="#FFFFFF" /><path d="M691.7 697.6H203.4c-29.2 0-52.8-23.6-52.8-52.8V328.1c0-29.2 23.6-52.8 52.8-52.8h488.3c29.2 0 52.8 23.6 52.8 52.8v316.7c0 29.2-23.6 52.8-52.8 52.8zM203.4 328.1v316.7h488.3V328.1H203.4z" fill="#333333" /><path d="M293.6 618.4c38.2-1.2 69.3 30 68.1 68.1-1.1 34.6-29.2 62.7-63.8 63.8-38.2 1.2-69.3-30-68.1-68.1 1.2-34.5 29.3-62.7 63.8-63.8z" fill="#FFFFFF" /><path d="M300.1 776.7c-54.4 2.5-99.1-42.3-96.6-96.6 2.2-47.4 40.6-85.8 87.9-87.9 54.4-2.5 99.1 42.3 96.6 96.6-2.1 47.3-40.5 85.7-87.9 87.9z m-0.7-131.7c-24.7-2.2-45.2 18.4-43 43 1.7 18.9 16.9 34.1 35.8 35.8 24.7 2.2 45.2-18.4 43-43-1.6-18.9-16.9-34.2-35.8-35.8z" fill="#333333" /><path d="M663.2 631.6c38.2-1.2 69.3 30 68.1 68.1-1.1 34.6-29.2 62.7-63.8 63.8-38.2 1.2-69.3-30-68.1-68.1 1.1-34.5 29.2-62.7 63.8-63.8z" fill="#FFFFFF" /><path d="M669.7 789.9c-54.4 2.5-99.1-42.3-96.6-96.6 2.2-47.4 40.6-85.8 87.9-87.9 54.4-2.5 99.1 42.3 96.6 96.6-2.2 47.3-40.5 85.7-87.9 87.9z m-0.8-131.7c-24.7-2.2-45.2 18.4-43 43 1.7 18.9 16.9 34.1 35.8 35.8 24.7 2.2 45.2-18.4 43-43-1.6-18.9-16.8-34.2-35.8-35.8z" fill="#333333" /><path d="M203.4 407.2h488.3V460H203.4z" fill="#333333" /><path d="M203.4 328.1h488.3v79.1H203.4z" fill="#8CAAFF" /><path d="M691.7 526h158.4v52.8H691.7z" fill="#333333" /></svg>