<?xml version="1.0" encoding="utf-8"?>
<!-- Uploaded to: SVG Repo, www.svgrepo.com, Generator: SVG Repo Mixer Tools -->
<svg width="800px" height="800px" viewBox="0 0 1024 1024" class="icon"  version="1.1" xmlns="http://www.w3.org/2000/svg"><path d="M816.4 771.2H185.8c-11.5 0-20-10.9-17-22.1l45.7-173.7c2-7.7 9-13.1 17-13.1h539.1c8 0 15 5.4 17 13.1l45.7 173.7c3 11.2-5.4 22.1-16.9 22.1z m-573.5-43.9h516.4c11.5 0 20-10.9 17-22.1l-22.6-85.8c-2-7.7-9-13.1-17-13.1H265.4c-8 0-15 5.4-17 13.1l-22.6 85.8c-2.9 11.1 5.5 22.1 17.1 22.1z" fill="#333333" /><path d="M259.6 210.5h483.8c12.1 0 22 9.8 22 22v318.9c0 12.1-9.8 22-22 22H259.6c-12.1 0-22-9.8-22-22v-319c0-12.1 9.9-21.9 22-21.9z" fill="#FFFFFF" /><path d="M787.4 595.3H215.6V232.4c0-24.3 19.7-44 44-44h483.8c24.3 0 44 19.7 44 44v362.9zM259.6 232.4v318.9h483.8V232.4H259.6z" fill="#333333" /><path d="M569.943 598.468l43.67-5.364 17.42 141.828-43.67 5.364zM372.01 735.071l17.42-141.828 43.67 5.364-17.42 141.828z" fill="#333333" /><path d="M215.6 639.3h582.8v44H215.6z" fill="#333333" /><path d="M351.1 276.4h300.8c26.3 0 47.5 21.3 47.5 47.5v146.8c0 26.3-21.3 47.5-47.5 47.5H351.1c-26.3 0-47.5-21.3-47.5-47.5V324c0-26.3 21.3-47.6 47.5-47.6z" fill="#F4CE26" /><path d="M655.5 518.3H347.6c-24.3 0-44-19.7-44-44V320.4c0-24.3 19.7-44 44-44h307.9c24.3 0 44 19.7 44 44v153.9c0 24.3-19.8 44-44 44zM347.6 320.4v153.9h307.9V320.4H347.6z" fill="#333333" /></svg>