<?xml version="1.0" encoding="utf-8"?>
<!-- Uploaded to: SVG Repo, www.svgrepo.com, Generator: SVG Repo Mixer Tools -->
<svg width="800px" height="800px" viewBox="0 0 1024 1024" class="icon"  version="1.1" xmlns="http://www.w3.org/2000/svg"><path d="M296.4 208.4h495.5c14.4 0 26.1 11.7 26.1 26.1v326c0 14.4-11.7 26.1-26.1 26.1H296.4c-14.4 0-26.1-11.7-26.1-26.1v-326c0-14.4 11.7-26.1 26.1-26.1z" fill="#FFFFFF" /><path d="M791.9 612.6H296.4c-28.8 0-52.2-23.4-52.2-52.2v-326c0-28.8 23.4-52.2 52.2-52.2h495.5c28.8 0 52.2 23.4 52.2 52.2v326c0 28.8-23.4 52.2-52.2 52.2zM296.4 234.5v326h495.5v-326H296.4z" fill="#333333" /><path d="M270.3 404h534.6v52.2H270.3z" fill="#333333" /><path d="M147 416.4l458.8-122.9c13.9-3.7 28.2 4.5 31.9 18.4 0 0.1 0 0.1 0.1 0.2l87.8 339.1c3.6 13.9-4.7 28-18.5 31.7L248.3 805.8c-13.9 3.7-28.2-4.5-31.9-18.4 0-0.1 0-0.1-0.1-0.2l-87.8-339.1c-3.6-13.9 4.6-28 18.5-31.7z" fill="#FFFFFF" /><path d="M241.4 832.8c-9 0-18-2.4-26-7-12.1-7-20.7-18.2-24.3-31.7l-87.9-339.5c-7.1-27.6 9.5-56.1 37-63.4L599 268.3c13.5-3.6 27.5-1.8 39.6 5.2 12.1 7 20.7 18.2 24.3 31.7l87.9 339.5c7.1 27.6-9.4 56.1-37 63.4L255 831c-4.5 1.2-9 1.8-13.6 1.8zM147 416.4l6.7 25.2 87.8 339.1 458.8-122.9-87.8-339.1-458.8 122.9-6.7-25.2z" fill="#333333" /><path d="M153.4 441.5l459.8-122.4L676.1 558 216.5 680.6z" fill="#8CAAFF" /><path d="M212.3 675c28.9-94.6 63.9-149.1 104.8-163.4 41-14.4 91 17.9 150.2 96.9" fill="#FFFFFF" /><path d="M212.3 701.1c-2.5 0-5.1-0.4-7.6-1.1-13.8-4.2-21.5-18.8-17.3-32.6 31.8-104 71.4-163 121.1-180.4 53.5-18.7 112.2 15.9 179.7 105.8 8.6 11.5 6.3 27.9-5.2 36.5-11.5 8.6-27.9 6.3-36.5-5.2-49.8-66.5-92.7-97.7-120.7-87.9-22.3 7.8-55.9 39.6-88.5 146.4-3.6 11.3-13.9 18.5-25 18.5z" fill="#333333" /><path d="M400.7 631.5c34-79.5 68.6-125.5 103.9-137.9 35.3-12.4 85.3 7.7 150 60.2" fill="#FFFFFF" /><path d="M400.7 657.6c-3.4 0-6.9-0.7-10.2-2.1-13.2-5.6-19.4-21-13.8-34.2C414 533.9 453 484.1 495.9 469c44.9-15.7 102.2 5.4 175.1 64.6 11.2 9.1 12.9 25.5 3.8 36.7-9.1 11.2-25.5 12.9-36.7 3.8-74.6-60.5-110.3-61-125-55.8-15.7 5.5-48.1 28.9-88.5 123.5-4.1 9.9-13.7 15.8-23.9 15.8z" fill="#333333" /><path d="M192.088 678.984l491.16-131.6 13.51 50.42-491.16 131.6z" fill="#333333" /></svg>