<?xml version="1.0" encoding="utf-8"?>
<!-- Uploaded to: SVG Repo, www.svgrepo.com, Generator: SVG Repo Mixer Tools -->
<svg width="800px" height="800px" viewBox="0 0 1024 1024" class="icon"  version="1.1" xmlns="http://www.w3.org/2000/svg"><path d="M225.1 251.9h592.7c14.2 0 25.8 11.5 25.8 25.8V690c0 14.2-11.5 25.8-25.8 25.8H225.1c-14.2 0-25.8-11.5-25.8-25.8V277.6c0-14.2 11.6-25.7 25.8-25.7z" fill="#FFFFFF" /><path d="M817.9 741.5H225.1c-28.4 0-51.5-23.1-51.5-51.5V277.6c0-28.4 23.1-51.5 51.5-51.5h592.7c28.4 0 51.5 23.1 51.5 51.5V690c0.1 28.4-23 51.5-51.4 51.5zM225.1 277.6V690h592.7V277.6H225.1z" fill="#2F2F33" /><path d="M379.7 544.1c-6 0-12.1-2.1-17-6.4-10.7-9.4-11.7-25.7-2.3-36.4l92.2-104.8c4.8-5.5 11.8-8.7 19.1-8.8 7.2 0.3 14.3 3 19.3 8.3l70.9 77.2L659.2 362c9.4-10.7 25.7-11.8 36.4-2.4s11.8 25.7 2.4 36.4L581.6 528.8c-4.8 5.5-11.8 8.7-19.1 8.8-7.1 0.1-14.3-2.9-19.3-8.3L472.3 452l-73.2 83.3c-5.1 5.8-12.2 8.8-19.4 8.8z" fill="#333333" /><path d="M225.1 638.4h592.7v51.5H225.1z" fill="#F4CE26" /><path d="M212.2 586.9h631.4v51.5H212.2z" fill="#303033" /><path d="M276.7 780.2h476.8c14.2 0 25.8 11.5 25.8 25.8 0 14.2-11.5 25.8-25.8 25.8H276.7c-14.2 0-25.8-11.5-25.8-25.8s11.5-25.8 25.8-25.8z" fill="#2F2F33" /><path d="M748.9 831.7H289.1L349.9 690h358.6l40.4 141.7z m-381.6-51.5h313.3l-11-38.7H383.8l-16.5 38.7z" fill="#2F2F33" /></svg>