<?xml version="1.0" encoding="utf-8"?><!-- Uploaded to: SVG Repo, www.svgrepo.com, Generator: SVG Repo Mixer Tools -->
<svg width="800px" height="800px" viewBox="0 0 366.34 366.34" id="Layer_1" data-name="Layer 1" xmlns="http://www.w3.org/2000/svg" xmlns:xlink="http://www.w3.org/1999/xlink"><defs><style>.cls-1{fill:#f2a196;}.cls-2{fill:url(#linear-gradient);}.cls-3{fill:#e88870;}.cls-4{fill:#f2d4cf;}.cls-5{fill:none;stroke:#00214e;stroke-miterlimit:10;}.cls-6{fill:#ffffff;}.cls-7{fill:#00214e;}</style><linearGradient id="linear-gradient" x1="69.93" y1="285.33" x2="296.41" y2="285.33" gradientUnits="userSpaceOnUse"><stop offset="0" stop-color="#16243f"/><stop offset="1" stop-color="#6878b1"/></linearGradient></defs><title>Artboards_Diversity_Avatars_by_Netguru</title><path class="cls-1" d="M296.41,280.68a184.56,184.56,0,0,1-226.48-1l48.66-22.81a46.83,46.83,0,0,0,6.65-3.82c.64-.44,1.28-.9,1.89-1.38a46.35,46.35,0,0,0,12.78-15.09,44.69,44.69,0,0,0,4.64-14.48,67.91,67.91,0,0,0,.74-9.91c0-5.72-.31-11.44-.37-17.17q-.06-4.75-.1-9.51l2,1,5.2,2.69,2.41.41,27.88,4.74,31.12,5.3.94,32,.31,10.46.15,5.08v.33l12.1,4.92Z"/><path class="cls-2" d="M296.41,280.68a184.56,184.56,0,0,1-226.48-1l48.66-22.81a46.83,46.83,0,0,0,6.65-3.82c.64-.44,1.28-.9,1.89-1.38,23.55,16.76,55.69,27.33,83.49,14.82,6.62-3,12.7-7.84,16.3-14.06Z"/><path class="cls-3" d="M214.81,247.17c-10.45.63-22.13-2.07-33-8.34-20.41-11.79-31.32-32.35-27.4-49.21l27.88,4.74,31.12,5.3.94,32Z"/><path class="cls-4" d="M267.76,84.35a41.22,41.22,0,0,1,4,17c.22,21.18-12.15,41.65-26,56.84l-.3.33c-10.59,11.12-27.31,13.72-41.23,18.47-5,1.72-59.22,17.12-59.22,20.48,0-.73-5.31-6-12-12.41a79.85,79.85,0,0,1-23.47-43.28c-2.54-14-.41-31.17,3.69-44.69,7.38-24.34,28-40.11,52.06-46.21C188.46,45,218.4,46,240.07,57,251.68,62.83,262.26,72.51,267.76,84.35Z"/><circle class="cls-1" cx="134.98" cy="157.5" r="17"/><circle class="cls-3" cx="140.38" cy="157.5" r="15.22"/><path class="cls-1" d="M140.6,141.45l2.32,30.18,1.51,19.73c.56,7.26,3.4,11.61,8.12,17.42a85,85,0,0,0,31.26,23.92c11.6,5.17,27.68,10.32,40.06,5.3,12.65-5.13,16.69-19.33,20.95-31.11s8.2-24.73,8-37.45c-.27-17.26-4.84-26.94-4.84-26.94l3.33-19.94c1.25-7.51,2.86-15.35,1-22.9-2.13-8.66-8.67-12.35-14.05-18.82-14.16,18.24-37.44,28.55-57.77,39C170,125.28,140.6,141.45,140.6,141.45Z"/><path class="cls-5" d="M215.13,141.31c-.08.34,13.36,38.47,13.36,38.47l-17.94.87"/><path class="cls-5" d="M169.11,134.75a80.58,80.58,0,0,1,28.13-.8"/><path class="cls-5" d="M231.7,133.8a55,55,0,0,1,17.45-1.21"/><path class="cls-5" d="M177.94,194.63a39.7,39.7,0,0,1,15.24-14.42"/><path class="cls-5" d="M195.85,150a11.6,11.6,0,0,1-5.18,8.32,12.14,12.14,0,0,1-1.85,1,24,24,0,0,1-6.41,1.37"/><path class="cls-4" d="M263.18,124.12c1.25-11.35.56-23.22-4.36-33.52A37.48,37.48,0,0,0,245.09,75c-4.23-2.63-13.67-7.11-18.3-3.2-9.52,8,10.1,29.35,15.1,34.75A102.93,102.93,0,0,0,263.18,124.12Z"/><line class="cls-5" x1="197.21" y1="117.56" x2="228.81" y2="117.56"/><line class="cls-5" x1="193.18" y1="124.09" x2="224.79" y2="124.09"/><path class="cls-5" d="M228.67,147.67a34.8,34.8,0,0,0,3.74,7.22,10.09,10.09,0,0,0,6.24,4"/><path class="cls-6" d="M190,191.15a1.85,1.85,0,0,1,2.68-.5c2.08,1.46,5.88,4.56,11.28,5.63,7.36,1.47,13.75-1.48,15.27.42.86,1.07-.19,2.37-2.2,4.05a19.78,19.78,0,0,1-14.86,3.69c-7.08-1.33-12.39-9.53-12.39-12.44A1.65,1.65,0,0,1,190,191.15Z"/><path class="cls-7" d="M185.65,143.77c6.1-.07,6.28,9.26.18,9.42h-.27c-6.11.07-6.29-9.26-.19-9.42h.28Z"/><path class="cls-7" d="M235.89,142.13c5.66-.06,5.83,8.59.17,8.75h-.26c-5.66.07-5.83-8.58-.17-8.74h.26Z"/></svg>