<?xml version="1.0" encoding="utf-8"?><!-- Uploaded to: SVG Repo, www.svgrepo.com, Generator: SVG Repo Mixer Tools -->
<svg width="800px" height="800px" viewBox="0 0 366.34 366.34" id="Layer_1" data-name="Layer 1" xmlns="http://www.w3.org/2000/svg" xmlns:xlink="http://www.w3.org/1999/xlink"><defs><style>.cls-1{fill:url(#linear-gradient);}.cls-2{fill:#e18477;}.cls-3{fill:#a76962;}.cls-4{fill:url(#linear-gradient-2);}.cls-5,.cls-6{fill:none;stroke-miterlimit:10;}.cls-5{stroke:#ffffff;}.cls-6{stroke:#00214e;}.cls-7{fill:#845161;}.cls-8{fill:#ffffff;}.cls-9{fill:#00214e;}</style><linearGradient id="linear-gradient" x1="76.86" y1="167.92" x2="280.82" y2="167.92" gradientUnits="userSpaceOnUse"><stop offset="0" stop-color="#16243f"/><stop offset="1" stop-color="#6878b1"/></linearGradient><linearGradient id="linear-gradient-2" x1="75.9" y1="133.57" x2="290.83" y2="22.63" xlink:href="#linear-gradient"/></defs><title>Artboards_Diversity_Avatars_by_Netguru</title><path class="cls-1" d="M275.91,209.93a23.45,23.45,0,0,1-1.14,8.52c-2.7,8.16-9.86,15.57-8.07,24,1.21,5.72,6.25,9.66,9.84,14.28,25.32,32.54-69.41,30.57-83.7,31.49-16.54,1.07-32.59.48-49,.19-15.14-.27-28.69,3.14-43.83-1.43-5.72-1.72-11.42-4.27-15.38-8.75S78.89,267,81.5,261.6c2.15-4.42,6.92-7.4,8.19-12.15,2.86-10.68-13.4-18.34-12.81-29.38.36-6.77,7.08-11.8,7.87-18.54,1.15-9.87-5.86-20-4.65-30.28,1.29-10.95,14.24-17.57,16-28.47.66-4.25-.52-8.55-1.21-12.8-5.65-34.91,22.61-59.36,50.45-74,17.08-9,37.59-13.12,56-5.54a13.18,13.18,0,0,0,4.33,1.29,21.88,21.88,0,0,0,4.08-.56c22.89-3.37,52.56,37.46,46.24,58.17-1.92,6.28-4.94,12.78-3.24,19.12,2.5,9.33,14.29,14.29,15.75,23.85,1.57,10.32-9.95,19.54-7.69,29.73,1.34,6,7.05,9.92,10.68,14.93A24.1,24.1,0,0,1,275.91,209.93Z"/><path class="cls-2" d="M296.41,281.54a184.56,184.56,0,0,1-226.48-1l48.66-22.81a47.68,47.68,0,0,0,4.35-2.34l1.12-.7c.4-.25.79-.51,1.18-.78a46.54,46.54,0,0,0,14.67-16.47c4-7.55,5.32-15.89,5.38-24.39,0-5.72-.31-11.44-.37-17.17q-.06-4.76-.1-9.51l2,1,5.2,2.69,30.29,5.15,31.12,5.3.94,32,.47,15.87L226.29,253l9,3.64Z"/><path class="cls-3" d="M214.35,232.49a60.08,60.08,0,0,1-30.07-2.35c-21.58-7.25-36.11-24.74-37.48-42.76l5.2,2.69,30.29,5.15,31.12,5.3Z"/><circle class="cls-2" cx="115.82" cy="154.36" r="17"/><circle class="cls-3" cx="121.82" cy="152.36" r="17"/><path class="cls-2" d="M238.73,127.58c12.46,43.14-11.79,93.25-30.26,95.3-44.63,5-76.34-17.79-88.79-60.93s4.1-85.81,37-95.3S226.28,84.44,238.73,127.58Z"/><path class="cls-4" d="M200.61,79.27c-.12.28-.24.55-.37.83A66.83,66.83,0,0,1,188.8,97c-9.25,10.21-20.84,18.16-32.86,24.77-7,3.85-14,7.72-21.48,10.55-2.32.87-21.89,5.06-21.89,5.69-1.36-17.46-.3-31.56,9-47.12A65.39,65.39,0,0,1,131.43,78c9.18-9.12,21.62-14.39,34.3-17s25.71-2.77,38.65-2.92C204.16,58,201.32,77.61,200.61,79.27Z"/><circle class="cls-5" cx="172.18" cy="143.86" r="19"/><circle class="cls-5" cx="225.32" cy="140.86" r="19"/><path class="cls-6" d="M198.4,132.52c-.08.34,9.79,38.84,9.79,38.84h-12.5"/><path class="cls-6" d="M209.86,122.31a31.08,31.08,0,0,1,22.85-2.16"/><path class="cls-6" d="M154.75,126A36.72,36.72,0,0,1,186,125"/><line class="cls-5" x1="191.18" y1="143.86" x2="206.32" y2="142.57"/><path class="cls-7" d="M296.41,281.54a184.56,184.56,0,0,1-226.48-1l48.66-22.81a46.83,46.83,0,0,0,6.65-3.82c.64-.44,1.28-.9,1.89-1.38a46.35,46.35,0,0,0,12.78-15.09A44.69,44.69,0,0,0,144.55,223a28.66,28.66,0,0,0,2.22,1.94,95.14,95.14,0,0,0,19.82,11.26,99,99,0,0,0,10.46,3.69,93.52,93.52,0,0,0,33,3.49c1.54-.12,3.09-.27,4.63-.38l.15,5.08v.33l12.1,4.92Z"/><path class="cls-6" d="M168.4,152.53a10.36,10.36,0,0,0,11-10"/><path class="cls-6" d="M212.26,140.35a9.07,9.07,0,0,0,3.3,6.77,26.87,26.87,0,0,0,6.68,3.95"/><path class="cls-6" d="M161.34,182.61a25.4,25.4,0,0,1,4.57-5.65,24.62,24.62,0,0,1,13.22-6.25"/><line class="cls-6" x1="187.06" y1="103.13" x2="210.73" y2="103.13"/><line class="cls-6" x1="181.29" y1="110.94" x2="210.73" y2="110.94"/><path class="cls-8" d="M172.41,181.37a1.85,1.85,0,0,1,2.68-.51c2.08,1.47,5.88,4.57,11.28,5.64,7.36,1.46,13.75-1.48,15.27.42.86,1.07-.19,2.37-2.2,4.05a19.74,19.74,0,0,1-14.86,3.68c-7.08-1.32-12.4-9.52-12.4-12.43A1.66,1.66,0,0,1,172.41,181.37Z"/><path class="cls-9" d="M169,135.63c6.1-.07,6.28,9.26.18,9.43h-.27c-6.11.07-6.29-9.25-.19-9.42H169Z"/><path class="cls-9" d="M219.26,134c5.67-.07,5.84,8.59.17,8.74h-.25c-5.66.06-5.83-8.59-.17-8.75h.25Z"/></svg>