<?xml version="1.0" encoding="utf-8"?><!-- Uploaded to: SVG Repo, www.svgrepo.com, Generator: SVG Repo Mixer Tools -->
<svg width="800px" height="800px" viewBox="0 0 366.34 366.34" id="Layer_1" data-name="Layer 1" xmlns="http://www.w3.org/2000/svg"><defs><style>.cls-1{fill:#f2d4cf;}.cls-2{fill:#f2a196;}.cls-3{fill:#e88870;}.cls-4,.cls-5{fill:none;stroke-miterlimit:10;}.cls-4{stroke:#ffffff;}.cls-5{stroke:#00214e;}.cls-6{fill:#00214e;}.cls-7{fill:#ffffff;}</style></defs><title>Artboards_Diversity_Avatars_by_Netguru</title><path class="cls-1" d="M204.73,256a388.83,388.83,0,0,1-55.49-9.31c-37-9.22-72.77-25.51-101-51.14,24.9-26,38.47-41.05,58-71.26,14.49-22.42,32.29-61.84,59.13-72,42.07-15.93,98.88-.45,110.84,46.87,5.05,20,5.24,40.92,2.38,61.26-1.3,9.17-10.58,98.69-15.9,98.6C243.36,258.68,224,257.89,204.73,256Z"/><path class="cls-2" d="M318.09,281.81a184.56,184.56,0,0,1-226.48-1L140.27,258a47.68,47.68,0,0,0,4.35-2.34l1.12-.7c.4-.25.79-.51,1.18-.78a46.54,46.54,0,0,0,14.67-16.47c4-7.55,5.32-15.89,5.38-24.39,0-5.72-.31-11.44-.37-17.17q-.06-4.75-.1-9.51l2,1,5.2,2.69L204,195.49l31.12,5.3.94,32,.47,15.87L248,253.3l9,3.64Z"/><path class="cls-3" d="M235.91,227.67c-2.72,1.68-5.29,2.47-7.54,2.23-14.79-1.59-43.64-13.18-61.8-34.63q0-1.58-.06-3.15-.06-4.76-.1-9.51l2,1,5.2,2.69,30.29,5.15,31.12,5.3Z"/><circle class="cls-2" cx="141.5" cy="154.63" r="17"/><circle class="cls-3" cx="147.5" cy="152.63" r="17"/><path class="cls-2" d="M257,128.88c11.74,40.69-13.21,89.87-28.54,89.87-21,0-72-16.77-83.74-57.46s3.87-80.92,34.87-89.87S245.29,88.2,257,128.88Z"/><circle class="cls-4" cx="193.86" cy="142.13" r="19"/><circle class="cls-4" cx="247" cy="139.13" r="19"/><path class="cls-1" d="M218.33,74.8c-4.3,18.7-13.69,34.58-30.86,46.14-18.52,12.83-39.8,14.63-61.13,18.86.54-13.11.83-27.15,7.6-38.85A79.46,79.46,0,0,1,166.25,70.6c14.8-7.66,37.71-15.16,54.35-9.85A112.5,112.5,0,0,1,218.33,74.8Z"/><path class="cls-5" d="M220.08,130.78c-.08.35,7.92,32.35,7.92,32.35H215.5"/><path class="cls-5" d="M231.53,120.57a31.21,31.21,0,0,1,22.86-2.16"/><path class="cls-5" d="M176.42,124.27a36.76,36.76,0,0,1,31.23-1"/><line class="cls-4" x1="212.86" y1="142.13" x2="228" y2="140.84"/><path class="cls-6" d="M318.09,281.81a184.56,184.56,0,0,1-226.48-1L140.27,258a46.83,46.83,0,0,0,6.65-3.82c.64-.44,1.28-.9,1.89-1.38a46.35,46.35,0,0,0,12.78-15.09,44.69,44.69,0,0,0,4.64-14.48,28.66,28.66,0,0,0,2.22,1.94,95.14,95.14,0,0,0,19.82,11.26,99,99,0,0,0,10.46,3.69,93.52,93.52,0,0,0,33,3.49c1.54-.12,3.09-.27,4.63-.38l.15,5.08v.33l12.1,4.92Z"/><path class="cls-7" d="M194.09,174.42a1.85,1.85,0,0,1,2.68-.51c2.08,1.47,5.88,4.56,11.28,5.64,7.36,1.46,13.74-1.48,15.27.42.86,1.07-.19,2.37-2.2,4.05a19.74,19.74,0,0,1-14.86,3.68c-7.08-1.32-12.4-9.53-12.4-12.43A1.66,1.66,0,0,1,194.09,174.42Z"/><path class="cls-6" d="M194.82,135.78c6.1.05,6.1,9.38,0,9.43h-.28c-6.1-.05-6.1-9.38,0-9.43h.28Z"/><path class="cls-6" d="M245.08,135.12c5.66,0,5.66,8.7,0,8.75h-.26c-5.66-.05-5.66-8.7,0-8.75h.26Z"/></svg>