<?xml version="1.0" encoding="utf-8"?><!-- Uploaded to: SVG Repo, www.svgrepo.com, Generator: SVG Repo Mixer Tools -->
<svg width="800px" height="800px" viewBox="0 0 366.34 366.34" id="Layer_1" data-name="Layer 1" xmlns="http://www.w3.org/2000/svg" xmlns:xlink="http://www.w3.org/1999/xlink"><defs><style>.cls-1{fill:url(#linear-gradient);}.cls-2{fill:#f2a196;}.cls-3{fill:#e88870;}.cls-4,.cls-6{fill:none;stroke-miterlimit:10;}.cls-4{stroke:#ffffff;}.cls-5{fill:url(#linear-gradient-2);}.cls-6{stroke:#00214e;}.cls-7{fill:#845161;}.cls-8{fill:#ffffff;}.cls-9{fill:#00214e;}</style><linearGradient id="linear-gradient" x1="58.07" y1="146.24" x2="274.7" y2="146.24" gradientUnits="userSpaceOnUse"><stop offset="0" stop-color="#16243f"/><stop offset="1" stop-color="#6878b1"/></linearGradient><linearGradient id="linear-gradient-2" x1="315.12" y1="258.13" x2="472.15" y2="203.1" gradientTransform="translate(-236.66 -105.74) rotate(-4.48)" xlink:href="#linear-gradient"/></defs><title>Artboards_Diversity_Avatars_by_Netguru</title><path class="cls-1" d="M198.29,246.25c-34.66.16-62.28-3.7-95.79-12.55-13-3.44-44.43-15.36-44.43-15.36,17.57-33.91,33.35-68.6,48.15-103.79,10.08-24,23.36-52.45,49.33-62.28,42.07-15.93,98.89-.45,110.84,46.87,5.5,21.75,4,45.45,4.75,67.7.8,23.7,1.18,47.45,3.56,71.06C251.88,246.34,222.38,246.14,198.29,246.25Z"/><path class="cls-2" d="M308.27,281.81a184.56,184.56,0,0,1-226.48-1L130.45,258a47.68,47.68,0,0,0,4.35-2.34l1.12-.7c.4-.25.79-.51,1.18-.78a46.54,46.54,0,0,0,14.67-16.47c4-7.55,5.32-15.89,5.38-24.39,0-5.72-.31-11.44-.37-17.17q-.06-4.75-.1-9.51l2,1,5.2,2.69,30.29,5.15,31.12,5.3.94,32,.47,15.87,11.47,4.67,9,3.64Z"/><path class="cls-3" d="M226.21,232.76a60.08,60.08,0,0,1-30.07-2.35c-21.58-7.25-36.11-24.74-37.48-42.76l5.2,2.69,30.29,5.15,31.12,5.3Z"/><circle class="cls-2" cx="127.68" cy="154.63" r="17"/><circle class="cls-3" cx="133.68" cy="152.63" r="17"/><path class="cls-2" d="M250.6,127.84c12.45,43.15-11.8,93.25-30.27,95.31-44.63,5-76.34-17.79-88.79-60.94s4.1-85.81,37-95.3S238.14,84.7,250.6,127.84Z"/><circle class="cls-4" cx="184.04" cy="144.13" r="19"/><circle class="cls-4" cx="237.18" cy="141.13" r="19"/><path class="cls-5" d="M208.52,74.8c-4.31,18.7-13.7,34.58-30.87,46.14-18.51,12.83-39.8,14.63-61.12,18.86.53-13.11.83-27.15,7.59-38.85A79.46,79.46,0,0,1,156.43,70.6c14.8-7.66,37.72-15.16,54.35-9.85A112.5,112.5,0,0,1,208.52,74.8Z"/><path class="cls-6" d="M210.26,132.78c-.08.35,9.79,38.85,9.79,38.85h-12.5"/><path class="cls-6" d="M221.72,122.57a31.18,31.18,0,0,1,22.85-2.16"/><path class="cls-6" d="M166.61,126.27a36.75,36.75,0,0,1,31.23-1"/><line class="cls-4" x1="203.04" y1="144.13" x2="218.18" y2="142.84"/><path class="cls-7" d="M308.27,281.81a184.56,184.56,0,0,1-226.48-1L130.45,258a46.83,46.83,0,0,0,6.65-3.82c.64-.44,1.28-.9,1.89-1.38a46.35,46.35,0,0,0,12.78-15.09,44.69,44.69,0,0,0,4.64-14.48,28.66,28.66,0,0,0,2.22,1.94,95.14,95.14,0,0,0,19.82,11.26,99,99,0,0,0,10.46,3.69,93.52,93.52,0,0,0,33,3.49c1.54-.12,3.09-.27,4.63-.38l.15,5.08v.33l12.1,4.92Z"/><path class="cls-6" d="M180.26,152.8a10.38,10.38,0,0,0,11-10"/><path class="cls-6" d="M224.12,140.61a9,9,0,0,0,3.31,6.77,26.63,26.63,0,0,0,6.67,4"/><path class="cls-6" d="M173.2,182.87a25.92,25.92,0,0,1,4.57-5.65A24.7,24.7,0,0,1,191,171"/><line class="cls-6" x1="198.92" y1="103.39" x2="222.59" y2="103.39"/><line class="cls-6" x1="193.15" y1="111.21" x2="222.59" y2="111.21"/><path class="cls-8" d="M184.27,181.63a1.86,1.86,0,0,1,2.68-.5c2.08,1.46,5.88,4.56,11.28,5.63,7.36,1.47,13.75-1.47,15.27.42.86,1.07-.19,2.38-2.2,4a19.69,19.69,0,0,1-14.86,3.69c-7.08-1.33-12.4-9.53-12.4-12.43A1.69,1.69,0,0,1,184.27,181.63Z"/><path class="cls-9" d="M183,137.23c6.1-.07,6.28,9.26.18,9.42h-.27c-6.1.07-6.28-9.25-.18-9.42H183Z"/><path class="cls-9" d="M233.2,135.6c5.66-.07,5.83,8.58.17,8.74h-.25c-5.67.07-5.83-8.58-.17-8.74h.25Z"/></svg>