<?xml version="1.0" encoding="utf-8"?><!-- Uploaded to: SVG Repo, www.svgrepo.com, Generator: SVG Repo Mixer Tools -->
<svg width="800px" height="800px" viewBox="0 0 366.34 366.34" id="Layer_1" data-name="Layer 1" xmlns="http://www.w3.org/2000/svg" xmlns:xlink="http://www.w3.org/1999/xlink"><defs><style>.cls-1{fill:url(#linear-gradient);}.cls-2{fill:#845161;}.cls-3{fill:#69303a;}.cls-4{fill:url(#linear-gradient-2);}.cls-5{fill:#00214e;}.cls-6{fill:none;stroke:#00214e;stroke-miterlimit:10;}.cls-7{fill:url(#linear-gradient-3);}</style><linearGradient id="linear-gradient" x1="100.63" y1="129.59" x2="274.46" y2="129.59" gradientUnits="userSpaceOnUse"><stop offset="0" stop-color="#315676"/><stop offset="1" stop-color="#e1b9e0"/></linearGradient><linearGradient id="linear-gradient-2" x1="69.93" y1="298.77" x2="296.41" y2="298.77" gradientUnits="userSpaceOnUse"><stop offset="0" stop-color="#16243f"/><stop offset="1" stop-color="#6878b1"/></linearGradient><linearGradient id="linear-gradient-3" x1="66.81" y1="112.45" x2="237.28" y2="78.04" gradientUnits="userSpaceOnUse"><stop offset="0" stop-color="#315676"/><stop offset="0.98" stop-color="#e1b9e0"/></linearGradient></defs><title>Artboards_Diversity_Avatars_by_Netguru</title><path class="cls-1" d="M262.16,125c.79,8.12,8.29,15.14,6.76,23.14-2.11,11-18.81,13.28-22.34,23.89-2.11,6.31,1.32,13.36-.31,19.81-1.86,7.35-9.69,11.59-17.14,13-11,2-21,1.06-30.94,7-5.28,3.17-9.32,8.14-15,10.61-16.55,7.16-35.93-1.29-47.23-13.86-14.71-16.38-21.47-37.27-25.83-58.44q-1.17-5.7-2.15-11.41c-.09-.53-.19-1.06-.29-1.59-1.8-9.47-5-19.9-6.37-30.1q-.21-1.56-.36-3.12c-1.06-11.07.42-21.72,8.6-30.39a36.33,36.33,0,0,1,31.25-10.83c3.65.54,7.3,1.65,10.95,1.16,6.18-.81,10.79-5.84,15.15-10.28,9.66-9.82,23.21-18.69,36.39-14.7,5.11,1.55,9.69,4.95,15,5.39l.91.05c6.19.12,11.83-3.67,17.37-6.63,5.8-3.1,13.29-5.28,18.63-1.44,9.65,6.93,1.27,22.95,6.07,33.82,2.9,6.57,10.4,10.45,12.57,17.29C277.91,100.18,260.86,111.53,262.16,125Z"/><path class="cls-2" d="M296.41,293.87a184.56,184.56,0,0,1-226.48-1l48.66-22.81a47.68,47.68,0,0,0,4.35-2.34l1.12-.7c.4-.25.79-.51,1.18-.78a46.54,46.54,0,0,0,14.67-16.47c4-7.55,5.32-15.89,5.38-24.39,0-5.72-.31-11.44-.37-17.17q-.06-4.75-.1-9.51l2,1,5.2,2.69,30.29,5.15,31.12,5.3.94,32,.47,15.87,11.47,4.67,9,3.64Z"/><path class="cls-3" d="M214.35,244.82a60.08,60.08,0,0,1-30.07-2.35c-21.58-7.25-36.11-24.74-37.48-42.76l5.2,2.69,30.29,5.15,31.12,5.3Z"/><path class="cls-4" d="M296.41,293.87a184.56,184.56,0,0,1-226.48-1l48.66-22.81a47.68,47.68,0,0,0,4.35-2.34c23.68,17.41,56.64,28.75,85.06,16,8.06-3.62,15.33-10.05,18.29-18.31l9,3.64Z"/><circle class="cls-2" cx="121.76" cy="165.14" r="17"/><circle class="cls-3" cx="127.84" cy="163.4" r="17"/><path class="cls-2" d="M206,232.88c-21-.89-71.22-19.8-81.24-60.94a97.83,97.83,0,0,1-2.8-26.21c0-1.73.15-3.45.29-5.14,2.48-28.26,18-51.33,41.13-57a40.14,40.14,0,0,1,4-.78,47.88,47.88,0,0,1,23.94,2.69,66.82,66.82,0,0,1,25.6,17.76A84.8,84.8,0,0,1,225,113.65a96.41,96.41,0,0,1,13.26,30.64C248.3,185.42,221.3,233.52,206,232.88Z"/><path class="cls-5" d="M173.24,146.58c6.1.3,5.71,9.62-.39,9.41h-.28c-6.09-.3-5.7-9.62.4-9.41h.27Z"/><path class="cls-5" d="M223.62,144.86c5.66.28,5.29,8.93-.37,8.74H223c-5.66-.29-5.29-8.93.37-8.74h.25Z"/><path class="cls-6" d="M205.35,144.57a57.66,57.66,0,0,0,1.51,11.56c.9,3.35,2.29,5.46,4.17,8.4a18.17,18.17,0,0,1,1.67,3.06c2.39,6-1.4,12.48-8.07,12.19l-4.13-.17"/><path class="cls-6" d="M176.11,189.76a29.76,29.76,0,0,0,18.12,10.47"/><path class="cls-6" d="M186.22,171.34a3.4,3.4,0,0,0,1.84,6.47"/><path class="cls-6" d="M210.59,132.49a31.17,31.17,0,0,1,22.92-1.19"/><path class="cls-6" d="M158.05,133.18a36.73,36.73,0,0,1,31.24.33"/><path class="cls-7" d="M232.9,92.92c-.9,4.6-4.09,8.5-10,11-5.11,2.18-10.7,2.88-16.08,4.26-7.71,2-12.25,7.8-19.45,10.09-6.16,2-12.74,1.69-19.23,1.92a54,54,0,0,0-8.91.9,52.34,52.34,0,0,0-13.37,5,106.49,106.49,0,0,0-17.29,11.45c-2.6,2.1-5.71,4.72-6.41,8.16-.24,1.18-.31,2.56-1.25,3.32a4.09,4.09,0,0,1-2,.68c-2.91.45-5.92,1-8.29,2.81-1.51-4.27-1.88-9.37-2.64-13.83-.09-.53-.19-1.06-.29-1.59-1.8-9.47-5-19.9-6.37-30.1q-.21-1.56-.36-3.12c-1.06-11.07.42-21.72,8.6-30.39a36.33,36.33,0,0,1,31.25-10.83c3.65.54,7.3,1.65,10.95,1.16l.51-.08c5.93-1,10.4-5.88,14.64-10.2,9.66-9.82,23.21-18.69,36.39-14.7,5.11,1.55,9.69,4.95,15,5.39,3.14.26,1.48,6.05,1.27,8.34-.53,5.81-.88,9.09,2.42,14.35,2.6,4.12,5.67,7.94,8,12.2C232.64,84,233.72,88.74,232.9,92.92Z"/></svg>