<?xml version="1.0" encoding="utf-8"?><!-- Uploaded to: SVG Repo, www.svgrepo.com, Generator: SVG Repo Mixer Tools -->
<svg width="800px" height="800px" viewBox="0 0 366.34 366.34" id="Layer_1" data-name="Layer 1" xmlns="http://www.w3.org/2000/svg" xmlns:xlink="http://www.w3.org/1999/xlink"><defs><style>.cls-1{fill:url(#linear-gradient);}.cls-2{fill:#845161;}.cls-3{fill:#69303a;}.cls-4{fill:#f2a196;}.cls-5{fill:none;stroke:#00214e;stroke-miterlimit:10;}.cls-6{fill:#00214e;}</style><linearGradient id="linear-gradient" x1="151.79" y1="29.09" x2="319.78" y2="29.09" gradientTransform="matrix(1, -0.03, 0.03, 1, -41.38, 105.68)" gradientUnits="userSpaceOnUse"><stop offset="0" stop-color="#315676"/><stop offset="1" stop-color="#e1b9e0"/></linearGradient></defs><title>Artboards_Diversity_Avatars_by_Netguru</title><path class="cls-1" d="M130.85,182.4c-20.13-31.84-33.35-89.62,2.51-116.6a121.14,121.14,0,0,1,78.49-24c8,.43,16.29,1.77,23.07,6.11s11.73,12.28,10.55,20.24S242.88,78.27,250,81.63A53.36,53.36,0,0,1,266.67,94c5.41,6,9.22,13.85,8.66,21.89-.68,9.69-7.48,18.55-6.47,28.22.76,7.2,5.7,13.16,8.78,19.71a34,34,0,0,1,2.64,22.11c-4.92,20.37-24.62,18.07-41.3,19.7L204.52,209c-9.28.91-18.61.2-27.91,1.63-8.06,1.24-16.85,3.89-24.27-1.07a28.59,28.59,0,0,1-5.93-5.85A208.43,208.43,0,0,1,130.85,182.4Z"/><path class="cls-2" d="M296.41,286.43a184.56,184.56,0,0,1-226.48-1l48.66-22.81a46.83,46.83,0,0,0,6.65-3.82c.64-.44,1.28-.9,1.89-1.38a46.35,46.35,0,0,0,12.78-15.09,44.69,44.69,0,0,0,4.64-14.48,67.91,67.91,0,0,0,.74-9.91c0-5.72-.31-11.44-.37-17.17q-.06-4.75-.1-9.51l2,1L152,195l2.41.41,27.88,4.74,31.12,5.3.94,32,.31,10.46.15,5.08v.33l12.1,4.92Z"/><path class="cls-3" d="M214.71,250.87a16,16,0,0,1-10.07-1.56L145,200.54c-.07-2.26-.13.1-.16-2.16q-.06-4.75-.1-9.51l2,1,5.2,2.69,2.41.41,27.88,4.74L213.3,203l.94,32,.31,10.46.15,5.08v.33Z"/><path class="cls-4" d="M296.41,286.43a184.56,184.56,0,0,1-226.48-1l48.66-22.81a46.83,46.83,0,0,0,6.65-3.82c.64-.44,1.28-.9,1.89-1.38,23.55,16.76,55.69,27.33,83.49,14.82,6.62-3,12.7-7.84,16.3-14.06Z"/><circle class="cls-2" cx="133.71" cy="165.16" r="17"/><circle class="cls-3" cx="139.1" cy="164.98" r="15.22"/><path class="cls-2" d="M138.77,148.93l6.35,56.86c.16,1.47,10.91,5.89,12.19,6.57,14.4,7.77,29.2,18,45.6,20.84,7,1.19,14.33,1.14,21-1.31,11.77-4.35,13.46-13.16,17.61-23.49a183.23,183.23,0,0,0,8.88-28.7c1-4.53,2.16-9.24,2.32-13.89.19-5.52-1-11.94-4.9-16.05-.91-.95-1.87-2.09-1.69-3.5,1.62-12.3,4.11-26.21-1.12-37.92-3.39-7.61-9-14-15.12-19.68,0,0-47.66,34.9-52,37.33C167.6,131.75,138.77,148.93,138.77,148.93Z"/><path class="cls-5" d="M218.71,155.43a51.14,51.14,0,0,0,5.86,10c1.91,2.32,4.21,3.78,4.24,7.18.06,4.94-4.59,7.81-9.16,7.58"/><path class="cls-5" d="M191.75,193.15a29.8,29.8,0,0,0,18.87,9"/><path class="cls-5" d="M171.15,137.68a80.47,80.47,0,0,1,28.09-1.76"/><path class="cls-5" d="M230.17,135.75a55.49,55.49,0,0,1,17.4-1.81"/><path class="cls-5" d="M203.49,174.63a3.4,3.4,0,0,0,2.33,6.31"/><path class="cls-6" d="M186.9,144.78c6.1-.16,6.43,9.16.33,9.42H187c-6.1.16-6.43-9.16-.33-9.42h.27Z"/><path class="cls-6" d="M237.14,143c5.66-.14,6,8.5.3,8.75h-.26c-5.66.15-6-8.5-.3-8.74h.26Z"/></svg>