<?xml version="1.0" encoding="utf-8"?><!-- Uploaded to: SVG Repo, www.svgrepo.com, Generator: SVG Repo Mixer Tools -->
<svg width="800px" height="800px" viewBox="0 0 366.34 366.34" id="Layer_1" data-name="Layer 1" xmlns="http://www.w3.org/2000/svg" xmlns:xlink="http://www.w3.org/1999/xlink"><defs><style>.cls-1{fill:url(#linear-gradient);}.cls-2{fill:url(#linear-gradient-2);}.cls-3{fill:#e18477;}.cls-4{fill:url(#linear-gradient-3);}.cls-5{fill:#a76962;}.cls-6{fill:none;stroke:#00214e;stroke-miterlimit:10;}.cls-7{fill:#ffffff;}.cls-8{fill:#00214e;}</style><linearGradient id="linear-gradient" x1="113.2" y1="123.3" x2="273.17" y2="123.3" gradientUnits="userSpaceOnUse"><stop offset="0" stop-color="#16243f"/><stop offset="1" stop-color="#6878b1"/></linearGradient><linearGradient id="linear-gradient-2" x1="224.19" y1="73.8" x2="274.1" y2="153.34" xlink:href="#linear-gradient"/><linearGradient id="linear-gradient-3" x1="69.93" y1="285.8" x2="296.41" y2="285.8" xlink:href="#linear-gradient"/></defs><title>Artboards_Diversity_Avatars_by_Netguru</title><path class="cls-1" d="M250.35,160.79a35.93,35.93,0,0,1-5.09,4.41c-10.4,7.53-24.28,10-36.14,14.06-5,1.71-59.22,17.12-59.22,20.47,0-.73-5.31-6-12-12.4a79.91,79.91,0,0,1-19.56-85.74c10.91-28.67,45.69-48.43,74.82-53,13.87-2.17,30.33-3.38,43.14,3.27,6.55,3.41,12.05,8.38,17,13.89q2.34,2.61,4.54,5.33c.63.76,1.25,1.52,1.86,2.29C282.47,102,274.4,135.52,250.35,160.79Z"/><path class="cls-2" d="M250.35,160.79a35.93,35.93,0,0,1-5.09,4.41,22.42,22.42,0,0,1-1.15-2.3c-2.64-6-4-12.51-5-19a275.93,275.93,0,0,1-3.17-28.53c-.91-15.34-7.46-22.95,5.57-34.91a43,43,0,0,1,16.35-9.38c.63.76,1.25,1.52,1.86,2.29C282.47,102,274.4,135.52,250.35,160.79Z"/><path class="cls-3" d="M296.41,281.15a184.56,184.56,0,0,1-226.48-1l48.66-22.81a46.83,46.83,0,0,0,6.65-3.82c.64-.44,1.28-.9,1.89-1.38A46.35,46.35,0,0,0,139.91,237a44.69,44.69,0,0,0,4.64-14.48,67.91,67.91,0,0,0,.74-9.91c0-5.72-.31-11.44-.37-17.17q-.06-4.75-.1-9.51l2,1,5.2,2.69,2.41.41,27.88,4.74,31.12,5.3.94,32,.31,10.46.15,5.08V248l12.1,4.92Z"/><path class="cls-4" d="M296.41,281.15a184.56,184.56,0,0,1-226.48-1l48.66-22.81a46.83,46.83,0,0,0,6.65-3.82c.64-.44,1.28-.9,1.89-1.38,23.55,16.76,55.69,27.33,83.49,14.82,6.62-3,12.7-7.84,16.3-14.06Z"/><path class="cls-5" d="M214.81,247.64c-10.45.63-22.13-2.07-33-8.34-20.41-11.79-31.32-32.35-27.4-49.21l27.88,4.74,31.12,5.3.94,32Z"/><circle class="cls-3" cx="134.98" cy="157.97" r="17"/><circle class="cls-5" cx="140.38" cy="157.97" r="15.22"/><path class="cls-3" d="M141,142.81c.22,2.6.07,5.2.27,7.81l1.65,21.48,1.51,19.72c.56,7.27,3.4,11.62,8.12,17.43a85.15,85.15,0,0,0,31.26,23.92c11.6,5.17,27.68,10.31,40.06,5.3,12.65-5.13,16.69-19.33,20.95-31.11s8.2-24.74,8-37.46C252.55,152.64,248,143,248,143l3.33-20c1.25-7.5,2.86-15.35,1-22.9-1.36-5.5-5-9.34-8.79-13.28-4.68-4.83-7-4.67-13.63-2.79a53.78,53.78,0,0,0-28.57,20.27C194.35,114,190.21,126,181,133.5c-6.36,5.19-14.24,7.32-22.28,8a44.19,44.19,0,0,1-8.76.18,63.79,63.79,0,0,0-8.85.36l-.17,0C141,142.28,141,142.54,141,142.81Z"/><path class="cls-6" d="M215.13,141.77c-.08.35,13.36,38.47,13.36,38.47l-17.94.88"/><path class="cls-6" d="M169.11,135.21a80.57,80.57,0,0,1,28.13-.79"/><path class="cls-6" d="M231.7,134.26a55.64,55.64,0,0,1,17.45-1.21"/><path class="cls-6" d="M177.94,195.1a39.62,39.62,0,0,1,15.24-14.42"/><path class="cls-6" d="M195.85,150.41a11.64,11.64,0,0,1-5.18,8.33,12.08,12.08,0,0,1-1.85,1,23.21,23.21,0,0,1-6.41,1.37"/><line class="cls-6" x1="197.21" y1="118.03" x2="228.81" y2="118.03"/><line class="cls-6" x1="193.18" y1="124.56" x2="224.79" y2="124.56"/><path class="cls-6" d="M228.67,148.13a34.62,34.62,0,0,0,3.74,7.23,10.08,10.08,0,0,0,6.24,4"/><path class="cls-7" d="M190,191.61a1.86,1.86,0,0,1,2.68-.5c2.08,1.46,5.88,4.56,11.28,5.64,7.36,1.46,13.75-1.48,15.27.42.86,1.06-.19,2.37-2.2,4.05a19.74,19.74,0,0,1-14.86,3.68c-7.08-1.32-12.39-9.53-12.39-12.43A1.72,1.72,0,0,1,190,191.61Z"/><path class="cls-8" d="M187.3,145.31c6.11-.07,6.29,9.26.19,9.43h-.28c-6.1.07-6.28-9.25-.18-9.42h.27Z"/><path class="cls-8" d="M237.54,143.68c5.67-.07,5.83,8.59.17,8.74h-.25c-5.66.06-5.83-8.59-.17-8.75h.25Z"/></svg>