<?xml version="1.0" encoding="utf-8"?><!-- Uploaded to: SVG Repo, www.svgrepo.com, Generator: SVG Repo Mixer Tools -->
<svg width="800px" height="800px" viewBox="0 0 366.34 366.34" id="Layer_1" data-name="Layer 1" xmlns="http://www.w3.org/2000/svg" xmlns:xlink="http://www.w3.org/1999/xlink"><defs><style>.cls-1{fill:url(#linear-gradient);}.cls-2{fill:url(#linear-gradient-2);}.cls-3{fill:#845161;}.cls-4{fill:#69303a;}.cls-5,.cls-9{fill:none;stroke-miterlimit:10;}.cls-5{stroke:#00214e;}.cls-6{fill:#ff2609;}.cls-7{fill:#ffffff;}.cls-8{fill:#00214e;}.cls-9{stroke:#f2a196;}</style><linearGradient id="linear-gradient" x1="271.65" y1="101.91" x2="417.78" y2="129.84" gradientTransform="matrix(1, -0.02, 0.02, 1, -101.09, 27.27)" gradientUnits="userSpaceOnUse"><stop offset="0" stop-color="#16243f"/><stop offset="1" stop-color="#6878b1"/></linearGradient><linearGradient id="linear-gradient-2" x1="60.16" y1="198.42" x2="253.42" y2="53.37" gradientTransform="matrix(1, 0, 0, 1, 0, 0)" xlink:href="#linear-gradient"/></defs><title>Artboards_Diversity_Avatars_by_Netguru</title><path class="cls-1" d="M262.58,131.33c-1.37,17.78-6.49,35.49-16.48,49.67a26.21,26.21,0,0,1-5.82,6.31c-4,.08-9.63,4.05-14.21,4.49-3.45.34-7.12-.61-10.46-.06-10.42,1.69-21.47,9.34-31,13.85-6.43,3-13,6.12-20.11,6.72-8.6.71-16.7-2.31-23.88-7.2a73.62,73.62,0,0,1-15.9-15.27c-15.07-19.11-24.92-44.64-21.93-69.63C109.53,64,179.5,28.27,230.66,43.28a28,28,0,0,1,7.54,3.46c.72.8,1.43,1.63,2.11,2.46,1.42,1.71,2.78,3.47,4.1,5.27l.68.94a111.69,111.69,0,0,1,12.12,22C264.62,95.38,264.05,112.11,262.58,131.33Z"/><path class="cls-2" d="M240.31,49.2c-1.83,7.51-9.46,18.06-12.59,23.55-14.75,25.79-37.44,45-53.3,69.26-1.13,1.73-2.11,3.55-3.12,5.35-5.2,9.21-10.21,18.54-15.19,27.88q-4.46,8.37-8.83,16.78c-1.15,2.24-2.87,4.32-3.12,6.83a62.23,62.23,0,0,0-.5,7.21,10.2,10.2,0,0,0,.55,2.88c.11.34.8,2.52,1.19,2.54a8.27,8.27,0,0,1-4-1.69c-7.69-5.13-13.37-11.72-18.86-19a112.1,112.1,0,0,1-6.92-10c-5.31-8.91-8.18-19-10.32-29.06-2.23-10.5-3.79-20.76-2.5-31.51C109.53,64,179.5,28.27,230.66,43.28a28,28,0,0,1,7.54,3.46C238.92,47.54,239.63,48.37,240.31,49.2Z"/><circle class="cls-3" cx="126.3" cy="166.14" r="17"/><circle class="cls-4" cx="132.13" cy="165.02" r="16"/><path class="cls-3" d="M296.41,288.18a184.56,184.56,0,0,1-226.48-1l48.66-22.81a46.83,46.83,0,0,0,6.65-3.82c.64-.44,1.28-.9,1.89-1.38a46.35,46.35,0,0,0,12.78-15.09c4-7.55,5.32-15.89,5.38-24.39v-.62c0-4.75-.23-9.51-.33-14.27,0-.76,0-1.52,0-2.28q-.06-4.75-.1-9.51l2,1,5.2,2.69,2.41.41,27.88,4.74,3.79.65,27.33,4.65.94,32,.27,9.21.19,6.33V255l12.1,4.92Z"/><path class="cls-4" d="M214.62,248.34a51.59,51.59,0,0,1-40.18-8.61l-29.15-20.67c0-4.75-.23-9.51-.33-14.27,10.57,5.35,23.21,7.27,33.35,2,2.6-1.33,5.18-2.83,7.77-4.32l27.33,4.65.94,32Z"/><path class="cls-3" d="M246.07,172.2c-.39,21.74-12.34,52.75-17.28,61.87-2.55,4.72-6.25,5.7-12.09,7.2a51.43,51.43,0,0,1-42.46-8.09l-37-26.82c-1.56-12.66-4.81-24.32-6.82-36.91-1.29-8.1-5.32-25.36,1.41-31.82a11.42,11.42,0,0,1,3.15-2c4.41-2.07,10.95-3.27,14.57-4.7q10-3.93,19.81-8.31,10-4.49,19.84-9.42,9.41-4.73,18.58-9.85l9.79,5.68q8.94,5.19,17.87,10.38c11.91,6.91,6.11,14.8,4.28,25.92-.6,3.61.35,3.65,2.26,6.16C245.84,156.64,246.19,166,246.07,172.2Z"/><path class="cls-5" d="M163.4,137.56a80.77,80.77,0,0,1,28.11-1.35"/><path class="cls-5" d="M222.44,136.49a55.62,55.62,0,0,1,17.43-1.56"/><path class="cls-6" d="M296.41,288.18a184.56,184.56,0,0,1-226.48-1l48.66-22.81a46.83,46.83,0,0,0,6.65-3.82c.64-.44,1.28-.9,1.89-1.38,23.55,16.76,55.69,27.33,83.49,14.82,6.62-3,12.7-7.84,16.3-14.06Z"/><path class="cls-5" d="M195.18,176.25a3.4,3.4,0,0,0,2.24,6.34"/><path class="cls-5" d="M210,146.91c2.68,9.5,4.94,18.86,7.5,28.43a6.8,6.8,0,0,1,.35,2.71c-.37,2.76-3.62,3.95-6.33,4.59"/><circle class="cls-6" cx="208.08" cy="130.65" r="4.02"/><path class="cls-7" d="M220.15,110.52c-7.73.2-17.89.5-25.58,1.59-2.22.32-5.41,1.06-5.41,1.06q9.41-4.73,18.58-9.85Z"/><path class="cls-8" d="M243,193.83c-4,17-10.58,33.91-14,40.24-2.56,4.72-6.26,5.69-12.1,7.2a51,51,0,0,1-40.69-6.76c-4.51-2.88-9.13-5.56-13.73-8.28-5.19-3.06-10.35-6.18-15.25-9.67-4.27-3.05-8.27-6.09-10.54-11a39.17,39.17,0,0,1-2-5.59c-.46-1.59-1-3.43-.64-5.1a1.88,1.88,0,0,1,1.23-1.43,2.36,2.36,0,0,1,1.36.12c2.87.86,5.49,2.81,8.09,4.26a41.79,41.79,0,0,0,8.88,3.83c8.08,2.34,17.08,2.54,24.71-1.39,6.82-3.51,13.48-8.06,20.61-11A34.88,34.88,0,0,1,214,186.39c7.35.35,10.55,3.6,16,7.86,1.79,1.4,3.79,2.86,6.06,2.83C238.6,197,240.88,195.52,243,193.83Z"/><path class="cls-9" d="M196.56,201.5a29.73,29.73,0,0,0,20.92.39"/><path class="cls-8" d="M176.08,146.39c6.1-.07,6.29,9.25.19,9.42H176c-6.1.07-6.28-9.25-.18-9.42h.27Z"/><path class="cls-8" d="M226.32,144.75c5.66-.06,5.83,8.59.17,8.74h-.25c-5.67.06-5.83-8.59-.17-8.75h.25Z"/></svg>