<?xml version="1.0" encoding="utf-8"?><!-- Uploaded to: SVG Repo, www.svgrepo.com, Generator: SVG Repo Mixer Tools -->
<svg width="800px" height="800px" viewBox="0 0 366.34 366.34" id="Layer_1" data-name="Layer 1" xmlns="http://www.w3.org/2000/svg" xmlns:xlink="http://www.w3.org/1999/xlink"><defs><style>.cls-1{fill:url(#linear-gradient);}.cls-2{fill:url(#linear-gradient-2);}.cls-3{fill:#845161;}.cls-4{fill:#69303a;}.cls-5{fill:url(#linear-gradient-3);}.cls-6,.cls-8{fill:none;stroke-miterlimit:10;}.cls-6{stroke:#ffffff;}.cls-7{fill:url(#linear-gradient-4);}.cls-8{stroke:#00214e;}.cls-9{fill:#00214e;}.cls-10{fill:#ffffff;}</style><linearGradient id="linear-gradient" x1="-1177.82" y1="131.56" x2="-1082.82" y2="131.56" gradientTransform="translate(1276.99 198.93) rotate(13.12)" gradientUnits="userSpaceOnUse"><stop offset="0" stop-color="#16243f"/><stop offset="1" stop-color="#6878b1"/></linearGradient><linearGradient id="linear-gradient-2" x1="98.71" y1="168.67" x2="260.69" y2="168.67" gradientTransform="matrix(1, 0, 0, 1, 0, 0)" xlink:href="#linear-gradient"/><linearGradient id="linear-gradient-3" x1="58.45" y1="339.99" x2="265.95" y2="282.46" gradientUnits="userSpaceOnUse"><stop offset="0" stop-color="#315676"/><stop offset="1" stop-color="#e1b9e0"/></linearGradient><linearGradient id="linear-gradient-4" x1="111.94" y1="98.26" x2="210.94" y2="139.54" gradientTransform="matrix(1, 0, 0, 1, 0, 0)" xlink:href="#linear-gradient"/></defs><title>Artboards_Diversity_Avatars_by_Netguru</title><path class="cls-1" d="M192.58,81.19c-1.37,5.88-9.2,8.78-12.51,13.39-3.43,4.79-3.74,13.1-8.66,16.16s-12.52-.34-18.32.62c-5.61.93-11.68,6.68-17.55,5.31s-8.78-9.21-13.39-12.52c-4.79-3.43-13.1-3.74-16.16-8.66s.34-12.51-.62-18.32c-.93-5.61-6.68-11.67-5.31-17.55s9.21-8.78,12.52-13.39c3.43-4.79,3.74-13.1,8.66-16.16s12.51.34,18.32-.62c5.61-.93,11.67-6.67,17.55-5.3s8.78,9.2,13.39,12.51c4.79,3.43,13.1,3.74,16.16,8.66s-.34,12.52.62,18.33C188.21,69.25,194,75.32,192.58,81.19Z"/><path class="cls-2" d="M210.4,216c-2.52,3-4.7,6.28-7.26,9.23-13.62,15.66-43.3,5.37-58.06-4-10.83-6.85-19-17.18-26-27.94-8.6-13.27-15.79-27.7-18.9-43.2C85.93,79.1,177,48.22,228.07,83.07c19,13,36.18,42.16,32,65.53-2.13,11.86-10.57,22.53-9.67,34.54,1,12.94,12.7,25.27,7.8,37.29-1.92,4.7-6.05,8.06-9.41,11.87-4.53,5.15-7.83,11.59-8.23,18.43s2.45,14,8.1,17.92c-13.93-1.86-22.52-18.54-18.91-32.12,1.18-4.46,3.35-8.62,4.3-13.14s.4-9.77-3.05-12.83c-4.43-3.93-11.65-2.44-16.31,1.22A30.41,30.41,0,0,0,210.4,216Z"/><path class="cls-3" d="M296.41,304.08a184.56,184.56,0,0,1-226.48-1l48.66-22.81a47.68,47.68,0,0,0,4.35-2.34l1.12-.7c.4-.25.79-.51,1.18-.78A46.54,46.54,0,0,0,139.91,260c4-7.55,5.32-15.89,5.38-24.39,0-5.72-.31-11.44-.37-17.17q-.06-4.75-.1-9.51l.2.1,1.78.92,5.2,2.69,30.29,5.15,31.12,5.3.72,24.47.22,7.5.47,15.87,11.47,4.67,9,3.64Z"/><path class="cls-4" d="M214.13,247.53a12,12,0,0,1-7.22,2c-14.79-1.59-43.64-13.18-61.8-34.63q0-1.58-.06-3.15l0-2.79,1.78.92,5.2,2.69,30.29,5.15,31.12,5.3Z"/><path class="cls-5" d="M296.41,304.09a184.56,184.56,0,0,1-226.48-1l48.66-22.81a49.22,49.22,0,0,0,4.36-2.34c23.67,17.41,56.63,28.75,85.05,16,8.06-3.62,15.33-10.05,18.29-18.31l9,3.64Z"/><circle class="cls-3" cx="119.82" cy="176.91" r="17"/><circle class="cls-4" cx="125.82" cy="174.91" r="17"/><path class="cls-3" d="M235.36,151.16C247.1,191.85,222.16,241,206.82,241c-21,0-72-16.77-83.73-57.46S127,102.65,158,93.7,223.62,110.48,235.36,151.16Z"/><ellipse class="cls-6" cx="170.38" cy="164.41" rx="19" ry="11.84"/><ellipse class="cls-6" cx="225.18" cy="161.85" rx="19" ry="11.84"/><path class="cls-7" d="M200.54,101.22c-2.4,4.74-7.4,8.86-10.37,13.71-3.89,6.35-6.83,13.25-10.13,19.92-2.45,5-5.18,9.94-9.33,13.61s-10,5.84-15.31,4.31c-3.64-1.05-6.59-3.65-9.85-5.58s-7.43-3.22-10.77-1.42c-4.92,2.64-4.85,9.81-8.37,14.14-8.07,9.93-22.88-3.45-24.67-12.12-2.6-12.67,7.79-23.26,15.35-32,6.31-7.3,14.83-18.44,24.73-20.87.18,0,58-23,58-23,.52,7.73,3.64,19.16,1.78,26.56A13,13,0,0,1,200.54,101.22Z"/><path class="cls-8" d="M198.4,153.06c-.05.24,5.54,15.88,8.93,25.32a5.26,5.26,0,0,1-4.94,7h-3.64"/><path class="cls-8" d="M209.86,142.85a31.18,31.18,0,0,1,22.85-2.16"/><path class="cls-8" d="M154.75,146.55a36.72,36.72,0,0,1,31.23-1"/><line class="cls-6" x1="189.38" y1="164.41" x2="206.32" y2="163.11"/><path class="cls-9" d="M172.92,157.63c6.1,0,6.1,9.37,0,9.42h-.27c-6.11-.05-6.11-9.38,0-9.42h.27Z"/><path class="cls-9" d="M223.18,154.54c5.66.05,5.66,8.7,0,8.75h-.25c-5.67,0-5.67-8.7,0-8.75h.25Z"/><path class="cls-8" d="M191.3,179.65a3.38,3.38,0,0,0-3,3.15,2.65,2.65,0,0,0,3.24,2.5"/><path class="cls-10" d="M173.65,194.77a1.86,1.86,0,0,1,2.68-.5c2.08,1.46,5.88,4.56,11.28,5.63,7.36,1.47,13.75-1.48,15.27.42.86,1.07-.19,2.37-2.2,4.05a19.74,19.74,0,0,1-14.86,3.69c-7.08-1.33-12.4-9.53-12.4-12.44A1.68,1.68,0,0,1,173.65,194.77Z"/></svg>