<?xml version="1.0" encoding="utf-8"?><!-- Uploaded to: SVG Repo, www.svgrepo.com, Generator: SVG Repo Mixer Tools -->
<svg width="800px" height="800px" viewBox="0 0 366.34 366.34" id="Layer_1" data-name="Layer 1" xmlns="http://www.w3.org/2000/svg" xmlns:xlink="http://www.w3.org/1999/xlink"><defs><style>.cls-1{fill:url(#linear-gradient);}.cls-2{fill:#00214e;}.cls-3{fill:#f2a196;}.cls-4{fill:#e88870;}.cls-5{fill:none;stroke:#00214e;stroke-miterlimit:10;}.cls-6{fill:#ff2609;}.cls-7{fill:url(#linear-gradient-2);}</style><linearGradient id="linear-gradient" x1="91.81" y1="173.54" x2="257.42" y2="173.54" gradientUnits="userSpaceOnUse"><stop offset="0" stop-color="#16243f"/><stop offset="1" stop-color="#6878b1"/></linearGradient><linearGradient id="linear-gradient-2" x1="91.27" y1="159.59" x2="264.79" y2="159.59" xlink:href="#linear-gradient"/></defs><title>Artboards_Diversity_Avatars_by_Netguru</title><path class="cls-1" d="M220.15,252.36a131.89,131.89,0,0,1-18.72,17.3c-12.11,9.13-21.08,8.08-35.15,6.86-16.35-1.41-32.57-4-48.87-5.92-2.07-.24-4.29-.55-5.81-2a9.83,9.83,0,0,1-2.36-4.81,501.3,501.3,0,0,1-17.3-107c-1.8-34.6,16-68.48,49.59-81.18,34.85-13.2,80.21-4.43,100.87,28.58C271.39,150.56,255.38,213,220.15,252.36Z"/><path class="cls-2" d="M296.41,281.93a184.56,184.56,0,0,1-226.48-1l48.66-22.81a47.68,47.68,0,0,0,4.35-2.34l1.12-.7c.4-.25.79-.51,1.18-.78a46.54,46.54,0,0,0,14.67-16.47c4-7.55,5.32-15.89,5.38-24.39,0-5.72-.31-11.44-.37-17.17q-.06-4.75-.1-9.51l2,1,5.2,2.69,30.29,5.15,31.12,5.3.94,32,.47,15.87,11.47,4.67,9,3.64Z"/><path class="cls-3" d="M214.35,232.88a60.08,60.08,0,0,1-30.07-2.35c-21.58-7.25-36.11-24.74-37.48-42.76l5.2,2.69,30.29,5.15,31.12,5.3Z"/><circle class="cls-3" cx="119.82" cy="154.75" r="17"/><circle class="cls-4" cx="125.82" cy="152.75" r="17"/><path class="cls-3" d="M235.36,129c11.74,40.68-13.2,89.87-28.54,89.87-21,0-72-16.78-83.73-57.46S127,80.5,158,71.55,223.61,88.33,235.36,129Z"/><path class="cls-5" d="M177.78,176.05a29.76,29.76,0,0,0,18.54,9.69"/><path class="cls-6" d="M240.36,104.75C236.19,94.63,225,89.63,214.71,85.88c-5.56-2-11.26-4-17.18-4.13A41.21,41.21,0,0,0,181.59,85c-8.87,3.48-18,8.68-24.81,15.37-3.31,3.25-6.32,6.66-9.74,9.91-1.88,1.8-3.69,3.68-5.41,5.63-1.31,1.49-2.89,4.6-4.53,5.6C167.63,103,205.53,96.15,240.36,104.75Z"/><path class="cls-5" d="M198.4,130.91c0,.2,4.79,8.56,7.32,17.59a57.7,57.7,0,0,1,1.61,14.75H193.82"/><path class="cls-5" d="M210.81,122.4a31.08,31.08,0,0,1,22.85-2.16"/><path class="cls-5" d="M151.67,126.38a36.75,36.75,0,0,1,31.23-1"/><path class="cls-2" d="M169.21,135.24c6.1,0,6.1,9.37,0,9.42h-.28c-6.1,0-6.1-9.37,0-9.42h.28Z"/><path class="cls-2" d="M219.33,133.85c5.67,0,5.67,8.7,0,8.74h-.25c-5.66,0-5.66-8.7,0-8.74h.25Z"/><path class="cls-7" d="M262.21,116.54c-6-30.47-23-57.83-54.63-67.31C160.21,35,100.29,70.87,92.77,120.19,86,164.45,102.3,225.85,136.82,255.64c19.59,16.9,48.88,22.29,72.91,12.81,14-5.51,19-15.86,25.39-28.39,9.84-19.3,19.15-39,24.87-59.9A142.39,142.39,0,0,0,262.21,116.54ZM209.6,217.64c-11.48,4.63-28.46-.46-38.7-6q-2.18-1.19-4.24-2.54c-20.78-13.66-31.66-37.58-38.32-60.7a101.49,101.49,0,0,1-2.53-10.14c.07.32,6.41-2.82,6.89-3.06a51.36,51.36,0,0,0,8.75-6c9.86-8.06,15.93-19.15,24.72-28.19,6.43-6.61,14-12.46,23-14.77,14.68-3.73,29.4,8.31,36.3,20.39,7.88,13.78,12.42,28.74,11.51,44.65a145.7,145.7,0,0,1-4,27.24c-3.17,12.54-8.44,24.5-17,34a23,23,0,0,1-4.46,4A11.21,11.21,0,0,1,209.6,217.64Z"/></svg>