<?xml version="1.0" encoding="utf-8"?><!-- Uploaded to: SVG Repo, www.svgrepo.com, Generator: SVG Repo Mixer Tools -->
<svg width="800px" height="800px" viewBox="0 0 366.34 366.34" id="Layer_1" data-name="Layer 1" xmlns="http://www.w3.org/2000/svg"><defs><style>.cls-1{fill:#daaea8;}.cls-2{fill:#f2a196;}.cls-3{fill:#e88870;}.cls-4{fill:#f2d4cf;}.cls-5{fill:#00214e;}.cls-6,.cls-7,.cls-8{fill:none;stroke-miterlimit:10;}.cls-6,.cls-8{stroke:#00214e;}.cls-7{stroke:#f2a196;}.cls-8{stroke-linecap:round;stroke-width:3px;}</style></defs><title>Artboards_Diversity_Avatars_by_Netguru</title><path class="cls-1" d="M270.23,277.9c-2-66.11-4.78-135.39-38.18-192.48-8.2-14-21.14-28.45-37.29-26.94C175.88,60.24,166.5,81.72,161,99.86c-8.18,26.89-16.38,53.8-23.23,81.07-4.95,19.73-18.64,53.57-11.16,74C139.93,291.26,238.9,279,270.23,277.9Z"/><circle class="cls-2" cx="127.47" cy="162.34" r="17"/><circle class="cls-3" cx="133.3" cy="161.19" r="16"/><path class="cls-2" d="M296.41,283.36a184.56,184.56,0,0,1-226.48-1l48.66-22.81a46.83,46.83,0,0,0,6.65-3.82l1.11-.78.78-.6a46.35,46.35,0,0,0,12.78-15.09c4-7.55,5.32-15.89,5.38-24.39,0-2.87-.06-5.74-.15-8.61s-.19-5.7-.22-8.56q-.06-4.75-.1-9.51l1.84.95.14.07,5.2,2.69,2.41.41L182.29,197l11.05,1.88,20.07,3.42.94,32,.39,13.3.07,2.24v.33l12.1,4.92.75.31Z"/><path class="cls-3" d="M145.14,204,178,234.82a51.66,51.66,0,0,0,36.77,12.79l-.39-13.3-.94-32-20.07-3.42c-2.74,1.24-5.48,2.48-8.22,3.56-8.2,3.23-17.47,2-25.42-1.36a36.93,36.93,0,0,1-14.87-12Z"/><path class="cls-4" d="M296.41,283.36a184.56,184.56,0,0,1-226.48-1l48.66-22.81a46.83,46.83,0,0,0,6.65-3.82l1.11-.78c24.36,16.61,56.82,26.66,85,14a37.81,37.81,0,0,0,16.31-13.51Z"/><path class="cls-2" d="M247.28,167.76a105.75,105.75,0,0,1-3,21.68c-3.88,17-10.59,33.93-14,40.28-2.55,4.74-6.23,5.73-12.06,7.27a51.49,51.49,0,0,1-42.51-7.87l-37.09-25.93c-.63-5-1.63-10.21-2.72-15.53-3.17-15.47-7.19-31.84-6-46.4a17,17,0,0,1,5.37-10.83c8.17-8.15,23.75-12.15,33.37-14.88,14.52-4.13,29.48-6.7,43.77-11.55,10.53-3.56,21.85-8.87,28-18.59,0,0,1.38,10.78,1.69,13.24.66,5.08.76,9.49,1.44,14.5a52.06,52.06,0,0,1-.6,16.47c-.73,3.75-1.62,7.49-2.22,11.27-.58,3.62.37,3.65,2.28,6.15C247,152.19,247.35,161.59,247.28,167.76Z"/><path class="cls-5" d="M179.69,141.15c6.1-.11,6.33,9.21.24,9.42h-.28c-6.1.1-6.34-9.22-.24-9.43h.28Z"/><path class="cls-5" d="M229.76,138.49c5.66-.1,5.88,8.55.22,8.74h-.25c-5.66.09-5.88-8.56-.22-8.75h.25Z"/><path class="cls-6" d="M211.61,144.36c0,.2,5,8.43,7.76,17.4a57.71,57.71,0,0,1,2,14.7l-13.51.35"/><path class="cls-5" d="M244.32,189.44c-3.88,17-10.59,33.93-14,40.28-2.55,4.74-6.23,5.73-12.06,7.27a51.49,51.49,0,0,1-42.51-7.87l-37.09-25.93c-.74-5.86-3-11.45-4.39-17.21-.61-2.62-1.16-5.34-.56-8a6.8,6.8,0,0,0,1.8,3.69c4.88,6.3,10.58,13.4,18.51,15.84,8.26,2.54,17.61,2.74,25.42-1.34,6.8-3.55,13.44-8.13,20.56-11.1a35.1,35.1,0,0,1,15-3c7.35.32,10.58,3.55,16.06,7.78,1.79,1.39,3.8,2.84,6.08,2.8C239.74,192.63,242.2,191.15,244.32,189.44Z"/><path class="cls-7" d="M197.89,196a29.74,29.74,0,0,0,20.85-1.74"/><path class="cls-6" d="M164.42,133.57a80.49,80.49,0,0,1,28.1-1.51"/><path class="cls-6" d="M223.45,132.18a55.28,55.28,0,0,1,17.42-1.65"/><path class="cls-6" d="M196.4,172.08a3.4,3.4,0,0,0,2.28,6.33"/><polygon class="cls-5" points="134.96 187.74 135.96 187.66 136.64 188.42 139.14 202.18 138.66 202.37 137.92 201.4 134.96 187.74"/><path class="cls-4" d="M159.44,168.25c-5.35,23.06-18.32,117.88-19,141.48.19-7-54.58-17.11-59.26-24,0,0,34.33-166.88,35.31-182.24.08-1.26,3-13.5,4.71-16.63C150.07,35.12,219.5,30.2,252.75,76.29c.67.93,2.26,7.78,2.89,8.73,1.85,2.78,3.21,5.56,4.81,8.33,9.82,17,10.6,41.25,11.4,60.74,1,24.41,13.94,127.46,13.94,127.46s-34.12,10-34.4,10.06c0,0,1.28-121.58.24-134.13-1-12-3.43-27.55-9.76-38-5-8.22-43.87-6.61-54.51-3.18-14.53,4.68-20.18,17.24-23.55,32.59Q161.68,158.61,159.44,168.25Z"/><path class="cls-8" d="M118.43,84.41A235.81,235.81,0,0,0,196,91.68,232,232,0,0,0,256.92,79.5"/><path class="cls-8" d="M115.1,94a254.59,254.59,0,0,0,82.74,8A241.13,241.13,0,0,0,261.41,89.3"/></svg>