<?xml version="1.0" encoding="utf-8"?><!-- Uploaded to: SVG Repo, www.svgrepo.com, Generator: SVG Repo Mixer Tools -->
<svg width="800px" height="800px" viewBox="0 0 366.34 366.34" id="Layer_1" data-name="Layer 1" xmlns="http://www.w3.org/2000/svg" xmlns:xlink="http://www.w3.org/1999/xlink"><defs><style>.cls-1{fill:#00214e;}.cls-2{fill:#e18477;}.cls-3{fill:#a76962;}.cls-4,.cls-7{fill:none;stroke-miterlimit:10;}.cls-4{stroke:#00214e;}.cls-5{fill:url(#linear-gradient);}.cls-6{fill:#f2d4cf;}.cls-7{stroke:#f2d4cf;stroke-width:2px;}</style><linearGradient id="linear-gradient" x1="69.93" y1="299.08" x2="296.41" y2="299.08" gradientUnits="userSpaceOnUse"><stop offset="0" stop-color="#315676"/><stop offset="1" stop-color="#e1b9e0"/></linearGradient></defs><title>Artboards_Diversity_Avatars_by_Netguru</title><path class="cls-1" d="M278.48,125.53c0,7.87-8.9,14.47-10.84,21.73-2,7.52,2.34,17.67-1.46,24.25s-14.87,8-20.28,13.37-6.71,16.42-13.38,20.28-16.73-.54-24.24,1.47c-7.26,1.94-13.86,10.84-21.74,10.84s-14.47-8.9-21.73-10.84c-7.51-2-17.67,2.34-24.24-1.47s-8-14.86-13.38-20.28-16.42-6.7-20.28-13.37.54-16.73-1.46-24.25c-1.94-7.26-10.84-13.86-10.84-21.73s8.9-14.47,10.84-21.73c2-7.52-2.34-17.67,1.46-24.25s14.87-8,20.28-13.37,6.7-16.42,13.38-20.28,16.73.54,24.24-1.47c7.26-1.94,13.86-10.84,21.73-10.84s14.48,8.9,21.74,10.84c7.51,2,17.66-2.34,24.24,1.47s8,14.86,13.38,20.28,16.42,6.7,20.28,13.37-.55,16.73,1.46,24.25C269.58,111.06,278.48,117.66,278.48,125.53Z"/><circle class="cls-2" cx="134.82" cy="171.25" r="17"/><circle class="cls-3" cx="140.68" cy="170.25" r="16"/><path class="cls-2" d="M296.41,294.43a184.56,184.56,0,0,1-226.48-1l48.66-22.81a46.83,46.83,0,0,0,6.65-3.82c.64-.44,1.28-.9,1.89-1.38a46.35,46.35,0,0,0,12.78-15.09c4-7.55,5.32-15.89,5.38-24.39,0-5.72-.31-11.44-.37-17.17q-.06-4.75-.1-9.51l2,1L152,203l2.41.41,27.88,4.74,31.12,5.3.94,32,.46,15.54v.33l12.1,4.92Z"/><path class="cls-3" d="M214.69,257.38l-1.54.16a51.49,51.49,0,0,1-40.67-14.65L145.1,211.48c-.09-2.9-.2-1.1-.23-4q-.06-4.75-.1-9.51l2,1,5.2,2.69,2.41.41,27.88,4.74,31.12,5.3.94,32Z"/><path class="cls-2" d="M139.93,136.65c-.79,1-1.49,2.95-2.24,6.11-1.73,7.33,5.85,55.46,7.3,69.62l36.42,26.86a51.51,51.51,0,0,0,42.29,8.94c5.87-1.39,9.59-2.29,12.24-7,5.12-9,17.69-39.79,18.51-61.51.23-6.16.08-15.56-3.72-20.82-1.85-2.55-2.8-2.6-2.13-6.21s1.68-7.47,2.51-11.21c2.29-10.33,4.12-22,.81-32.28-1.76-5.5-4.87-9.14-9.29-12.67-4.72-3.78-6.67-3.6-9.5,2-1.91,3.8-3.83,7-7.7,9.16-5.61,3.11-9.43,1.09-15,.66-4.88-.37-4.36,3.4-5.43,7a16.87,16.87,0,0,1-6.77,9.25,18.53,18.53,0,0,1-20,.11,4.75,4.75,0,0,0-2.85-.89c-3.34.18-3.49,4.19-4.25,7.07-1.61,6-8.62,9.32-14.85,8.84C146.12,138.92,142.5,133.26,139.93,136.65Z"/><path class="cls-4" d="M220.19,154.54a57.27,57.27,0,0,0,2,11.48c1,3.31,2.52,5.37,4.52,8.22a18.39,18.39,0,0,1,1.79,3c2.64,5.94-.87,12.53-7.55,12.53h-4.13"/><path class="cls-4" d="M191.16,199.57a29.83,29.83,0,0,0,18.54,9.69"/><path class="cls-4" d="M172.49,143.42a80.57,80.57,0,0,1,28.13-.79"/><path class="cls-4" d="M231.54,143.53A55,55,0,0,1,249,142.32"/><path class="cls-5" d="M296.41,294.43a184.56,184.56,0,0,1-226.48-1l48.66-22.81a46.83,46.83,0,0,0,6.65-3.82c.64-.44,1.28-.9,1.89-1.38,23.55,16.76,55.69,27.33,83.49,14.82,6.62-3,12.7-7.84,16.3-14.06Z"/><path class="cls-4" d="M203.49,182.73a3.41,3.41,0,0,0,2.11,6.39"/><path class="cls-1" d="M187.17,152.93c6.11,0,6.11,9.38,0,9.43h-.27c-6.1-.05-6.1-9.38,0-9.43h.27Z"/><path class="cls-1" d="M237.44,152.27c5.66,0,5.66,8.7,0,8.75h-.26c-5.66-.05-5.66-8.7,0-8.75h.26Z"/><circle class="cls-6" cx="134.78" cy="170.25" r="6.01"/><path class="cls-6" d="M123.39,184.72c-.38-.06-.76-.13-1.14-.22a14.55,14.55,0,0,1,3.3-28.73h0a.92.92,0,0,1,.42,1.74,14.56,14.56,0,0,0-1.59,24.62A1.43,1.43,0,0,1,123.39,184.72Z"/><path class="cls-7" d="M123.06,157.35a8.76,8.76,0,0,1,6.42.07,8.4,8.4,0,0,1,4.58,5.09,12.89,12.89,0,0,1,.72,5"/></svg>